<?xml version="1.0" encoding="UTF-8" standalone="no"?>
<svg
   viewBox="0 0 38.14 38"
   version="1.1"
   id="svg59"
   sodipodi:docname="icon_black_orange.svg"
   width="38.139999"
   height="38"
   inkscape:version="1.1.1 (c3084ef, 2021-09-22)"
   xmlns:inkscape="http://www.inkscape.org/namespaces/inkscape"
   xmlns:sodipodi="http://sodipodi.sourceforge.net/DTD/sodipodi-0.dtd"
   xmlns="http://www.w3.org/2000/svg"
   xmlns:svg="http://www.w3.org/2000/svg">
  <sodipodi:namedview
     id="namedview61"
     pagecolor="#ffffff"
     bordercolor="#666666"
     borderopacity="1.0"
     inkscape:pageshadow="2"
     inkscape:pageopacity="0.0"
     inkscape:pagecheckerboard="0"
     showgrid="false"
     width="38.14px"
     inkscape:zoom="24.25"
     inkscape:cx="18"
     inkscape:cy="18.494845"
     inkscape:window-width="1296"
     inkscape:window-height="1081"
     inkscape:window-x="84"
     inkscape:window-y="25"
     inkscape:window-maximized="0"
     inkscape:current-layer="icon_black_orange" />
  <defs
     id="defs42">
    <style
       id="style40">.cls-1{fill:#242426;}.cls-2{fill:#ff931e;}</style>
  </defs>
  <g
     id="Layer_2"
     data-name="Layer 2"
     transform="translate(6.9999997,1.0044873)">
    <g
       id="Layer_1-2"
       data-name="Layer 1">
      <g
         id="icon_black_orange">
        <path
           class="cls-1"
           d="m 19.82,10.38 a 6.32,6.32 0 0 0 0.19,0.75 1.19,1.19 0 0 0 0.26,-0.11 2.54,2.54 0 0 1 2.54,-0.12 l 0.05,-0.07 a 2,2 0 0 0 -1.35,-0.71 3.09,3.09 0 0 0 -1.61,0.25 z"
           id="path44" />
        <path
           class="cls-1"
           d="m 16.36,9.83 a 3,3 0 0 0 -1.71,0.32 3.84,3.84 0 0 0 -1.89,2.3 l 0.07,0.05 a 5,5 0 0 1 2.09,-1.65 4.19,4.19 0 0 1 2.63,0.16 11.87,11.87 0 0 0 1.35,0.22 4.58,4.58 0 0 0 0,-0.91 C 18.55,10.26 18.17,10.17 17.8,10.08 17.43,9.99 16.9,9.9 16.36,9.83 Z"
           id="path46" />
        <path
           class="cls-1"
           d="m 15.64,13.46 a 1.34,1.34 0 0 1 1.24,-0.84 c 0.62,0 1.12,0.26 1.12,0.8 0,0.54 -0.49,0.84 -1.12,0.8 a 1.43,1.43 0 0 1 -1.24,-0.76 z"
           id="path48" />
        <path
           class="cls-1"
           d="m 20.4,13.3 c 0,-0.44 0.43,-0.68 1,-0.68 a 1,1 0 0 1 0.95,0.68 1.09,1.09 0 0 1 -0.95,0.69 C 20.83,14 20.46,13.76 20.4,13.3 Z"
           id="path50" />
        <path
           class="cls-1"
           d="M 24.14,29.71 20.81,26.2 c 1.76,-0.81 1.46,-1.88 1.3,-3.46 -0.17,-1.88 1.17,-2.55 0.94,-3.48 a 2.92,2.92 0 0 0 -2.78,-2.34 c -1.75,-0.06 -4.23,3.23 -7.44,2.51 -3.21,-0.72 -2.94,-5 -2.94,-5 0,0 1,-4.67 0.09,-5.34 A 2.92,2.92 0 0 1 8.54,6.54 c 0,-1.64 0.93,-3 3.9,-2.57 2.97,0.43 2.42,0.62 4.48,0.85 2.06,0.23 2.6,-0.37 2.6,-0.37 l 0.68,0.64 v 0 l 1.05,1.78 0.17,0.09 c 0,0 -0.3,-1.35 -0.42,-1.78 -0.84,-3 -2.25,-3.63 -2.25,-3.63 v 0 A 2.63,2.63 0 0 0 18.42,1.35 C 16,0 6.7,-1.87 4.18,4.31 c -1,2.5 -0.31,5.79 0.32,7.82 a 2.78,2.78 0 0 0 -0.31,1.2 4.82,4.82 0 0 0 0.23,1.39 4.87,4.87 0 0 0 1.51,2.15 3.54,3.54 0 0 0 1.17,0.67 2.67,2.67 0 0 0 0.64,0.09 1,1 0 0 0 0,-0.35 2.87,2.87 0 0 1 -0.4,-0.18 3.55,3.55 0 0 1 -0.86,-0.73 5.68,5.68 0 0 1 -1.17,-2 c 0,-0.16 -0.1,-0.32 -0.14,-0.49 0,-0.32 -0.12,-1.61 1.11,-1.75 C 8.24,11.94 9,14.4 9,14.4 c 0,0 -0.16,5.75 1.71,8.38 a 9.88,9.88 0 0 0 7.55,4 c -0.37,1.06 -1.24,3.45 -1.86,4.74 a 30.24,30.24 0 0 1 -1.49,2.66 8.11,8.11 0 0 1 -1.06,1.54 l 0.4,0.25 8.67,-4.92 -1.27,-1.29 z m -4.32,-7.59 c -1.18,0.25 -2.42,-0.54 -2.46,-1.37 -0.04,-0.83 1.5,-1.5 2.29,-1.67 a 1.09,1.09 0 0 1 1.43,0.89 C 21,20.79 21,21.87 19.82,22.12 Z"
           id="path52" />
        <circle
           class="cls-2"
           cx="5.6300001"
           cy="30.370001"
           r="5.6300001"
           id="circle54"
           style="fill:#cccccc" />
      </g>
    </g>
  </g>
</svg>
