<?xml version="1.0" encoding="UTF-8" standalone="no"?>
<svg
   viewBox="0 0 13.407769 20"
   version="1.1"
   id="svg260"
   sodipodi:docname="icon_white_gray.svg"
   width="13.407768"
   height="20"
   inkscape:version="1.4.2 (ebf0e940, 2025-05-08)"
   xmlns:inkscape="http://www.inkscape.org/namespaces/inkscape"
   xmlns:sodipodi="http://sodipodi.sourceforge.net/DTD/sodipodi-0.dtd"
   xmlns="http://www.w3.org/2000/svg"
   xmlns:svg="http://www.w3.org/2000/svg">
  <sodipodi:namedview
     id="namedview262"
     pagecolor="#ffffff"
     bordercolor="#666666"
     borderopacity="1.0"
     inkscape:pageshadow="2"
     inkscape:pageopacity="0.0"
     inkscape:pagecheckerboard="0"
     showgrid="false"
     width="38.14px"
     inkscape:zoom="6.0625"
     inkscape:cx="-12.123711"
     inkscape:cy="25.56701"
     inkscape:window-width="1296"
     inkscape:window-height="1081"
     inkscape:window-x="409"
     inkscape:window-y="31"
     inkscape:window-maximized="0"
     inkscape:current-layer="icon_white_orange"
     inkscape:showpageshadow="2"
     inkscape:deskcolor="#d1d1d1" />
  <defs
     id="defs243">
    <style
       id="style241">.cls-1{fill:#eeeeef;}.cls-2{fill:#ff931e;}</style>
  </defs>
  <g
     id="Layer_2"
     data-name="Layer 2"
     transform="translate(0,0.00897562)">
    <g
       id="Layer_1-2"
       data-name="Layer 1">
      <g
         id="icon_white_orange">
        <path
           class="cls-1"
           d="m 11.008366,5.7612387 a 3.5102358,3.5102358 0 0 0 0.105529,0.4165628 0.6609463,0.6609463 0 0 0 0.144409,-0.061096 1.4107593,1.4107593 0 0 1 1.410759,-0.06665 l 0.02777,-0.038879 A 1.1108341,1.1108341 0 0 0 11.947021,5.6168303 1.7162387,1.7162387 0 0 0 11.0528,5.7556845 Z"
           id="path245"
           style="stroke-width:0.555417" />
        <path
           class="cls-1"
           d="M 9.0866231,5.4557593 A 1.6662512,1.6662512 0 0 0 8.13686,5.6334928 2.1328015,2.1328015 0 0 0 7.0871217,6.910952 l 0.038879,0.027771 a 2.7770853,2.7770853 0 0 1 1.1608217,-0.9164382 2.3271975,2.3271975 0 0 1 1.4607469,0.088867 6.5928005,6.5928005 0 0 0 0.7498127,0.1221917 2.5438101,2.5438101 0 0 0 0,-0.5054295 C 10.302987,5.6945887 10.091928,5.6446011 9.8864237,5.5946136 9.6809194,5.544626 9.3865484,5.4946385 9.0866231,5.4557593 Z"
           id="path247"
           style="stroke-width:0.555417" />
        <path
           class="cls-1"
           d="M 8.6867229,7.4719233 A 0.74425886,0.74425886 0 0 1 9.37544,7.0053729 c 0.3443586,0 0.6220671,0.1444085 0.6220671,0.4443337 0,0.2999252 -0.2721543,0.4665503 -0.6220671,0.4443336 A 0.7942464,0.7942464 0 0 1 8.6867229,7.4719233 Z"
           id="path249"
           style="stroke-width:0.555417" />
        <path
           class="cls-1"
           d="m 11.330508,7.3830565 c 0,-0.2443835 0.238829,-0.3776836 0.555417,-0.3776836 a 0.55541706,0.55541706 0 0 1 0.527646,0.3776836 0.6054046,0.6054046 0 0 1 -0.527646,0.3832378 c -0.316588,0.00555 -0.522092,-0.1277459 -0.555417,-0.3832378 z"
           id="path251"
           style="stroke-width:0.555417" />
        <path
           class="cls-1"
           d="m 13.407768,16.497451 -1.849539,-1.949514 c 0.977534,-0.449888 0.810909,-1.044184 0.722042,-1.921743 -0.09442,-1.044184 0.649838,-1.416314 0.522092,-1.932852 A 1.6218178,1.6218178 0 0 0 11.258304,9.3936663 C 10.286324,9.3603413 8.9088897,11.187663 7.1260009,10.787763 5.3431121,10.387863 5.4930747,8.0106778 5.4930747,8.0106778 c 0,0 0.5554171,-2.5937977 0.049988,-2.9659271 A 1.6218178,1.6218178 0 0 1 4.7432617,3.6284372 c 0,-0.910884 0.5165379,-1.6662512 2.1661266,-1.4274219 1.6495886,0.2388294 1.3441093,0.3443586 2.4882684,0.4721045 1.1441593,0.127746 1.4440843,-0.2055043 1.4440843,-0.2055043 l 0.377684,0.3554669 v 0 l 0.583188,0.9886424 0.09442,0.049988 c 0,0 -0.166625,-0.749813 -0.233275,-0.9886423 C 11.197208,1.2068188 10.41407,0.85690604 10.41407,0.85690604 v 0 A 1.4607469,1.4607469 0 0 0 10.230782,0.74582263 C 8.886673,-0.00399041 3.7212943,-1.0426203 2.3216433,2.3898571 1.7662263,3.7783998 2.149464,5.6057219 2.4993768,6.7332186 a 1.5440594,1.5440594 0 0 0 -0.1721793,0.6665004 2.6771102,2.6771102 0 0 0 0.1277459,0.7720298 2.7048811,2.7048811 0 0 0 0.8386798,1.1941466 1.9661764,1.9661764 0 0 0 0.6498379,0.3721295 1.4829636,1.4829636 0 0 0 0.355467,0.049988 0.55541706,0.55541706 0 0 0 0,-0.194396 A 1.594047,1.594047 0 0 1 4.0767612,9.4936414 1.9717306,1.9717306 0 0 1 3.5991026,9.0881869 3.1547689,3.1547689 0 0 1 2.9492646,7.9773528 c 0,-0.088867 -0.055542,-0.1777335 -0.077758,-0.2721544 0,-0.1777334 -0.06665,-0.8942214 0.616513,-0.9719798 1.0886174,-0.1055293 1.5107344,1.2607967 1.5107344,1.2607967 0,0 -0.088867,3.1936477 0.9497631,4.6543947 a 5.4875206,5.4875206 0 0 0 4.1933989,2.221669 c -0.2055043,0.588742 -0.6887172,1.916188 -1.0330758,2.632676 a 16.795812,16.795812 0 0 1 -0.8275714,1.47741 4.5044324,4.5044324 0 0 1 -0.5887421,0.855342 l 0.2221668,0.138854 4.8154655,-2.732652 -0.70538,-0.716488 z M 11.008366,12.281835 C 10.352974,12.420689 9.6642569,11.98191 9.6420402,11.520914 9.6198235,11.059917 10.475166,10.687788 10.913945,10.593367 a 0.6054046,0.6054046 0 0 1 0.794247,0.494321 c -0.04443,0.455442 -0.04443,1.055293 -0.699826,1.194147 z"
           id="path253"
           style="stroke-width:0.555417" />
        <circle
           class="cls-2"
           cx="3.1269982"
           cy="16.864027"
           id="circle255"
           r="3.1269982"
           style="fill:#cccccc;stroke-width:0.555417" />
      </g>
    </g>
  </g>
</svg>
