<?xml version="1.0" encoding="UTF-8" standalone="no"?>
<svg
   viewBox="0 0 16 16"
   version="1.1"
   id="svg379"
   sodipodi:docname="icon.svg"
   inkscape:version="1.1 (c4e8f9e, 2021-05-24)"
   xmlns:inkscape="http://www.inkscape.org/namespaces/inkscape"
   xmlns:sodipodi="http://sodipodi.sourceforge.net/DTD/sodipodi-0.dtd"
   xmlns="http://www.w3.org/2000/svg"
   xmlns:svg="http://www.w3.org/2000/svg">
  <sodipodi:namedview
     id="namedview381"
     pagecolor="#ffffff"
     bordercolor="#666666"
     borderopacity="1.0"
     inkscape:pageshadow="2"
     inkscape:pageopacity="0.0"
     inkscape:pagecheckerboard="0"
     showgrid="false"
     inkscape:zoom="0.85253907"
     inkscape:cx="220.51775"
     inkscape:cy="237.52577"
     inkscape:window-width="1972"
     inkscape:window-height="1099"
     inkscape:window-x="76"
     inkscape:window-y="25"
     inkscape:window-maximized="1"
     inkscape:current-layer="Layer_2" />
  <defs
     id="defs11">
    <style
       id="style9">.cls-1{fill:#fff;}.cls-2{fill:#e1e1e1;}.cls-3{fill:#e3e3e3;}.cls-4{fill:#d8d8d8;}.cls-5{fill:#e9e9e9;}.cls-6{fill:#020202;}.cls-7{fill:#202020;}.cls-8{fill:gray;}.cls-9{fill:#0f0f0f;}.cls-10{fill:#cecece;}.cls-11{fill:#242424;}.cls-12{fill:#181818;}.cls-13{fill:#383838;}.cls-14{fill:#adadad;}.cls-15{fill:#2e2e2e;}.cls-16{fill:#9f9f9f;}.cls-17{fill:#c3c3c3;}.cls-18{fill:#232323;}.cls-19{fill:#f2f2f2;}.cls-20{fill:#cbcbcb;}.cls-21{fill:#fdfdfd;}</style>
  </defs>
  <g
     id="Layer_2"
     data-name="Layer 2">
    <g
       id="Layer_1-2"
       data-name="Layer 1"
       transform="scale(64)">
      <g
         id="icon">
        <rect
           class="cls-1"
           width="16"
           height="16"
           rx="3"
           id="rect13"
           x="0"
           y="0" />
        <path
           class="cls-2"
           d="m 5.25,10.14 a 0.37,0.37 0 0 1 0.24,0.2 c 0.06,0.09 0.12,0.16 0.24,0.11 0.12,-0.05 0,-0.14 0,-0.23 0,-0.28 0,-0.53 -0.42,-0.56 C 5.13,9.66 5.13,9.4 5.12,9.23 a 5.52,5.52 0 0 0 -0.06,-0.81 2.05,2.05 0 0 0 -0.53,-1 0.93,0.93 0 0 1 -0.3,-1 C 4.23,6.34 4.3,6.27 4.39,6.31 A 0.12,0.12 0 0 1 4.45,6.5 c 0,0.07 -0.14,0.13 0,0.22 0.14,0.09 0.18,0 0.29,0 0.11,0 0.29,0 0.44,0 0.15,0 0.13,-0.17 0.13,-0.28 0.21,0 0.2,0.2 0.33,0.27 a 0.64,0.64 0 0 0 0.11,0.42 v 0 0.1 c 0,0.09 0.22,0.1 0.08,0.19 -0.14,0.09 -0.07,0.25 -0.06,0.38 0.01,0.13 0,0.23 0,0.34 0,0.11 0.13,0.21 0.07,0.31 -0.06,0.1 0,0.2 0.16,0.22 C 6.16,8.69 5.83,8.8 5.86,8.92 5.67,9.17 5.95,9.75 6.29,9.84 V 10 c 0,0 -0.14,0 0,0.06 a 0.71,0.71 0 0 0 0.26,0.06 h 0.12 c 0.06,0.09 0.17,0.1 0.26,0.14 l 0.25,0.09 a 3.05,3.05 0 0 0 0.75,0.77 c 0.1,0.26 -0.18,0.15 -0.25,0.26 a 1.53,1.53 0 0 0 -0.3,0 c -0.21,0 -0.43,0.18 -0.64,0 -0.21,-0.18 -0.07,-0.25 -0.21,-0.19 -0.14,0.06 0,0.2 0,0.3 l -0.09,0.05 h -0.2 v -0.12 c 0.16,0 0.18,-0.11 0.09,-0.23 A 0.32,0.32 0 0 0 5.97,11.04 L 5.8,10.96 A 0.16,0.16 0 0 0 5.6,10.84 c 0,-0.21 -0.22,-0.13 -0.26,-0.27 -0.04,-0.14 0,-0.1 0,-0.13 z"
           id="path15" />
        <path
           class="cls-3"
           d="m 10.45,6.67 c -0.11,0 -0.22,0 -0.12,0.18 0.1,0.18 0.34,0.38 0.37,0.66 a 0.53,0.53 0 0 1 0,0.28 H 10.58 L 10.44,7.73 h -0.1 A 0.46,0.46 0 0 0 10.17,7.42 V 7.13 a 0.73,0.73 0 0 1 -0.42,0.16 0.24,0.24 0 0 0 -0.37,0 C 9.31,7.39 9.47,7.46 9.55,7.52 A 0.13,0.13 0 0 1 9.5,7.64 c 0,0 -0.07,0 0,0.07 0.07,0.07 0,0.16 -0.08,0.2 C 9.42,7.72 9.31,7.74 9.18,7.81 9.05,7.88 8.9,8 8.78,8 L 8.46,8.13 C 8.31,8.13 8.25,8.21 8.18,8.3 8.11,8.39 7.76,8.23 7.62,8.46 H 7.55 C 7.55,8.26 7.42,8.37 7.34,8.4 L 7.17,8.48 C 7.07,8.37 7.06,8.14 6.82,8.28 L 6.55,7.96 C 6.55,7.67 6.28,7.56 6.17,7.34 A 2.55,2.55 0 0 1 6,7 C 6.07,6.86 6.1,6.74 5.92,6.66 A 0.22,0.22 0 0 0 5.92,6.57 0.58,0.58 0 0 1 5.65,6.08 V 5.96 A 1.73,1.73 0 0 1 5.76,5.25 C 5.82,5.09 5.57,4.71 5.4,4.69 c 0,0 0,0.07 -0.05,0.11 H 5.28 L 5.16,4.6 5.25,4.54 a 0.23,0.23 0 0 0 0.11,-0.27 1.76,1.76 0 0 1 0,-0.91 V 3.22 a 0.77,0.77 0 0 0 0.3,-0.32 0.79,0.79 0 0 0 0.6,-0.1 0.82,0.82 0 0 1 0.65,-0.09 1.35,1.35 0 0 0 1.18,0 h 0.06 c 0.17,0.19 0.31,0.22 0.38,-0.08 0,0 0,0 0,0 A 1.1,1.1 0 0 0 9,2.82 h 0.19 c 0.12,0 0.19,-0.09 0.3,-0.09 0,0.5 0.33,0.87 0.47,1.31 0.14,0.44 0.43,0.69 0.44,1.13 -0.12,0 -0.21,-0.15 -0.35,-0.11 C 9.76,4.97 9.54,4.84 9.67,4.44 A 0.9,0.9 0 0 0 9.35,4.71 C 9.23,4.83 9.03,4.87 8.98,4.71 8.93,4.55 8.78,4.22 8.82,4 8.86,3.78 8.75,3.85 8.66,3.91 8.42,4.06 8.11,3.91 7.87,4.05 L 7.81,3.99 A 0.42,0.42 0 0 0 7.29,3.85 0.67,0.67 0 0 1 6.82,3.85 C 6.56,3.69 6.47,3.85 6.33,4 6.4,4.1 6.59,4 6.56,4.2 6.53,4.4 6.39,4.2 6.31,4.27 c -0.08,0.07 -0.2,0 -0.28,0.09 -0.08,0.09 -0.16,0.17 0,0.21 a 0.52,0.52 0 0 1 0.3,0.26 c 0.07,0.11 0.2,0.22 0.34,0 C 6.81,4.61 6.75,4.73 6.8,4.75 a 1.92,1.92 0 0 0 0.86,0 c 0.2,0 0.26,0.1 0.26,0.28 0,0.18 -0.11,0.25 -0.27,0.24 A 0.9,0.9 0 0 1 7.26,5.14 c -0.13,-0.06 -0.28,-0.2 -0.42,0 -0.14,0.2 -0.24,0.24 -0.39,0 0,0 -0.13,-0.11 -0.2,0 a 0.24,0.24 0 0 0 -0.08,0.2 0.12,0.12 0 0 0 0.15,0.13 c 0.15,0 0.19,0.13 0.27,0.2 0.08,0.07 0.4,0.3 0.57,0.08 C 7.33,5.53 7.44,5.6 7.6,5.59 L 7.66,5.78 H 7.57 C 7.45,5.84 7.34,5.94 7.41,6.05 7.48,6.16 7.55,5.99 7.63,5.97 L 7.9,5.89 c 0,0.05 0,0.11 0.07,0.14 0.09,0.33 0.25,0.1 0.39,0.06 0.14,-0.04 -0.06,0.22 0.09,0.27 0.15,0.05 0.14,0 0.14,0 0,0 0.2,-0.2 0.22,-0.35 L 9,5.55 V 5.45 C 9,5.33 9,5.3 8.87,5.34 v 0 C 8.87,5.1 9.08,5.14 9.21,5.11 9.34,5.08 9.47,5.16 9.52,5.31 9.57,5.46 9.38,5.39 9.42,5.53 A 1.2,1.2 0 0 0 9.66,6.1 c 0.07,0.34 0.3,0.36 0.58,0.29 0.28,-0.07 0.19,0.16 0.21,0.28 z"
           id="path17" />
        <path
           class="cls-4"
           d="m 6.89,12.16 c -0.12,0 -0.18,-0.08 -0.25,-0.14 A 0.47,0.47 0 0 0 6.48,11.6 c 0,-0.1 -0.09,-0.24 0,-0.3 0.09,-0.06 0.13,0.14 0.21,0.19 0.08,0.05 0.43,0 0.64,0 a 1.53,1.53 0 0 1 0.3,0 v 0 c -0.1,0.1 0,0.24 0,0.29 -0.23,0.26 -0.06,0.51 0,0.76 0,0.07 0,0.14 0.12,0.1 0.12,-0.04 0.35,0 0.52,0.09 0.17,0.09 -0.07,0.18 0,0.27 0.07,0.09 0.09,0.31 -0.16,0.28 -0.25,-0.03 -0.32,0.17 -0.51,0.11 v 0 c 0,-0.08 0,-0.16 -0.09,-0.2 a 0.07,0.07 0 0 0 0,-0.06 V 13 c 0,-0.15 0,-0.32 -0.2,-0.33 C 7.24,12.51 7.25,12.27 6.98,12.28 7,12.19 7,12.15 6.89,12.16 Z"
           id="path19" />
        <path
           class="cls-5"
           d="M 10.08,5.06 9.98,5.17 9.59,5.26 C 9.54,5.11 9.45,5.01 9.28,5.06 9.11,5.11 8.94,5.06 8.94,5.29 H 8.35 C 8.35,5.15 8.25,4.94 8.14,4.94 8.03,4.94 8,5.14 8,5.28 8,5.42 7.74,5.44 7.61,5.54 7.48,5.64 7.31,5.54 7.17,5.7 7.03,5.86 6.78,5.76 6.6,5.62 6.42,5.48 6.48,5.41 6.33,5.42 A 0.12,0.12 0 0 1 6.18,5.29 0.24,0.24 0 0 1 6.26,5.09 c 0.07,-0.08 0.16,0 0.2,0 0.15,0.21 0.28,0.14 0.39,0 0.11,-0.14 0.29,-0.07 0.42,0 a 0.9,0.9 0 0 0 0.39,0.13 c 0.16,0 0.27,0 0.27,-0.24 0,-0.24 -0.06,-0.3 -0.26,-0.28 a 1.92,1.92 0 0 1 -0.86,0 c 0,0 -0.1,0 -0.13,0.08 -0.03,0.08 -0.27,0.07 -0.34,0 A 0.52,0.52 0 0 0 6,4.49 C 5.87,4.49 5.93,4.33 6,4.28 6.07,4.23 6.19,4.28 6.28,4.19 6.37,4.1 6.5,4.33 6.53,4.12 6.56,3.91 6.37,4.02 6.3,3.92 6.44,3.78 6.53,3.61 6.79,3.77 a 0.67,0.67 0 0 0 0.47,0 0.42,0.42 0 0 1 0.52,0.14 L 7.87,4 C 8.11,3.81 8.42,4 8.66,3.86 8.75,3.8 8.83,3.8 8.82,3.95 8.81,4.1 8.95,4.45 9.01,4.69 c 0.06,0.24 0.25,0.14 0.37,0 A 0.9,0.9 0 0 1 9.7,4.42 C 9.57,4.84 9.79,5 10.08,5.06 Z"
           id="path21" />
        <g
           id="x0OTbm">
          <path
             class="cls-6"
             d="m 10.75,9 v 0.1 c -0.1,0 -0.09,0.1 -0.08,0.16 a 0.61,0.61 0 0 1 -0.15,0.55 c -0.11,0.11 -0.22,0.3 -0.06,0.44 0.16,0.14 0.07,0.19 0,0.22 -0.26,0.06 -0.2,0.18 -0.08,0.33 0.12,0.15 0.27,0.18 0.33,0.34 0.06,0.16 -0.4,0.42 -0.12,0.71 0,0 -0.09,0 -0.07,0.07 0.02,0.07 0,0 0.08,0 v 0 0.05 c 0,0 0,0.06 0,0.06 0,0 0,0 0,-0.06 0.15,0 0.29,0.07 0.37,0 -0.11,0 0,0.42 -0.35,0.23 a 0.07,0.07 0 0 0 -0.1,0.06 c -0.06,0.18 -0.15,0.11 -0.26,0.05 -0.11,-0.06 -0.2,-0.05 -0.18,0.09 0.02,0.14 -0.09,0.09 -0.15,0.11 -0.06,0.02 -0.11,-0.13 -0.17,0 v 0 c -0.3,0.06 -0.34,0 -0.28,-0.38 -0.11,0.17 -0.19,0.11 -0.29,0.08 -0.1,-0.03 -0.25,-0.11 -0.38,0 v 0 C 8.81,12.07 8.62,12.12 8.6,12 8.58,11.88 8.7,12 8.69,11.93 8.68,11.86 8.61,11.85 8.55,11.85 c -0.06,0 -0.12,0 -0.2,0 -0.08,0 -0.14,-0.19 -0.24,-0.25 a 0.08,0.08 0 0 1 0,-0.14 c 0.06,0 0.17,-0.12 0.08,-0.17 C 8.1,11.24 8.03,11 7.82,11.1 c 0,-0.18 0,-0.31 -0.22,-0.35 -0.22,-0.04 -0.24,-0.13 0,-0.29 -0.11,0 -0.16,-0.08 -0.22,0 -0.06,0.08 -0.15,0 -0.22,0 v 0 0 c 0,0 0,-0.06 0,-0.08 v 0.06 A 0.16,0.16 0 0 1 7,10.27 c 0,-0.24 0,-0.5 0.39,-0.58 -0.2,0 -0.2,0 -0.12,-0.17 a 0.1,0.1 0 0 0 0,-0.09 C 7.2,9.29 7.21,9.29 7.34,9.3 c 0.13,0.01 0.15,0 0.15,0 0,0 0.05,-0.3 0.2,-0.39 -0.14,-0.09 0,-0.14 0,-0.2 0,-0.06 0.17,0 0.19,0.15 a 0.43,0.43 0 0 0 0.23,0.31 c 0.14,0.09 0.2,-0.14 0.26,0 0.06,0.14 0.34,0.08 0.51,0.08 0.17,0 -0.11,0.07 -0.06,0.16 0.05,0.09 0,-0.1 0.06,-0.15 v 0.05 c 0,0.06 0,0.13 0.06,0.17 0.06,0.04 0.13,0.17 0.19,0 h 0.11 c 0,0 0,0.14 0.07,0.1 0.07,-0.04 0.28,0 0.42,0 a 0.45,0.45 0 0 0 0.52,-0.55 v -0.05 0 0.07 A 0.32,0.32 0 0 1 9.93,8.89 v -0.05 0 0.07 C 9.84,8.91 9.81,8.76 9.7,8.85 9.59,8.94 9.56,8.94 9.54,8.85 9.52,8.76 9.46,8.68 9.54,8.61 A 0.49,0.49 0 0 1 9.94,8.5 c 0.05,0 0.11,0 0.14,0 C 10.11,8.5 10,8.35 10,8.32 a 0.31,0.31 0 0 0 -0.23,0 1.72,1.72 0 0 1 -0.64,0 0.3,0.3 0 0 1 0.27,-0.1 v 0 L 9.46,7.85 A 0.24,0.24 0 0 1 9.72,7.79 C 9.89,7.87 9.83,7.62 9.96,7.64 v 0 C 9.87,7.64 9.86,7.73 9.78,7.71 9.7,7.69 9.73,7.55 9.71,7.47 9.69,7.39 9.63,7.36 9.71,7.33 9.79,7.3 9.8,7.33 9.83,7.4 c 0.03,0.07 0.12,0 0.14,0 0.02,0 0.14,0 0.2,0 0.22,0.2 0.37,0.49 0.72,0.52 l 0.06,0.12 A 4,4 0 0 0 10.87,8.52 C 10.78,8.64 10.56,8.78 10.75,9 Z m -1.1,3.43 c 0,0 0,0 0,0 v 0 0 0 z M 9.53,8.12 v 0 h 0.06 z"
             id="path23" />
          <path
             class="cls-7"
             d="m 8.85,12.17 c 0.13,-0.09 0.26,0 0.38,0 0.12,0 0.18,0.09 0.29,-0.08 -0.06,0.39 0,0.44 0.28,0.38 v 0.16 0 0 c 0.06,-0.06 0.06,-0.11 0,-0.16 -0.06,-0.05 0.1,0 0.17,0 0.07,0 0.17,0.06 0.15,-0.11 -0.02,-0.17 0.07,-0.16 0.18,-0.09 0.11,0.07 0.2,0.13 0.26,-0.05 a 0.07,0.07 0 0 1 0.1,-0.06 c 0.32,0.19 0.24,-0.23 0.35,-0.23 -0.08,0.07 -0.22,0 -0.37,0 v 0 a 0.1,0.1 0 0 0 -0.1,-0.05 v 0 -0.1 c -0.28,-0.29 0.05,-0.48 0.12,-0.71 l 0.2,0.08 c 0,0.14 0.12,0.12 0.21,0.05 h 0.12 v 0 0 a 4.7,4.7 0 0 1 0.9,0.28 c 0,0.12 0.1,0.18 0.16,0.26 0.06,0.08 0.09,0 0.11,0 0.02,0 -0.08,0.18 -0.22,0.12 C 12,11.8 12,12 12,12 c 0,0.31 -0.19,0.17 -0.31,0.18 -0.12,0.01 -0.22,0 -0.2,0.06 0.02,0.06 0,0.3 0.23,0.23 -0.25,0.21 -0.53,0.31 -0.75,0.48 -0.22,0.17 -0.36,0.13 -0.37,0.35 0,0 0,0 0,0.06 a 0.39,0.39 0 0 0 -0.21,0.21 c 0,0 -0.09,0 -0.11,0.08 v 0 c 0,0 0,0 0,0 l -0.1,0.17 a 0.71,0.71 0 0 0 -0.26,0.07 c -0.09,0.05 -0.24,0.09 -0.15,0.25 v 0.1 c -0.08,0 -0.12,0.05 -0.16,0.11 -0.04,0.06 -0.12,0.17 -0.25,0.1 v 0 c 0,0.15 -0.24,0.1 -0.22,0.27 C 9.01,14.61 8.93,14.66 8.88,14.8 a 0.25,0.25 0 0 1 0,0.09 c 0,0 0,0.14 -0.08,0 -0.08,-0.14 -0.18,0 0,-0.1 0.18,-0.1 0,-0.06 0,-0.08 0,-0.02 -0.05,0.06 -0.07,0 C 8.71,14.65 8.48,14.93 8.43,14.65 8.38,14.37 8.71,14.16 8.97,14.01 A 1.41,1.41 0 0 0 9.28,13.8 h 0.06 c 0,0.08 0,0.19 0.12,0.13 0.12,-0.06 0.24,-0.1 0.14,-0.26 l 0.1,-0.1 c 0.13,0.07 0.08,-0.06 0.11,-0.09 0.03,-0.03 0.31,-0.06 0.35,-0.25 0,0 0.06,-0.1 0.1,-0.12 0.04,-0.02 -0.11,-0.09 0,-0.2 0.11,-0.11 -0.09,0 -0.1,0 -0.01,0 -0.2,0 -0.24,-0.08 -0.04,-0.08 -0.17,-0.14 -0.25,-0.26 0,0.19 -0.08,0.22 -0.25,0.18 C 9.25,12.71 9.29,12.54 9.15,12.56 H 9 c 0,-0.08 -0.07,-0.15 -0.17,-0.07 -0.1,0.08 -0.19,0.13 -0.28,0 0.08,-0.17 0.19,-0.35 -0.09,-0.43 A 0.44,0.44 0 0 0 8.41,12 C 8.25,11.76 7.97,11.63 7.84,11.37 v 0 c 0,0 0.16,0 0.17,-0.06 0.01,-0.06 -0.06,-0.14 -0.14,-0.18 v -0.09 c 0.21,-0.1 0.24,0.13 0.37,0.19 0.13,0.06 0,0.13 -0.08,0.17 a 0.08,0.08 0 0 0 0,0.14 c 0.1,0.06 0.1,0.25 0.24,0.25 0.14,0 0.13,0 0.2,0 -0.13,0.1 0,0.11 0.05,0.15 0.05,0.04 0.21,0.07 0.21,0.21 H 8.79 v 0 a 0.1,0.1 0 0 0 0.06,0.02 z m 1.45,0.35 v 0 0 z m 0,-0.12 v 0 0 z"
             id="path25" />
          <path
             class="cls-7"
             d="M 3.88,3.15 3.93,3.08 c 0,-0.05 0,0 0,0 0,0 -0.1,-0.13 -0.07,-0.23 0.16,0.1 0.27,-0.1 0.42,-0.05 A 0.51,0.51 0 0 0 4.85,2.63 c -0.19,-0.09 -0.37,0 -0.52,0 -0.15,0 0.1,-0.22 0,-0.33 L 4.62,2.2 c 0,0 0,0.08 0,0.11 0,0.03 0.06,0 0.08,0 0.02,0 0.08,-0.09 0.15,-0.06 0.07,0.03 0.27,0 0.38,-0.1 0.11,-0.1 0.18,0 0.23,0.12 C 5.51,2.39 5.61,2.44 5.71,2.38 5.81,2.32 5.9,2.24 5.82,2.1 V 2.04 h 0.16 c 0,0.07 0,0.14 0,0.19 0,0.05 -0.05,0.11 0,0.18 0.05,0.07 0.22,0.11 0.26,0 a 0.27,0.27 0 0 0 0,-0.37 c 0.15,-0.1 0.31,-0.19 0.49,0 V 1.84 H 6.9 v 0.29 c 0,0 -0.06,0.06 0,0.08 0.06,0.02 0.05,0 0.06,0 H 7.2 c 0.13,0 0.27,0 0.14,-0.2 0,0 0,-0.1 0,-0.14 0.17,-0.08 0.33,-0.17 0.52,-0.06 0,0 0,0.07 0,0 0,-0.07 0.1,0 0.15,0.06 0.05,0.06 0,0 0.06,0 H 8.15 L 8.37,1.96 8.18,2 c 0,0.07 -0.28,0 -0.2,0.18 0,0 -0.12,0 -0.11,0 C 7.9,1.9 7.71,2 7.6,2 7.49,2 7.51,1.85 7.44,2 7.37,2.15 7.53,2.07 7.53,2.14 v 0 C 7.28,2.14 7.25,2.31 7.37,2.51 L 7.53,2.68 C 7.53,2.75 7.45,2.75 7.4,2.75 H 7.27 v 0 A 0.25,0.25 0 0 0 7,2.51 C 6.9,2.56 7,2.27 6.85,2.41 H 6.79 C 6.67,2.33 6.66,2.34 6.58,2.58 A 0.67,0.67 0 0 0 6.21,2.84 C 5.97,2.73 5.82,2.91 5.64,3 5.46,3.09 5.55,3 5.55,3 5.55,2.77 5.41,2.77 5.24,2.82 H 5 C 5,2.92 5.13,2.93 5.2,2.98 5.27,3.03 5,3 4.91,3 c 0.14,0 0.17,0.14 0,0.22 -0.17,0.08 -0.09,0 -0.09,0.07 0,0.07 0.07,0.06 0.12,0.07 L 5.11,3.41 C 5.25,3.63 5.2,3.79 4.95,3.9 a 0.3,0.3 0 0 0 0.32,0 c 0,0 0.1,0.05 0.05,0.11 -0.05,0.06 -0.2,0 -0.26,0.1 C 5,4.21 4.73,3.91 4.48,4 L 4.74,3.87 c -0.13,0 -0.2,0 -0.26,0 A 1,1 0 0 1 3.84,3.98 c -0.09,0 -0.13,0.09 -0.1,0.17 0.03,0.08 0,0.21 -0.1,0.25 -0.16,-0.14 0,-0.29 0,-0.43 0.18,-0.1 0,-0.12 0,-0.16 A 0.59,0.59 0 0 1 3.8,3.23 c 0,0 0.04,-0.03 0.08,-0.08 z m 0.29,0.56 a 2.18,2.18 0 0 0 0.72,0 c 0.13,0 0.11,-0.08 0,-0.14 L 4.6,3.4 C 4.49,3.32 4.44,3.32 4.42,3.48 A 0.24,0.24 0 0 1 4.17,3.71 Z"
             id="path27" />
          <path
             class="cls-7"
             d="m 9.11,8.31 a 1.72,1.72 0 0 0 0.64,0 0.31,0.31 0 0 1 0.23,0 c 0,0 0.14,0 0.1,0.12 -0.04,0.12 -0.09,0 -0.14,0 a 0.49,0.49 0 0 0 -0.4,0.11 c -0.1,0.07 0,0.17 0,0.24 0,0.07 0.1,0.07 0.16,0 0.06,-0.07 0.14,0.09 0.23,0.06 v 0 A 0.32,0.32 0 0 0 10.25,9 V 9 A 0.45,0.45 0 0 1 9.73,9.55 c -0.14,0 -0.27,-0.1 -0.42,0 C 9.16,9.65 9.25,9.49 9.24,9.45 9.23,9.41 9.31,9.33 9.36,9.28 c 0.05,-0.05 0.32,0 0.41,0.2 0.09,0.2 0.08,0 0.12,-0.06 C 9.93,9.36 9.8,9.21 9.89,9.06 9.79,9.14 9.89,9.25 9.74,9.27 9.59,9.29 9.67,9.15 9.68,9.1 9.75,8.9 9.56,8.94 9.49,8.92 9.42,8.9 9.37,8.98 9.38,9.08 9.39,9.18 9.38,9.15 9.29,9.16 9.2,9.17 9,9 8.85,9.21 8.68,9.21 8.49,9.34 8.34,9.13 8.19,8.92 8.22,9.27 8.08,9.13 A 0.43,0.43 0 0 1 7.85,8.82 C 7.85,8.68 7.72,8.72 7.66,8.67 7.6,8.62 7.49,8.78 7.66,8.87 7.51,8.96 7.52,9.13 7.46,9.26 c -0.06,0.13 -0.09,0 -0.15,0 -0.06,0 -0.14,0 -0.07,0.13 a 0.1,0.1 0 0 1 0,0.09 C 7.16,9.63 7.16,9.63 7.36,9.65 7,9.77 7,10 7,10.27 A 3,3 0 0 1 6.31,10 h 0.22 a 0.11,0.11 0 0 0 0.18,0 c 0,0 0,-0.1 0,-0.15 0,-0.05 -0.11,0 0,-0.08 C 6.6,9.7 6.71,9.46 6.45,9.5 v 0 c 0,-0.09 0,-0.21 -0.16,-0.2 L 6.23,9.14 c 0,-0.2 0.16,-0.39 0,-0.59 v 0 C 6.32,8.33 6.13,8.31 6.02,8.24 5.91,8.17 5.83,8 5.82,7.81 5.81,7.62 5.82,7.72 5.82,7.68 5.82,7.64 5.89,7.5 6.02,7.51 6.15,7.52 6.11,7.66 6.11,7.77 6.11,7.88 6,7.9 6.11,8 6.22,8.1 6.24,7.92 6.31,7.9 6.38,7.88 6.31,7.76 6.44,7.74 v 0 a 0.17,0.17 0 0 0 0,0.17 L 6.6,7.8 V 7.94 C 6.6,7.94 6.52,8 6.5,8 c -0.02,0 0,0 0,0.07 0,0.07 0.09,0 0.1,0 0.01,0 0.12,0 0.13,0.07 0,0.22 0.21,0.28 0.36,0.38 v 0.11 c 0,0 -0.06,0.06 -0.08,0 C 6.99,8.57 7.01,8.46 6.85,8.54 6.69,8.62 6.73,8.6 6.76,8.67 6.79,8.74 6.83,8.79 6.95,8.8 A 0.62,0.62 0 0 0 7.39,8.63 c 0.08,-0.11 0.24,0 0.32,-0.14 h 0.1 a 0.85,0.85 0 0 1 0.06,0.17 c 0,0.21 0.13,0.3 0.32,0.1 L 8.52,8.97 C 8.52,8.77 8.61,8.69 8.74,8.6 A 2.43,2.43 0 0 0 9.04,8.34 Z M 6.59,9 c 0,0.31 0.22,0.52 0.14,0.82 C 6.88,9.75 7.09,9.73 6.97,9.56 6.85,9.39 6.97,9.35 7.05,9.27 7.13,9.19 7.11,9.1 7.05,9.01 6.99,8.92 7,8.91 7,9 6.86,9.2 6.73,9.1 6.59,9 Z M 6.1,8.12 v 0 0 0 c 0,0 0,0.01 0,0 z"
             id="path29" />
          <path
             class="cls-8"
             d="m 5.35,12.09 v 0 c 0,-0.09 0.07,-0.23 -0.1,-0.23 -0.17,0 -0.16,0.06 -0.11,0.18 0.05,0.12 -0.1,0.09 -0.18,0 -0.08,-0.09 -0.29,0 -0.31,0.17 -0.31,-0.14 -0.11,-0.31 0,-0.46 0.11,-0.15 0.19,-0.09 0.15,-0.23 -0.04,-0.14 -0.2,0 -0.28,-0.08 -0.08,-0.08 0.1,-0.09 0.09,-0.09 -0.16,0 -0.08,-0.19 -0.17,-0.24 l 0.27,-0.52 c 0.07,0 0.06,-0.14 0.16,-0.1 a 0.21,0.21 0 0 1 0.16,0.23 c 0,0.22 0.09,0.34 0.3,0.43 0.21,0.09 0.15,-0.19 0.28,-0.09 v 0 c 0.09,0.21 -0.14,0.41 0,0.64 l 0.24,-0.43 c 0.09,0 0.19,0.05 0.25,0 0.25,-0.05 0.13,0.14 0.16,0.23 0.03,0.09 0,0.16 0,0.23 a 2.54,2.54 0 0 1 0.17,0.46 c 0,0 -0.08,0 -0.07,0.09 0.06,0 0.05,0 0.06,-0.08 0.01,-0.08 0.14,0.15 0.27,0.05 0.13,-0.1 0,0.09 0.1,0.1 0.1,0.01 0.09,0.2 0.17,0.26 0.08,0.06 0.29,0.23 0.15,0.43 0.08,0.1 0.23,0 0.27,0.14 0.04,0.14 0,0 0,0 0,0 0.12,-0.06 0.18,0 a 0.47,0.47 0 0 1 0.14,0.33 v 0 c -0.09,-0.15 -0.14,0.2 -0.23,0 -0.09,-0.2 -0.39,-0.13 -0.56,-0.24 v 0.12 C 6.78,13.39 6.74,13.11 6.53,13.22 6.47,13.02 6.27,13.16 6.19,13.09 a 2.81,2.81 0 0 1 -0.44,-0.33 0.13,0.13 0 0 0 0.09,-0.2 c 0,-0.1 -0.13,0 -0.2,-0.06 L 5.7,12.39 v 0 0 -0.07 A 0.22,0.22 0 0 0 5.86,12.11 C 5.6,12.19 5.5,11.87 5.35,12.09 Z"
             id="path31" />
          <path
             class="cls-9"
             d="m 3.64,4.36 c 0.13,0 0.16,-0.12 0.1,-0.25 -0.06,-0.13 0,-0.19 0.1,-0.17 A 1,1 0 0 0 4.48,3.83 c 0.06,0 0.13,0 0.26,0 L 4.48,4 c 0.25,0 0.41,0.17 0.62,0.18 0,0.12 0,0.22 0,0.34 0,0.12 0,0.17 0.14,0.06 V 4.64 C 4.99,4.78 5.17,4.94 5.18,5.13 5.31,5.02 5.32,4.82 5.5,4.82 c 0,0 0,0 0,0 a 3.12,3.12 0 0 0 -0.07,1.1 c -0.16,0 -0.37,-0.1 -0.57,0 a 0.3,0.3 0 0 1 -0.21,0 c 0,-0.07 0,-0.14 0,-0.2 0,-0.06 0.06,-0.11 0,-0.15 -0.06,-0.04 -0.1,0 -0.14,0 -0.04,0 -0.19,0.16 -0.33,0.15 a 0.2,0.2 0 0 1 -0.09,0 0.21,0.21 0 0 1 0,-0.06 C 4.45,5.46 4.09,5.4 3.99,5.3 4.08,5.24 4.24,5.36 4.23,5.21 4.22,5.06 4.12,5.1 4.02,5.14 3.92,5.18 4,5.1 4,5.05 4,5 3.88,4.84 3.73,4.87 v -0.08 0 c 0,-0.11 0.39,-0.24 0,-0.33 z M 5,5.3 C 5,5.47 5,5.58 5.09,5.63 5.18,5.68 5.09,5.51 5.21,5.51 5.33,5.51 5.09,5.41 5,5.3 Z M 4.66,5.4 A 0.32,0.32 0 0 0 4.89,5.49 C 4.87,5.34 4.8,5.34 4.68,5.4 Z M 5,5.65 v 0 c 0,0 0,0 0,0 z"
             id="path33" />
          <path
             class="cls-10"
             d="m 5.57,12.54 c 0.07,0 0.17,0 0.2,0.06 a 0.13,0.13 0 0 1 -0.09,0.2 c -0.15,0 -0.19,0.1 -0.21,0.22 H 5.31 c -0.15,0 -0.17,0.2 -0.28,0.16 0.06,-0.05 0.17,0.13 0.28,0 h 0.08 a 5.65,5.65 0 0 1 0.94,0.5 c 0,0.16 0.09,0.06 0.15,0.06 v 0 c 0,0.14 -0.13,0.24 -0.08,0.38 -0.23,0.06 -0.45,0 -0.68,0 -0.06,0 -0.13,0 -0.14,-0.09 v -0.1 c 0,-0.4 -0.2,-0.53 -0.58,-0.44 -0.07,0 -0.17,0.12 -0.21,0.06 a 0.68,0.68 0 0 1 0,-0.32 c 0,-0.08 0.16,-0.17 0.07,-0.22 C 4.77,12.96 4.64,12.78 4.45,12.76 4.26,12.74 4.26,12.86 4.25,12.69 A 2,2 0 0 1 4.81,12.5 c 0,0.07 0.06,0 0.08,0 h 0.25 c 0,0.1 -0.25,0.13 -0.07,0.28 0.07,-0.2 0.16,0 0.24,0 0.08,0 0,0.15 0.14,0.15 0.14,0 0.08,-0.12 0.11,-0.13 0.03,-0.01 -0.13,-0.28 0.01,-0.26 z"
             id="path35" />
          <path
             class="cls-10"
             d="m 10.55,13.39 c 0,0 0,-0.05 0,-0.06 0,-0.01 0.15,0.05 0.2,0 0.05,-0.05 0.22,-0.23 0.32,-0.19 0.1,0.04 0.31,0.07 0.32,-0.17 v 0 c 0.14,0 0.18,-0.09 0.23,-0.2 a 0.21,0.21 0 0 1 0.18,-0.12 c 0.17,0 0.38,0 0.37,-0.29 0,-0.07 0,-0.08 0.11,0 0.11,0.08 0.2,0 0.19,0 0,-0.29 0.23,-0.3 0.36,-0.42 0.13,-0.12 0.15,-0.15 0.13,0 -0.02,0.15 0.06,0.28 0,0.43 a 0.37,0.37 0 0 1 -0.32,0.28 0.53,0.53 0 0 0 -0.43,0.3 c -0.1,0.17 -0.22,0.12 -0.34,-0.06 0,0.19 0,0.4 -0.21,0.45 0,0 0,0.06 0,0.09 0,0.18 0,0.17 -0.15,0.16 a 0.2,0.2 0 0 0 -0.15,0.08 c -0.05,0.1 -0.16,0.09 -0.24,0.14 v 0 a 0.27,0.27 0 0 0 -0.46,-0.08 c -0.11,0.13 -0.23,0.07 -0.33,0.13 h -0.17 c 0,0 0,0 0,0 v 0 c 0,-0.06 0.07,-0.06 0.11,-0.08 0.04,-0.02 0.29,-0.24 0.28,-0.39 z"
             id="path37" />
          <path
             class="cls-11"
             d="M 7.69,13.49 A 0.47,0.47 0 0 0 7.55,13.16 c -0.06,-0.07 -0.1,-0.16 -0.18,0 -0.08,0.16 0,0.08 0,0 0,-0.08 -0.19,0 -0.27,-0.14 0.14,-0.2 0,-0.31 -0.15,-0.43 -0.15,-0.12 -0.19,-0.12 -0.17,-0.26 0.02,-0.14 0,-0.16 -0.1,-0.1 -0.1,0.06 -0.17,-0.07 -0.27,-0.05 v 0 A 2.54,2.54 0 0 0 6.24,11.72 c 0,-0.07 -0.12,-0.15 0,-0.23 a 2.14,2.14 0 0 0 0.48,0.28 0.3,0.3 0 0 1 0.23,0.33 c 0,0.21 0.14,0.26 0.3,0.26 0.16,0 0.2,0.06 0.25,0.2 0.05,0.14 0.25,0.47 0.37,0.71 0.12,0.24 0.11,0.12 0.2,0.08 0.09,-0.04 0,0 0.07,0 0.32,0 0.53,-0.09 0.43,-0.48 0,-0.07 0.05,-0.14 0.08,-0.21 0.09,0.14 0.19,0.06 0.28,0 L 8.87,12.92 A 1.37,1.37 0 0 0 8.71,13.44 2.78,2.78 0 0 0 8.07,13.5 c -0.14,0 -0.1,0.11 -0.1,0.2 0,0.09 -0.14,-0.25 -0.28,-0.21 z"
             id="path39" />
          <path
             class="cls-8"
             d="m 12.92,11.8 c -0.13,0.12 -0.39,0.13 -0.36,0.42 0,0.07 -0.1,0.12 -0.19,0 -0.09,-0.12 -0.11,0 -0.11,0 0,0.26 -0.2,0.27 -0.37,0.29 a 0.21,0.21 0 0 0 -0.18,0.12 c -0.05,0.11 -0.09,0.2 -0.23,0.2 v 0 c 0,0.24 -0.12,0.23 -0.32,0.17 -0.2,-0.06 -0.25,0.06 -0.32,0.19 -0.07,0.13 -0.11,0.14 -0.2,0 -0.09,-0.14 0.24,-0.25 0.37,-0.35 0.13,-0.1 0.5,-0.27 0.75,-0.48 -0.27,0.07 -0.14,-0.16 -0.23,-0.23 -0.09,-0.07 0.06,0 0.2,-0.06 0.14,-0.06 0.34,0.13 0.31,-0.18 0,-0.07 0.12,-0.09 0.18,-0.07 0.06,0.02 0.16,-0.05 0.22,-0.12 h 0.07 c 0.1,-0.16 0.26,0.01 0.41,0.1 z"
             id="path41" />
          <path
             class="cls-10"
             d="M 8.64,13.38 A 1.37,1.37 0 0 1 8.8,12.86 c 0.07,0 0.09,0.05 0.2,0.09 -0.09,-0.13 -0.08,-0.22 0,-0.28 v 0 c 0,0.11 0,0.22 0,0.33 0,0.11 0.29,0.35 0.36,0.31 0.26,-0.19 0.5,-0.07 0.75,0 0,0.19 -0.27,0.12 -0.35,0.25 -0.08,0.13 -0.1,-0.06 -0.14,0 -0.04,0.06 0,0.06 0,0.09 l -0.1,0.1 H 9.37 9.32 c 0,0 0.07,-0.17 -0.09,-0.08 A 0.62,0.62 0 0 1 8.78,13.8 0.42,0.42 0 0 0 8.64,13.38 Z m 0.44,0 c 0,0.14 -0.21,0.16 -0.12,0.31 0.09,0.15 0,0 0.08,0 0.08,0 0.13,-0.21 0.04,-0.35 z"
             id="path43" />
          <path
             class="cls-12"
             d="m 10.12,5.06 a 0.19,0.19 0 0 1 0.29,0 0.29,0.29 0 0 1 0.12,0.33 c 0,0.12 -0.07,0.24 -0.1,0.37 -0.03,0.13 -0.21,-0.13 -0.21,0.09 0,0.22 -0.1,0.1 -0.17,0.08 C 9.98,5.91 9.84,5.99 9.85,6.13 A 0.84,0.84 0 0 1 9.6,5.67 1.82,1.82 0 0 0 9.46,5.39 L 9.9,5.19 c 0.08,0.1 0,0.16 -0.06,0.24 0.33,0.03 0.3,-0.17 0.28,-0.37 z"
             id="path45" />
          <path
             class="cls-10"
             d="M 5.53,11.06 C 5.4,10.96 5.4,11.2 5.25,11.15 5.1,11.1 4.93,10.94 4.95,10.72 A 0.21,0.21 0 0 0 4.79,10.49 c -0.1,0 -0.09,0.1 -0.16,0.1 0,-0.37 0.32,-0.66 0.59,-0.63 0,0.18 -0.16,0.41 0.13,0.52 0.13,0 0.15,0.18 0.23,0.27 z"
             id="path47" />
          <path
             class="cls-11"
             d="m 3.73,4.87 c 0.15,0 0.25,0 0.27,0.18 0.02,0.18 0,0.14 0.12,0.1 0.12,-0.04 0.21,-0.07 0.21,0.07 0,0.14 -0.15,0 -0.24,0.09 0.15,0.1 0.46,0.16 0.1,0.36 a 0.21,0.21 0 0 0 0,0.06 0.2,0.2 0 0 0 0.09,0 c 0.14,0 0.22,-0.1 0.33,-0.15 0.11,-0.05 0.08,-0.08 0.14,0 0.06,0.08 0,0.1 0,0.15 0,0.05 0,0.13 0,0.2 L 4.44,6.05 A 0.4,0.4 0 0 0 4.17,5.94 c 0,0.08 0.11,0.14 0,0.21 A 2.3,2.3 0 0 1 3.9,5.26 C 3.9,5.13 3.75,5.03 3.76,4.88 Z"
             id="path49" />
          <path
             class="cls-11"
             d="m 4.89,5.92 c 0.2,-0.11 0.41,0 0.57,0 a 3.12,3.12 0 0 1 0.07,-1.1 c 0.18,-0.11 0.22,0.07 0.19,0.14 -0.03,0.07 0,0.34 0,0.51 v 0.11 c -0.17,0.13 -0.1,0.28 0,0.43 0.1,0.15 -0.08,0.29 0,0.41 A 0.41,0.41 0 0 0 5.5,6.42 0.51,0.51 0 0 1 5.18,6.16 1.14,1.14 0 0 0 4.89,5.92 Z"
             id="path51" />
          <path
             class="cls-13"
             d="m 10.33,10.75 c -0.12,-0.15 -0.18,-0.27 0.08,-0.33 0.11,0 0.2,-0.09 0,-0.22 -0.2,-0.13 0,-0.33 0.06,-0.44 a 0.61,0.61 0 0 0 0.15,-0.55 c 0,-0.06 0,-0.14 0.08,-0.16 a 3.16,3.16 0 0 0 0,0.75 c 0,0.07 0.08,0.25 -0.09,0.33 -0.17,0.08 0,0.15 0,0.23 0,0.08 0.09,0.23 -0.14,0.17 -0.23,-0.06 -0.12,0.09 -0.14,0.22 z"
             id="path53" />
          <path
             class="cls-14"
             d="m 7.84,11.38 c 0.13,0.26 0.41,0.39 0.57,0.63 a 0.44,0.44 0 0 1 0.08,0.15 c 0.11,0.15 -0.12,0.19 -0.11,0.31 -0.15,0 -0.14,-0.18 -0.21,-0.27 -0.07,-0.09 0,-0.09 0,-0.13 0,-0.04 0,-0.11 -0.08,-0.11 C 8.01,11.96 8,12 8,12.06 c 0,0.06 0,0.21 0,0.33 0,0.12 0.13,0 0.06,0.09 -0.07,0.09 -0.11,0 -0.17,0 -0.06,0 -0.15,-0.4 -0.1,-0.43 0.05,-0.03 0.09,-0.2 0,-0.32 C 7.7,11.61 7.66,11.48 7.84,11.38 Z"
             id="path55" />
          <path
             class="cls-13"
             d="m 10.1,7.38 c -0.06,0 -0.11,-0.14 -0.2,0 -0.09,0.14 -0.1,0.06 -0.14,0 -0.04,-0.06 0,-0.13 -0.12,-0.07 -0.12,0.06 0,0.09 0,0.14 0,0.05 0.05,0.16 0.07,0.24 C 9.73,7.77 9.8,7.57 9.89,7.62 v 0 C 9.76,7.62 9.82,7.85 9.65,7.77 A 0.24,0.24 0 0 0 9.39,7.83 c -0.1,0 -0.18,0 -0.27,-0.06 C 9.03,7.71 9.3,7.68 9.38,7.61 9.46,7.54 9.49,7.54 9.47,7.47 9.45,7.4 9.37,7.47 9.32,7.47 H 9.19 C 9.13,7.47 9.08,7.47 9.06,7.41 9.04,7.35 9.06,7.32 9.13,7.29 9.2,7.26 9.36,7.17 9.44,7.06 v 0 c 0.36,0.22 0.4,0.22 0.69,0 v 0 a 0.2,0.2 0 0 0 0,0.15 c 0,0 -0.08,0 -0.07,0.11 z"
             id="path57" />
          <path
             class="cls-8"
             d="M 7.53,2.08 C 7.53,2.01 7.4,2.03 7.44,1.94 c 0.04,-0.09 0.1,0 0.16,0 0.06,0 0.3,-0.07 0.27,0.18 0,0 0.11,0 0.11,0 C 7.9,1.9 8.13,2.01 8.18,1.94 L 8.31,1.8 c 0.12,0 0.29,-0.13 0.39,0.08 0,0 -0.21,-0.06 -0.1,0.07 0.11,0.13 0.07,0.31 0.09,0.46 H 8.63 L 8.53,2.26 c 0,-0.19 0,-0.2 -0.24,-0.19 l 0.14,0.19 c 0,0 0.08,0.07 0,0.09 C 8.35,2.37 8.27,2.2 8.14,2.12 A 0.67,0.67 0 0 1 8,2.55 c -0.07,-0.08 -0.16,0.1 -0.23,0 0.24,-0.17 0,-0.28 0,-0.49 L 7.62,2.27 C 7.56,2.2 7.62,2.11 7.53,2.08 Z"
             id="path59" />
          <path
             class="cls-11"
             d="M 8.05,6 C 7.94,5.82 7.84,5.8 7.69,6 A 0.24,0.24 0 0 1 7.39,6.1 C 7.39,5.83 7.67,5.75 7.76,5.51 7.85,5.27 8.21,5.25 8.49,5.28 8.43,5.45 8.24,5.28 8.18,5.39 8.12,5.5 8.34,5.56 8.25,5.7 8.16,5.84 8.25,5.77 8.17,5.8 A 0.3,0.3 0 0 0 8.05,6 Z"
             id="path61" />
          <path
             class="cls-15"
             d="m 9.17,7.78 c 0.09,0 0.17,0.11 0.27,0.06 L 9.38,8.21 v 0 a 0.3,0.3 0 0 0 -0.27,0.1 v 0 A 0.27,0.27 0 0 0 8.71,8.23 L 8.29,8.47 H 8.2 A 0.73,0.73 0 0 1 8.9,7.93 c 0.16,0 0.15,-0.17 0.27,-0.15 z"
             id="path63" />
          <path
             class="cls-15"
             d="M 8.69,2.45 C 8.69,2.3 8.69,2.14 8.6,1.99 8.51,1.84 8.66,1.99 8.7,1.92 9.06,1.98 9.14,2.37 9.44,2.54 A 0.44,0.44 0 0 1 9.17,2.66 C 9.11,2.66 9.09,2.52 9.01,2.57 8.93,2.62 8.77,2.56 8.69,2.45 Z"
             id="path65" />
          <path
             class="cls-11"
             d="M 8.5,6.1 V 6.02 5.92 C 8.5,5.82 8.64,5.86 8.64,5.76 A 0.82,0.82 0 0 0 8.47,5.65 c -0.06,0 -0.14,0 -0.11,-0.08 0.03,-0.08 0.07,-0.07 0.15,-0.06 0.25,0 0.29,0 0.26,-0.26 A 0.42,0.42 0 0 1 9.14,5.33 1.1,1.1 0 0 1 8.5,6.1 Z"
             id="path67" />
          <path
             class="cls-7"
             d="m 8.22,14.34 c 0,0.13 0,0.22 -0.17,0.13 -0.36,-0.23 -0.77,-0.35 -1.13,-0.59 0,0 -0.08,0 -0.12,0 a 0.18,0.18 0 0 0 -0.17,-0.1 c 0,-0.08 -0.1,0 -0.15,-0.06 v 0 c 0,-0.07 -0.08,-0.06 -0.11,-0.1 v 0 a 11.89,11.89 0 0 1 1.48,0.62 z"
             id="path69" />
          <path
             class="cls-10"
             d="m 4,11.58 c -0.21,0 -0.3,0.11 -0.34,0.27 a 0.14,0.14 0 0 0 0.18,0 c 0,0 0.06,-0.1 0.12,-0.1 a 0.36,0.36 0 0 1 0.23,0 0.21,0.21 0 0 1 0,0.06 c -0.07,0.05 -0.16,0.05 -0.21,0.13 -0.1,-0.16 -0.12,0 -0.17,0.05 -0.05,0.05 -0.15,0.19 -0.22,0.28 -0.07,0.09 -0.22,0 -0.32,0 0.15,-0.25 0.17,-0.58 0.48,-0.71 0.1,-0.08 0.15,-0.04 0.25,0.02 z"
             id="path71" />
          <path
             class="cls-6"
             d="m 8.75,5.25 c 0,0.27 0,0.31 -0.26,0.26 -0.08,0 -0.13,0 -0.15,0.06 -0.02,0.06 0.05,0.07 0.11,0.08 a 0.82,0.82 0 0 1 0.17,0.11 c 0,0.1 -0.15,0.06 -0.14,0.16 L 8.43,6 C 8.31,6.1 8.2,6.28 8.05,6 A 0.3,0.3 0 0 1 8.17,5.78 c 0,0 0.05,-0.07 0.08,-0.1 C 8.28,5.65 8.1,5.46 8.18,5.37 8.26,5.28 8.43,5.43 8.49,5.26 A 0.33,0.33 0 0 1 8.75,5.25 Z M 8.38,5.79 v 0 0 z"
             id="path73" />
          <path
             class="cls-12"
             d="M 5.15,3.45 5,3.4 c -0.05,0 -0.12,0 -0.12,-0.07 0,-0.07 0,-0.05 0.09,-0.07 0.09,-0.02 0.1,-0.17 0,-0.22 C 5.06,2.95 5.2,3.04 5.25,2.93 5.3,2.82 5,2.87 5,2.77 h 0.2 c 0.17,0 0.3,0 0.31,0.18 0,0 0.06,0 0.09,0 v 0.1 c -0.06,0 -0.12,0 -0.12,0.1 L 5.41,3.22 c -0.14,0 -0.21,0.06 -0.24,0.2 z"
             id="path75" />
          <path
             class="cls-8"
             d="m 6.44,7.7 c -0.09,0 0,0.14 -0.13,0.16 C 6.18,7.88 6.2,8 6.11,8 c -0.09,0 0,-0.12 0,-0.19 0,-0.07 0,-0.2 -0.09,-0.26 C 6.08,7.36 5.93,7.34 5.81,7.3 5.69,7.26 5.72,7.18 5.75,7.1 5.78,7.02 6,7.15 6,7 6,6.85 6,6.77 6,6.66 a 0.4,0.4 0 0 1 0.1,0.42 c 0,0.12 0,0.17 0.08,0.21 0.08,0.04 0.18,0.28 0.26,0.41 z"
             id="path77" />
          <path
             class="cls-16"
             d="m 8.37,14.75 c 0.05,0.28 0.22,-0.09 0.3,0.06 0.08,0.15 0,-0.11 0.07,0 0.07,0.11 0.06,0.06 0,0.08 -0.06,0.02 0,0.08 0,0.1 0,0.02 0.06,0 0.08,0 a 0.25,0.25 0 0 0 0,-0.09 c 0.05,-0.14 0.13,-0.19 0.26,-0.08 v 0.08 c -0.14,0.08 -0.2,0.25 -0.37,0.31 a 0.31,0.31 0 0 1 -0.4,-0.08 0.2,0.2 0 0 1 0.06,-0.38 z"
             id="path79" />
          <path
             class="cls-8"
             d="m 9.85,6.09 c 0,-0.14 0,-0.25 0.2,-0.2 0.2,0.05 0.17,0 0.17,-0.08 0,-0.08 0.14,-0.08 0.21,-0.09 v 0.21 c -0.09,0 -0.11,0.08 -0.09,0.15 0.02,0.07 0,0.29 -0.23,0.3 A 0.44,0.44 0 0 1 9.85,6.09 Z"
             id="path81" />
          <path
             class="cls-15"
             d="M 8.5,6.1 A 1.1,1.1 0 0 0 9.12,5.33 c 0,0.06 0.11,0 0.07,0 A 1.82,1.82 0 0 1 8.78,6.01 C 8.67,6.1 8.66,6.29 8.5,6.28 Z"
             id="path83" />
          <path
             class="cls-17"
             d="m 10.27,13.69 h 0.17 c 0,0.07 0.15,0.11 0,0.21 a 0.22,0.22 0 0 0 -0.12,0.27 c 0,0.16 -0.21,0.14 -0.33,0.16 A 0.74,0.74 0 0 1 9.72,14.27 v -0.1 c 0.24,0 0.33,-0.14 0.41,-0.32 z"
             id="path85" />
          <path
             class="cls-11"
             d="M 4.76,12.45 A 2,2 0 0 0 4.2,12.64 H 4.1 V 12.5 a 4.24,4.24 0 0 1 0.79,-0.15 c 0,0 0,0 0,0 0,0 0,0 0,-0.07 0,-0.07 0.29,0 0.37,-0.12 0.08,0 0,0.07 0.06,0.11 l -0.06,0.1 c -0.07,0 -0.14,0.06 -0.22,0 H 4.79 Z"
             id="path87" />
          <path
             class="cls-8"
             d="m 4.27,2.21 c 0.13,0.11 0,0.21 0,0.33 0,0.12 0.33,0 0.52,0 A 0.51,0.51 0 0 1 4.22,2.71 0.66,0.66 0 0 0 4.08,2.45 c 0,-0.1 0,-0.14 0.1,-0.15 v 0 a 0.035,0 90 0 0 0,-0.07 c 0,0 0.05,-0.01 0.09,-0.02 z"
             id="path89" />
          <path
             class="cls-14"
             d="m 6.21,2 a 0.27,0.27 0 0 1 0,0.37 c 0,0.06 -0.18,0 -0.26,0 -0.08,0 -0.12,-0.11 0,-0.18 C 6.07,2.12 5.95,2.07 5.95,2 5.95,1.93 6.12,1.9 6.22,1.93 6.32,1.96 6.15,1.94 6.21,2 Z"
             id="path91" />
          <path
             class="cls-7"
             d="m 7.15,10.34 c 0.07,0 0.14,0 0.22,0 0.08,0 0.11,0.07 0.22,0 -0.19,0.16 -0.12,0.25 0,0.29 0.12,0.04 0.25,0.17 0.22,0.35 C 7.61,10.88 7.39,10.79 7.34,10.55 7.29,10.31 7.18,10.46 7.15,10.34 Z"
             id="path93" />
          <path
             class="cls-14"
             d="m 5.74,5.46 c 0,-0.17 -0.09,-0.33 0,-0.51 0.09,-0.18 0,-0.25 -0.19,-0.14 0,0 0,0 0,0 V 4.71 A 0.36,0.36 0 0 1 5.91,5.2 c -0.07,0.06 0,0.22 -0.17,0.26 z"
             id="path95" />
          <path
             class="cls-8"
             d="m 7.69,13.49 c 0.14,0 0.14,0.1 0.21,0.15 a 1.3,1.3 0 0 0 0.38,0.49 v 0.06 L 8,14.12 C 8,14 7.79,14.05 7.76,13.92 7.73,13.79 7.62,13.68 7.64,13.53 Z"
             id="path97" />
          <path
             class="cls-10"
             d="m 4.36,11.11 c 0.09,0.05 0,0.22 0.17,0.24 0,0 -0.1,0 -0.09,0.09 0.01,0.09 0.24,-0.12 0.28,0.08 0.04,0.2 0,0.18 -0.15,0.23 -0.3,-0.1 -0.37,-0.3 -0.21,-0.64 z"
             id="path99" />
          <path
             class="cls-11"
             d="m 8.53,2.3 0.1,0.15 c 0,0.22 -0.21,0 -0.27,0.14 -0.06,0.14 0,0 0,0 v 0 0 0 c -0.12,0.14 -0.23,0.1 -0.34,0 A 0.67,0.67 0 0 0 8.13,2.2 c 0.13,0.08 0.15,0.25 0.29,0.23 0.14,-0.02 0,-0.06 0,-0.09 z"
             id="path101" />
          <path
             class="cls-13"
             d="m 10.82,7.9 c -0.35,0 -0.5,-0.32 -0.72,-0.52 v 0 c 0.08,0 0.13,0 0.19,0.06 0.06,0.06 0.14,0.23 0.28,0.24 0.14,0.01 0.25,0.06 0.25,0.22 z"
             id="path103" />
          <path
             class="cls-8"
             d="m 7.23,1.74 c 0,0 0,0.11 0,0.14 0.13,0.2 0,0.2 -0.14,0.2 H 6.85 v 0 -0.3 C 7,1.67 7.1,1.73 7.23,1.74 Z"
             id="path105" />
          <path
             class="cls-8"
             d="M 7.43,8.59 A 0.62,0.62 0 0 1 7,8.76 c -0.12,0 -0.16,0 -0.19,-0.13 -0.03,-0.13 0,-0.09 0.09,-0.13 0.09,-0.04 0.12,0 0.16,0.09 0.04,0.09 0.06,0 0.08,0 0.02,0 0.1,0 0.07,-0.11 -0.03,-0.11 0.12,0 0.18,-0.07 0,0.05 0,0.12 0.06,0.14 z"
             id="path107" />
          <path
             class="cls-14"
             d="m 9.13,14.84 v -0.08 c 0,-0.17 0.22,-0.12 0.22,-0.27 v 0 C 9.48,14.56 9.52,14.42 9.6,14.39 9.68,14.36 9.55,14.8 9.47,14.77 9.39,14.74 9.24,14.83 9.13,14.84 Z"
             id="path109" />
          <path
             class="cls-12"
             d="m 5.25,4.53 c -0.1,0.11 -0.16,0 -0.14,-0.06 0.02,-0.06 0,-0.22 0,-0.34 C 5.11,4.01 5.27,4 5.36,4 5.45,4 5.27,4.2 5.36,4.32 A 0.13,0.13 0 0 1 5.25,4.53 Z"
             id="path111" />
          <path
             class="cls-18"
             d="M 6,6.66 C 6,6.77 5.89,6.85 6,7 6.11,7.15 5.85,7 5.8,7.06 5.8,6.91 5.73,6.77 5.7,6.62 L 5.83,6.48 h 0.06 c 0,0 0,0.08 0,0.11 0,0.03 0.06,0 0.09,0 z"
             id="path113" />
          <path
             class="cls-16"
             d="M 8.36,2.59 C 8.42,2.48 8.63,2.67 8.63,2.45 H 8.69 C 8.77,2.56 8.84,2.69 9.01,2.57 9.18,2.45 9.11,2.65 9.17,2.66 9.23,2.67 9.17,2.83 9.09,2.79 8.86,2.64 8.59,2.7 8.36,2.59 Z"
             id="path115" />
          <path
             class="cls-13"
             d="M 8.28,14.13 A 1.3,1.3 0 0 1 7.9,13.64 c 0,-0.09 0,-0.19 0.1,-0.2 a 1,1 0 0 0 0.18,0.42 c 0.04,0.08 0.14,0.14 0.1,0.27 z"
             id="path117" />
          <path
             class="cls-10"
             d="m 10.11,6.38 c 0.2,0 0.29,-0.09 0.23,-0.3 -0.06,-0.21 0,-0.14 0.09,-0.15 0.09,-0.01 0,0.06 0,0.08 0.2,0.3 0,0.43 -0.23,0.59 C 10.11,6.55 10.16,6.44 10.11,6.38 Z"
             id="path119" />
          <path
             class="cls-13"
             d="M 5.35,10.48 C 5.06,10.37 5.21,10.14 5.22,9.96 c 0.06,0 0,-0.16 0.14,-0.1 0.14,0.06 0,0.11 0,0.16 a 0.8,0.8 0 0 0 -0.01,0.46 z"
             id="path121" />
          <path
             class="cls-13"
             d="m 10.75,9 c -0.19,-0.17 0,-0.31 0.05,-0.45 A 4,4 0 0 1 10.88,8 0.28,0.28 0 0 1 10.94,8.32 6.17,6.17 0 0 0 10.75,9 Z"
             id="path123" />
          <path
             class="cls-16"
             d="m 5.31,3.92 a 0.3,0.3 0 0 1 -0.32,0 C 5.24,3.81 5.29,3.65 5.15,3.43 v 0 c 0.1,0 0.15,-0.07 0.22,-0.1 z"
             id="path125" />
          <path
             class="cls-12"
             d="m 5.52,4.67 v 0.1 C 5.34,4.77 5.33,4.97 5.2,5.08 5.2,4.89 5.01,4.73 5.26,4.59 5.32,4.68 5.42,4.67 5.52,4.67 Z"
             id="path127" />
          <path
             class="cls-16"
             d="m 8.2,8.47 h 0.06 v 0.1 0 a 0.09,0.09 0 0 0 0,0.11 C 8.07,8.88 7.99,8.79 7.94,8.58 A 0.85,0.85 0 0 0 7.88,8.41 C 7.93,8.35 8,8.27 8.03,8.41 8.06,8.55 8.03,8.6 8.1,8.62 8.17,8.64 8.14,8.53 8.2,8.47 Z"
             id="path129" />
          <path
             class="cls-16"
             d="m 6.37,9.52 c 0.23,0 0.15,0.2 0.26,0.27 -0.07,0.07 0,0.05 0,0.08 0,0.03 0.09,0.1 0,0.15 a 0.11,0.11 0 0 1 -0.18,0 C 6.52,9.83 6.37,9.7 6.37,9.52 Z"
             id="path131" />
          <path
             class="cls-10"
             d="m 5.84,7.26 c 0.12,0 0.27,0.06 0.21,0.25 -0.13,0 -0.1,0.16 -0.2,0.17 C 5.75,7.69 5.71,7.51 5.74,7.5 5.77,7.49 5.75,7.31 5.84,7.26 Z"
             id="path133" />
          <path
             class="cls-13"
             d="M 4.69,6.35 C 4.49,6.35 4.54,6.63 4.39,6.69 4.32,6.41 4.32,6.41 4.69,6.35 Z"
             id="path135" />
          <path
             class="cls-15"
             d="m 7.53,2.08 c 0.09,0 0,0.12 0.08,0.17 L 7.76,2 c 0,0.21 0.26,0.32 0,0.49 H 7.64 v -0.13 0 0 H 7.53 Z"
             id="path137" />
          <path
             class="cls-16"
             d="m 6.21,2 c -0.06,0 0,-0.08 0,-0.12 A 0.36,0.36 0 0 1 6.68,1.77 v 0.2 C 6.52,1.78 6.36,1.87 6.21,2 Z"
             id="path139" />
          <path
             class="cls-16"
             d="M 4.11,2.5 A 0.66,0.66 0 0 1 4.25,2.76 C 4.1,2.76 3.99,2.91 3.83,2.81 A 0.76,0.76 0 0 1 4.11,2.5 Z"
             id="path141" />
          <path
             class="cls-9"
             d="m 4.1,6.15 c 0.11,-0.07 0,-0.13 0,-0.21 A 0.4,0.4 0 0 1 4.37,6.05 L 4.2,6.47 Z"
             id="path143" />
          <path
             class="cls-14"
             d="m 6.17,8.57 c 0.14,0.2 0,0.39 0,0.59 v 0 C 6.17,9.07 6.26,8.96 6.1,8.91 5.94,8.86 6.1,8.81 6.1,8.78 6.1,8.75 6.15,8.65 6.17,8.57 Z"
             id="path145" />
          <path
             class="cls-14"
             d="M 5.16,2 C 5.05,2.08 4.95,2.24 4.78,2.1 4.78,2.01 4.86,1.99 4.91,1.95 4.96,1.91 5.04,1.83 5.09,1.95 Z"
             id="path147" />
          <path
             class="cls-10"
             d="M 6.16,2.82 A 0.67,0.67 0 0 1 6.53,2.56 c 0,0.07 0.1,0 0.15,0 v 0 A 0.89,0.89 0 0 1 6.16,2.82 Z"
             id="path149" />
          <path
             class="cls-10"
             d="m 5.37,12.28 c 0,0 0,-0.11 -0.06,-0.11 v -0.08 c 0.15,-0.22 0.25,0.1 0.39,0 A 0.22,0.22 0 0 1 5.54,12.3 c 0.01,-0.15 -0.1,0 -0.17,-0.02 z"
             id="path151" />
          <path
             class="cls-6"
             d="m 10.12,5.06 c 0,0.2 0.05,0.4 -0.28,0.33 0,-0.08 0.14,-0.14 0.06,-0.24 z"
             id="path153" />
          <path
             class="cls-16"
             d="m 7.75,8.45 c -0.08,0.1 -0.24,0 -0.32,0.14 v 0 c 0,-0.05 0,-0.11 -0.06,-0.14 0.14,-0.12 0.29,-0.23 0.38,0 z"
             id="path155" />
          <path
             class="cls-14"
             d="M 6,8.26 C 6.11,8.33 6.3,8.35 6.21,8.57 5.94,8.57 5.92,8.44 6,8.26 Z"
             id="path157" />
          <path
             class="cls-13"
             d="m 6,11.22 c -0.06,0.1 -0.16,0 -0.25,0 a 0.34,0.34 0 0 1 0,-0.26 v 0 A 0.21,0.21 0 0 1 6,11.22 Z"
             id="path159" />
          <path
             class="cls-7"
             d="m 4.88,6.72 c 0.09,0 0.15,-0.28 0.29,0 L 5.1,6.89 4.89,7 Z"
             id="path161" />
          <path
             class="cls-8"
             d="m 5.84,11 v 0 a 0.28,0.28 0 0 0 -0.29,0.05 v 0 -0.31 A 0.47,0.47 0 0 1 5.84,11 Z"
             id="path163" />
          <path
             class="cls-10"
             d="m 5.1,12 c 0,-0.12 0,-0.19 0.11,-0.18 0.11,0.01 0.09,0.14 0.1,0.23 C 5.32,12.14 5.15,12.09 5.1,12 Z"
             id="path165" />
          <path
             class="cls-10"
             d="m 8,14.12 0.26,0.07 c 0,0.05 0,0.11 -0.06,0.15 L 7.83,14.17 C 7.9,14.11 8,14.13 8,14.12 Z"
             id="path167" />
          <path
             class="cls-7"
             d="m 3.68,4.45 c 0.41,0.09 0,0.22 0,0.33 -0.05,-0.11 0.02,-0.22 0,-0.33 z"
             id="path169" />
          <path
             class="cls-8"
             d="m 12.29,11.8 c -0.06,-0.08 -0.15,-0.14 -0.16,-0.26 a 0.25,0.25 0 0 1 0.28,0.06 c 0.06,0.08 -0.09,0.12 -0.12,0.2 z"
             id="path171" />
          <path
             class="cls-14"
             d="M 5.72,6 C 5.64,5.85 5.57,5.7 5.72,5.57 a 1.25,1.25 0 0 1 0,0.43 z"
             id="path173" />
          <path
             class="cls-14"
             d="M 7,2.51 A 0.25,0.25 0 0 1 7.31,2.66 C 7.2,2.66 7.07,2.73 7.01,2.56 Z"
             id="path175" />
          <path
             class="cls-14"
             d="m 7.62,2.4 v 0.13 0 L 7.56,2.61 v 0 L 7.4,2.44 7.56,2.38 h 0.09 z"
             id="path177" />
          <path
             class="cls-16"
             d="m 7,2.51 v 0.05 c 0,0.08 -0.09,0.12 -0.17,0 V 2.36 C 7,2.27 6.85,2.56 7,2.51 Z"
             id="path179" />
          <path
             class="cls-14"
             d="m 7.9,11.11 c 0.08,0 0.15,0.1 0.14,0.18 -0.01,0.08 -0.12,0 -0.17,0.06 -0.05,0.06 -0.04,-0.17 0.03,-0.24 z"
             id="path181" />
          <path
             class="cls-8"
             d="M 5.81,6.48 5.68,6.62 c 0,0 -0.14,-0.07 -0.13,-0.18 a 0.41,0.41 0 0 1 0.22,0 0.07,0.07 0 0 1 0.04,0.04 z"
             id="path183" />
          <path
             class="cls-16"
             d="m 6.21,9.32 c 0.16,0 0.14,0.11 0.16,0.2 C 6.39,9.61 6.16,9.47 6.21,9.32 Z"
             id="path185" />
          <path
             class="cls-14"
             d="M 4.88,6.72 V 7 C 4.88,7 4.8,7 4.8,7 4.8,7 4.74,6.76 4.88,6.72 Z"
             id="path187" />
          <path
             class="cls-10"
             d="m 11.34,13.75 h 0.07 c 0.05,0 0.12,0 0.11,0.1 -0.01,0.1 0,0.05 -0.07,0.06 -0.07,0.01 -0.07,-0.06 -0.1,-0.1 a 0.17,0.17 0 0 1 0,-0.07 z"
             id="path189" />
          <path
             class="cls-7"
             d="M 5.37,3.35 C 5.3,3.35 5.25,3.46 5.15,3.45 5.05,3.44 5.25,3.24 5.39,3.25 Z"
             id="path191" />
          <path
             class="cls-13"
             d="m 4.1,12.47 v 0.14 C 4,12.68 4,12.55 4,12.53 4,12.51 4.05,12.45 4.1,12.47 Z"
             id="path193" />
          <path
             class="cls-17"
             d="m 10.31,7.42 c -0.06,0 -0.11,-0.08 -0.19,-0.06 -0.08,0.02 0,-0.08 0.07,-0.11 0.07,-0.03 0.23,-0.01 0.12,0.17 z"
             id="path195" />
          <path
             class="cls-14"
             d="m 6.8,2.41 v 0.2 H 6.68 A 0.16,0.16 0 0 1 6.74,2.4 Z"
             id="path197" />
          <path
             class="cls-8"
             d="M 6.6,7.8 6.48,7.88 a 0.17,0.17 0 0 1 0,-0.17 C 6.6,7.6 6.6,7.7 6.6,7.8 Z"
             id="path199" />
          <path
             class="cls-10"
             d="m 11.23,13.65 c 0,0.23 -0.13,0 -0.18,0.07 -0.05,0.07 0.12,-0.06 0.18,-0.07 z"
             id="path201" />
          <path
             class="cls-14"
             d="M 5.1,6.84 5.17,6.67 c 0,0 0.08,0 0.07,0.09 C 5.23,6.85 5.17,6.83 5.1,6.84 Z"
             id="path203" />
          <path
             class="cls-19"
             d="m 6.63,13.76 a 0.18,0.18 0 0 1 0.17,0.1 c -0.13,0.07 -0.18,0.03 -0.17,-0.1 z"
             id="path205" />
          <path
             class="cls-17"
             d="m 10.21,7.1 v 0 c 0,-0.06 0,-0.12 0.08,-0.19 C 10.21,7 10.34,7 10.21,7.1 Z"
             id="path207" />
          <path
             class="cls-11"
             d="m 11.07,11.22 c -0.09,0.07 -0.17,0.09 -0.21,-0.05 z"
             id="path209" />
          <path
             class="cls-8"
             d="M 6.64,8 C 6.64,8.09 6.58,8.06 6.54,8 6.5,7.94 6.47,8 6.5,8 6.53,8 6.57,8 6.61,8 6.65,8 6.67,8 6.64,8 Z"
             id="path211" />
          <path
             class="cls-18"
             d="m 3.58,3.77 c 0,0 0.22,0.06 0,0.16 -0.22,0.1 0.01,-0.11 0,-0.16 z"
             id="path213" />
          <path
             class="cls-18"
             d="m 3.88,3.15 c 0,0.05 -0.09,0 -0.14,0 0,-0.15 0.09,-0.01 0.14,0 z"
             id="path215" />
          <path
             class="cls-17"
             d="M 9.32,13.8 H 9.39 L 9.28,13.91 H 9.22 c 0,-0.08 0.05,-0.09 0.1,-0.11 z"
             id="path217" />
          <path
             class="cls-16"
             d="M 5.46,3.18 C 5.46,3.09 5.52,3.09 5.58,3.08 5.64,3.07 5.54,3.19 5.46,3.18 Z"
             id="path219" />
          <path
             class="cls-8"
             d="m 6,6.59 c 0,0 -0.07,0 -0.09,0 -0.02,0 0,-0.07 0,-0.11 A 0.11,0.11 0 0 1 6,6.59 Z"
             id="path221" />
          <path
             class="cls-14"
             d="m 7.2,8.46 c 0,0.07 0,0.11 -0.07,0.11 V 8.46 Z"
             id="path223" />
          <path
             class="cls-8"
             d="M 7.27,2.66 H 7.4 c 0,0.05 0,0.08 -0.09,0.07 C 7.22,2.72 7.26,2.7 7.27,2.66 Z"
             id="path225" />
          <path
             class="cls-16"
             d="m 4.63,2.19 c 0,0 0,0.06 -0.08,0 -0.08,-0.06 0,-0.07 0,-0.11 z"
             id="path227" />
          <path
             class="cls-13"
             d="m 4.94,12.29 c 0,0 0,0.06 0,0.07 0,0.01 0,0 0,0 z"
             id="path229" />
          <path
             class="cls-14"
             d="m 5.78,1.92 v 0.06 c 0,0 0,0 0,0 z"
             id="path231" />
          <path
             class="cls-16"
             d="m 4.22,2.29 a 0.035,0 -90 0 0 0,0.07 v 0 z"
             id="path233" />
          <path
             class="cls-7"
             d="m 7.11,10.32 v -0.06 c 0,0 0,0.05 0,0.08 v 0 z"
             id="path235" />
          <path
             class="cls-10"
             d="m 10.9,13.77 v 0 0 z"
             id="path237" />
          <path
             class="cls-11"
             d="M 8.09,1.75 H 8 V 1.68 Z"
             id="path239" />
          <path
             class="cls-7"
             d="m 3.73,4.87 v 0 c 0,0 0,-0.06 0,-0.09 z"
             id="path241" />
          <path
             class="cls-18"
             d="m 3.9,3 c 0,0 0.08,0 0,0 z"
             id="path243" />
          <path
             class="cls-16"
             d="m 8.35,2.56 v 0 0 z"
             id="path245" />
          <path
             class="cls-11"
             d="m 11.23,11.26 v 0 0 c 0,0 -0.01,-0.02 0,0 z"
             id="path247" />
          <path
             class="cls-11"
             d="m 7.8,1.7 c 0,0.05 0,0 0,0 z"
             id="path249" />
          <path
             class="cls-11"
             d="m 8,1.76 c 0,0 0,0 -0.06,0 z"
             id="path251" />
          <path
             class="cls-8"
             d="M 7.58,2.61 7.64,2.53 C 7.65,2.58 7.62,2.6 7.58,2.61 Z"
             id="path253" />
          <path
             class="cls-10"
             d="m 11.34,13.76 v 0 z"
             id="path255" />
          <path
             class="cls-14"
             d="M 6.1,9.16 Z"
             id="path257" />
          <path
             class="cls-15"
             d="M 8.43,6 H 8.48 V 6 Z"
             id="path259" />
          <path
             class="cls-14"
             d="m 9.34,9.32 c -0.05,0 0,0.14 -0.12,0.17 H 9.17 c 0,-0.05 0,-0.07 -0.06,0 v 0 C 9.02,9.49 9.01,9.28 8.86,9.32 v -0.05 0 C 9,9.05 9.15,9.14 9.29,9.27 a 0.1,0.1 0 0 0 0.05,0.05 z"
             id="path261" />
          <path
             class="cls-7"
             d="m 8.86,9.3 c 0.15,0 0.16,0.13 0.25,0.17 0.09,0.04 -0.14,0 -0.19,0 C 8.87,9.47 8.88,9.36 8.86,9.3 Z"
             id="path263" />
          <path
             class="cls-11"
             d="m 8.64,12 c -0.06,0 -0.18,-0.05 -0.05,-0.15 0.13,-0.1 0.12,0 0.14,0.08 C 8.75,12.01 8.68,12 8.64,12 Z"
             id="path265" />
          <path
             class="cls-7"
             d="m 8.82,9.24 v 0 c 0,0.05 0,0.11 -0.06,0.15 C 8.7,9.43 8.78,9.29 8.82,9.24 Z"
             id="path267" />
          <path
             class="cls-11"
             d="m 10.54,11.8 v 0.1 c 0,0 -0.08,0 -0.08,0 0,0 0.05,-0.09 0.08,-0.1 z"
             id="path269" />
          <path
             class="cls-15"
             d="m 9.53,8.12 v 0 H 9.5 Z"
             id="path271" />
          <path
             class="cls-7"
             d="m 10.65,12 c 0,0 0,0.06 0,0.06 0,0 0,0 0,-0.06 h 0.05 z"
             id="path273" />
          <path
             class="cls-11"
             d="M 10.65,12 H 10.6 V 11.95 A 0.1,0.1 0 0 1 10.65,12 Z"
             id="path275" />
          <path
             class="cls-7"
             d="m 10.23,9.05 v -0.07 0 0.05 z"
             id="path277" />
          <path
             class="cls-7"
             d="m 9.91,8.89 v -0.07 0 0.05 z"
             id="path279" />
          <path
             class="cls-15"
             d="M 9.38,8.21 Z"
             id="path281" />
          <path
             class="cls-7"
             d="m 9.11,9.47 c 0,-0.06 0,0 0.06,0 z"
             id="path283" />
          <path
             class="cls-7"
             d="m 9.65,12.38 v 0 0 z"
             id="path285" />
          <path
             class="cls-7"
             d="m 9.65,12.38 v 0 0 c 0,0 0,0 0,0 z"
             id="path287" />
          <path
             class="cls-8"
             d="M 10.1,13.35 C 9.85,13.25 9.61,13.13 9.35,13.35 9.28,13.36 9,13.1 9,13 c 0,-0.1 0,-0.22 0,-0.33 0,-0.11 0.13,0.17 0.27,0.19 0.14,0.02 0.23,0 0.25,-0.18 0.08,0.12 0.2,0.14 0.25,0.26 0.05,0.12 0.1,0.23 0.24,0.08 0.14,-0.15 0.14,-0.07 0.1,0 -0.04,0.07 0.22,0.1 0,0.2 -0.22,0.1 0.02,0.09 -0.01,0.13 z"
             id="path289" />
          <path
             class="cls-8"
             d="M 10.17,13.86 C 10.09,14.04 10,14.21 9.76,14.18 9.67,14.02 9.82,13.98 9.91,13.93 a 0.71,0.71 0 0 1 0.26,-0.07 z"
             id="path291" />
          <path
             class="cls-6"
             d="m 9.28,13.92 0.11,-0.11 h 0.15 c 0.1,0.16 0,0.22 -0.14,0.26 C 9.26,14.11 9.28,14 9.28,13.92 Z"
             id="path293" />
          <path
             class="cls-8"
             d="m 9,12.67 c -0.11,0.06 -0.12,0.15 0,0.28 -0.11,0 -0.13,-0.11 -0.2,-0.09 L 8.86,12.6 C 9,12.52 9,12.59 9,12.67 Z"
             id="path295" />
          <path
             class="cls-20"
             d="m 10.55,13.39 c 0,0.15 -0.09,0.19 -0.21,0.21 a 0.39,0.39 0 0 1 0.21,-0.21 z"
             id="path297" />
          <path
             class="cls-17"
             d="m 9.64,13.69 c 0,0 0,-0.08 0,-0.09 0,-0.01 0.09,0 0.14,0 0.05,0 -0.01,0.16 -0.14,0.09 z"
             id="path299" />
          <path
             class="cls-6"
             d="m 10.3,12.52 h -0.05 v 0 0 z"
             id="path301" />
          <path
             class="cls-6"
             d="m 9.8,12.65 v -0.16 0 c 0.06,0 0.06,0.1 0,0.16 z"
             id="path303" />
          <path
             class="cls-6"
             d="m 8.85,12.17 v 0 h 0.07 z"
             id="path305" />
          <path
             class="cls-6"
             d="m 10.26,12.4 v 0 0 z"
             id="path307" />
          <path
             class="cls-17"
             d="M 10.23,13.68 Z"
             id="path309" />
          <path
             class="cls-6"
             d="m 9.81,12.65 v 0 z"
             id="path311" />
          <path
             class="cls-14"
             d="M 9.34,14.49 Z"
             id="path313" />
          <path
             class="cls-6"
             d="M 4.17,3.71 A 0.24,0.24 0 0 0 4.42,3.48 C 4.42,3.32 4.49,3.32 4.6,3.4 l 0.32,0.21 c 0.08,0.06 0.1,0.14 0,0.14 A 2.18,2.18 0 0 1 4.17,3.71 Z"
             id="path315" />
          <path
             class="cls-16"
             d="M 7.53,2.39 7.37,2.45 C 7.25,2.25 7.28,2.11 7.53,2.08 Z"
             id="path317" />
          <path
             class="cls-16"
             d="M 6.74,2.39 A 0.16,0.16 0 0 0 6.68,2.6 c 0,0 -0.11,0 -0.15,0 C 6.61,2.32 6.62,2.31 6.74,2.39 Z"
             id="path319" />
          <path
             class="cls-8"
             d="m 6.87,2.1 c 0,0 0,0.07 -0.06,0 -0.06,-0.07 0,-0.06 0,-0.08 z"
             id="path321" />
          <path
             class="cls-6"
             d="M 8.28,8.57 V 8.47 L 8.7,8.23 A 0.27,0.27 0 0 1 9.1,8.31 2.43,2.43 0 0 1 8.8,8.57 C 8.67,8.66 8.56,8.74 8.58,8.94 L 8.25,8.73 a 0.09,0.09 0 0 1 0,-0.11 h 0.08 z"
             id="path323" />
          <path
             class="cls-6"
             d="m 6.59,9 c 0.14,0.14 0.27,0.24 0.38,0 0,-0.06 0.1,-0.07 0.11,0 0.01,0.07 0.06,0.2 0,0.26 C 7.02,9.32 6.88,9.38 7,9.55 7.12,9.72 6.91,9.74 6.76,9.81 6.81,9.48 6.55,9.27 6.59,9 Z m 0.24,0.25 v 0 0 z"
             id="path325" />
          <path
             class="cls-8"
             d="M 9.34,9.32 A 0.1,0.1 0 0 1 9.28,9.2 c 0.05,0 0.1,0 0.09,-0.08 -0.01,-0.08 0,-0.2 0.11,-0.16 0.11,0.04 0.26,0 0.19,0.18 0,0 0,0.11 0.06,0.17 0.06,0.06 0,-0.13 0.15,-0.21 -0.1,0.15 0.13,0.23 0,0.36 C 9.75,9.59 9.77,9.55 9.76,9.52 9.75,9.49 9.47,9.38 9.34,9.32 Z"
             id="path327" />
          <path
             class="cls-15"
             d="m 6.1,8.12 c 0,0 0,0 0,0 v 0 z"
             id="path329" />
          <path
             class="cls-19"
             d="m 8,14.12 c -0.06,0 -0.12,0 -0.17,0.05 A 11.89,11.89 0 0 0 6.35,13.55 c 0,-0.1 -0.09,-0.13 -0.18,-0.17 A 3.46,3.46 0 0 1 5.47,13 c 0,-0.12 0.06,-0.21 0.21,-0.22 a 2.81,2.81 0 0 0 0.44,0.33 c 0.08,0.07 0.28,-0.07 0.34,0.13 0.21,-0.11 0.25,0.12 0.38,0.17 A 3.52,3.52 0 0 0 7.78,13.9 C 7.81,14.05 8,14 8,14.12 Z"
             id="path331" />
          <path
             class="cls-10"
             d="M 7.78,13.92 A 3.52,3.52 0 0 1 6.84,13.43 v -0.12 c 0.17,0.11 0.44,0 0.56,0.24 0.12,0.24 0.14,-0.17 0.23,0 0.09,0.17 0.12,0.24 0.15,0.37 z"
             id="path333" />
          <path
             class="cls-21"
             d="m 5.37,12.28 c 0.07,0 0.18,-0.13 0.21,0.05 v 0.07 l -0.06,0.11 c -0.14,0 0,0.1 -0.06,0.13 -0.06,0.03 0,0.13 -0.11,0.13 -0.11,0 -0.13,-0.06 -0.14,-0.15 -0.01,-0.09 0.1,-0.17 0,-0.27 z"
             id="path335" />
          <path
             class="cls-20"
             d="M 5.52,11.06 A 0.28,0.28 0 0 1 5.81,11 a 0.34,0.34 0 0 0 0,0.26 L 5.57,11.69 C 5.38,11.47 5.61,11.27 5.52,11.06 Z"
             id="path337" />
          <path
             class="cls-11"
             d="m 6.37,12.18 c 0,0 0,0.09 -0.06,0.08 0,-0.05 0,-0.06 0.07,-0.09 z"
             id="path339" />
          <path
             class="cls-17"
             d="M 5.63,12.43 Z"
             id="path341" />
          <path
             class="cls-7"
             d="M 5,5.3 C 5.07,5.41 5.19,5.4 5.21,5.51 5.23,5.62 5.21,5.69 5.09,5.63 4.97,5.57 5,5.47 5,5.3 Z"
             id="path343" />
          <path
             class="cls-7"
             d="M 4.68,5.4 C 4.8,5.34 4.87,5.34 4.91,5.49 A 0.32,0.32 0 0 1 4.68,5.4 Z"
             id="path345" />
          <path
             class="cls-7"
             d="m 5,5.65 v 0 c 0,0 0,0 0,0 z"
             id="path347" />
          <path
             class="cls-15"
             d="m 5.47,13 a 3.46,3.46 0 0 0 0.72,0.36 c 0.09,0 0.16,0.07 0.18,0.17 v 0 0 a 5.65,5.65 0 0 0 -0.94,-0.5 v 0 H 5.31 V 13 Z"
             id="path349" />
          <path
             class="cls-8"
             d="m 5.31,12.38 c 0.05,0.1 0,0.18 0,0.27 0,0.09 -0.17,-0.18 -0.24,0 -0.18,-0.15 0.06,-0.18 0.07,-0.28 0.01,-0.1 0.1,0.01 0.17,0.01 z"
             id="path351" />
          <path
             class="cls-8"
             d="m 5.31,13 v 0.16 C 5.2,13.29 5.09,13.11 5.03,13.16 5.14,13.19 5.16,13 5.31,13 Z"
             id="path353" />
          <path
             class="cls-21"
             d="m 6.33,13.64 v 0 c 0,0 0.11,0 0.11,0.1 0,0.1 -0.12,0.06 -0.11,-0.1 z"
             id="path355" />
          <path
             class="cls-13"
             d="m 4.76,12.45 h 0.08 c 0,0 -0.04,0.07 -0.08,0 z"
             id="path357" />
          <path
             class="cls-8"
             d="M 5.38,13.14 Z"
             id="path359" />
          <path
             class="cls-8"
             d="m 9.08,13.34 c 0.09,0.14 0.07,0.23 0,0.31 -0.07,0.08 0,0 -0.08,0 -0.08,0 0.06,-0.17 0.08,-0.31 z"
             id="path361" />
          <path
             class="cls-16"
             d="M 8.53,2.3 H 8.43 L 8.29,2.11 c 0.25,-0.01 0.26,0 0.24,0.19 z"
             id="path363" />
          <path
             class="cls-11"
             d="m 8.38,5.79 v 0 0 z"
             id="path365" />
          <path
             class="cls-14"
             d="m 7.37,8.42 c 0.06,0 0,0.09 0.06,0.14 C 7.49,8.61 7.38,8.47 7.37,8.42 Z"
             id="path367" />
          <path
             class="cls-15"
             d="M 8.28,8.57 H 8.34 8.26 Z"
             id="path369" />
          <path
             class="cls-8"
             d="m 7.62,2.4 v 0 z"
             id="path371" />
          <path
             class="cls-7"
             d="m 6.83,9.21 v 0 0 z"
             id="path373" />
        </g>
      </g>
    </g>
  </g>
</svg>
