<svg xmlns="http://www.w3.org/2000/svg" viewBox="0 0 16.87 16"><defs><style>.cls-1{fill:#fff;}.cls-2{fill:#e1e1e1;}.cls-3{fill:#e3e3e3;}.cls-4{fill:#d8d8d8;}.cls-5{fill:#e9e9e9;}.cls-6{fill:#020202;}.cls-7{fill:#202020;}.cls-8{fill:#0f0f0f;}.cls-9{fill:#cecece;}.cls-10{fill:#242424;}.cls-11{fill:gray;}.cls-12{fill:#181818;}.cls-13{fill:#383838;}.cls-14{fill:#adadad;}.cls-15{fill:#2e2e2e;}.cls-16{fill:#9f9f9f;}.cls-17{fill:#c3c3c3;}.cls-18{fill:#232323;}.cls-19{fill:#f2f2f2;}.cls-20{fill:#cbcbcb;}.cls-21{fill:#fdfdfd;}.cls-22{fill:#ff1d25;}</style></defs><g id="Layer_2" data-name="Layer 2"><g id="Layer_1-2" data-name="Layer 1"><g id="StatusBar_icon_red"><path class="cls-1" d="M13.87,0h-10a3,3,0,0,0-3,3V9.27A4.38,4.38,0,0,1,2.5,9,4.49,4.49,0,0,1,7,13.46,4.45,4.45,0,0,1,6.21,16h7.66a3,3,0,0,0,3-3V3A3,3,0,0,0,13.87,0Z"/><path class="cls-2" d="M6.11,10.14a.41.41,0,0,1,.25.2c0,.09.11.16.23.11s.06-.14,0-.23c0-.28,0-.53-.42-.56C6,9.65,6,9.4,6,9.23a4.41,4.41,0,0,0,0-.81,2,2,0,0,0-.54-1,1,1,0,0,1-.29-1c0-.08.06-.15.16-.11a.12.12,0,0,1,.06.19c-.05.07-.14.13,0,.22s.18,0,.28,0,.3,0,.45,0a.27.27,0,0,0,.13-.28c.21,0,.19.2.32.27a.64.64,0,0,0,.12.42h0l0,.1c0,.09.22.1.08.19s-.07.25-.06.38,0,.23,0,.34.13.21.08.31,0,.2.15.22-.17.13-.14.25c-.18.25.1.83.44.92V10s-.13,0,0,.06.17,0,.26.06l.11,0c.07.09.17.1.27.14l.25.09a3,3,0,0,0,.74.77c.1.26-.18.15-.24.26a1.39,1.39,0,0,0-.3,0c-.21,0-.43.18-.64,0s-.07-.25-.21-.19,0,.2,0,.3l-.1.05H7.11l0-.12c.16,0,.18-.11.08-.23a.32.32,0,0,0-.36-.15l-.16-.08a.17.17,0,0,0-.2-.12c0-.21-.23-.13-.27-.27s0-.1,0-.13Z"/><path class="cls-3" d="M11.32,6.67c-.11,0-.23,0-.12.18s.34.38.37.66a.53.53,0,0,1,0,.28H11.4l-.13-.06-.1,0A.5.5,0,0,0,11,7.4l0-.29a.78.78,0,0,1-.42.16.24.24,0,0,0-.37,0c-.08.1.08.17.16.23a.1.1,0,0,1-.05.12s-.06,0,0,.07,0,.16-.07.2c0-.19-.12-.17-.25-.1S9.77,8,9.64,8l-.31.13c-.16,0-.21.08-.28.17-.22-.06-.43-.07-.56.16H8.42c0-.2-.13-.09-.21-.06L8,8.44c-.09-.11-.11-.34-.34-.2l-.28-.32c0-.29-.27-.4-.37-.62A1.51,1.51,0,0,1,6.91,7c.07-.14.09-.26-.08-.34,0,0,0-.08,0-.09a.6.6,0,0,1-.27-.49l0-.12a1.92,1.92,0,0,1,.11-.71c.07-.16-.18-.54-.36-.56,0,0,0,.07,0,.11l-.07,0L6,4.6l.09-.06a.26.26,0,0,0,.11-.27,1.76,1.76,0,0,1,0-.91l0-.14a.74.74,0,0,0,.31-.32.79.79,0,0,0,.6-.1.8.8,0,0,1,.64-.09A1.37,1.37,0,0,0,9,2.76l0,0c.18.19.32.22.38-.08,0,0,0,0,0,0a1.06,1.06,0,0,0,.45.16h.2c.12,0,.19-.09.3-.09,0,.5.33.87.46,1.31s.44.69.44,1.13c-.12,0-.21-.15-.35-.11s-.5-.22-.37-.62a1.06,1.06,0,0,0-.33.27c-.12.12-.31.16-.36,0A1.9,1.9,0,0,1,9.68,4c0-.15-.06-.15-.15-.09C9.28,4,9,3.81,8.74,4c0,0-.05,0-.06-.06a.42.42,0,0,0-.52-.14.66.66,0,0,1-.47,0c-.26-.16-.35,0-.49.15.07.1.25,0,.23.2s-.17,0-.26.07-.19,0-.28.09-.15.17,0,.21a.47.47,0,0,1,.29.26c.07.11.21.22.34,0s.08-.1.13-.08a1.92,1.92,0,0,0,.86,0c.21,0,.27.1.26.28s-.1.25-.27.24a1,1,0,0,1-.39-.13c-.12-.06-.28-.2-.41,0s-.24.24-.4,0a.13.13,0,0,0-.2,0,.28.28,0,0,0-.08.2.13.13,0,0,0,.15.13c.16,0,.19.13.28.2s.4.3.56.08.29-.15.45-.16l.05.19H8.43c-.11.06-.23.16-.16.27s.15-.06.23-.08l.27-.08c0,.05,0,.11.07.14.08.33.25.1.39.06s-.06.22.09.27.14,0,.13,0,.21-.2.22-.35l.23-.42,0-.1c0-.12,0-.15-.13-.11l0,0c0-.24.2-.2.34-.23s.26.05.31.2-.15.08-.1.22a1.19,1.19,0,0,0,.23.57c.08.34.31.36.59.29S11.29,6.55,11.32,6.67Z"/><path class="cls-4" d="M7.75,12.16c-.11,0-.17-.08-.25-.14a.49.49,0,0,0-.15-.42c0-.1-.09-.24,0-.3s.13.14.21.19.43,0,.64,0a1.39,1.39,0,0,1,.3,0h0c-.1.1.05.24,0,.29-.23.26-.06.51,0,.76,0,.07,0,.14.11.1s.35,0,.52.09-.07.18,0,.27.09.31-.17.28-.31.17-.5.11h0c0-.08,0-.16-.08-.2a.13.13,0,0,0,0-.06V13c0-.15,0-.32-.2-.33-.07-.16-.06-.4-.33-.39C7.89,12.19,7.84,12.15,7.75,12.16Z"/><path class="cls-5" d="M10.94,5.06l-.1.11-.38.09c-.05-.15-.15-.25-.31-.2s-.35,0-.34.23l-.6,0c0-.14-.1-.35-.21-.35s-.14.22-.17.36-.27.16-.39.26-.31,0-.45.16-.39.06-.56-.08-.12-.21-.28-.2A.13.13,0,0,1,7,5.29a.28.28,0,0,1,.08-.2.13.13,0,0,1,.2,0c.16.21.28.14.4,0s.29-.07.41,0a1,1,0,0,0,.39.13c.17,0,.27,0,.27-.24s-.05-.3-.26-.28a1.92,1.92,0,0,1-.86,0s-.09,0-.13.08-.27.07-.34,0a.47.47,0,0,0-.29-.26c-.13,0-.07-.16,0-.21s.19,0,.28-.09.23.14.26-.07-.16-.1-.23-.2c.14-.14.23-.31.49-.15a.66.66,0,0,0,.47,0,.42.42,0,0,1,.52.14s.06.06.06.06c.24-.19.54,0,.79-.14.09-.06.17-.06.15.09a1.9,1.9,0,0,0,.2.74c0,.18.24.14.36,0a1.06,1.06,0,0,1,.33-.27C10.44,4.84,10.66,5,10.94,5.06Z"/><path class="cls-6" d="M11.61,9v.1c-.09,0-.08.1-.08.16a.56.56,0,0,1-.15.55c-.1.11-.21.3,0,.44s.07.19-.05.22-.19.18-.08.33.27.18.34.34-.4.42-.12.71c0,0-.09,0-.08.07s.05,0,.08,0h0l.05.05a.35.35,0,0,0,0,.06s0,0,0-.06.29.07.36,0c-.11,0,0,.42-.34.23,0,0-.09,0-.11.06s-.15.11-.25.05-.21-.05-.19.09-.08.09-.15.11-.1-.13-.17,0h0c-.3.06-.35,0-.28-.38-.11.17-.19.11-.3.08s-.24-.11-.37,0h0c0-.14-.2-.09-.22-.21s.1,0,.09-.07-.07-.08-.14-.08-.12,0-.19,0-.14-.19-.25-.25a.09.09,0,0,1,0-.14c.06,0,.16-.12.07-.17s-.16-.29-.36-.19l0,0c0-.18,0-.31-.21-.35s-.25-.13-.06-.29c-.1,0-.15-.08-.22,0s-.15,0-.22,0l0,0,0,0s0-.06,0-.08l0,.06a.14.14,0,0,1-.15-.05c0-.24,0-.5.38-.58-.2,0-.2,0-.12-.17a.07.07,0,0,0,0-.09C8,9.29,8,9.29,8.15,9.3s.14,0,.15,0,0-.3.19-.39c-.13-.09,0-.14,0-.2s.16,0,.19.15a.42.42,0,0,0,.22.31c.14.09.2-.14.26,0s.34.08.51.08c0,0,0,0,0,0s-.11.07-.07.16.05-.1.07-.15l0,.05a.67.67,0,0,0,.06.17c.06,0,.14.17.2,0h.11s0,.14.06.1.29,0,.42,0a.44.44,0,0,0,.52-.55l0-.05,0,0,0,.07a.31.31,0,0,1-.31-.16l0-.05,0,0,0,.07c-.09,0-.13-.15-.23-.06s-.14.09-.16,0-.09-.17,0-.24a.49.49,0,0,1,.4-.11s.1,0,.13,0,0-.09-.09-.12a.31.31,0,0,0-.23,0,1.78,1.78,0,0,1-.65,0,.33.33,0,0,1,.28-.1h0l.06-.37a.22.22,0,0,1,.25-.06c.17.08.12-.17.24-.15l0,0c-.08,0-.1.09-.17.07s0-.16-.08-.24-.07-.11,0-.14.1,0,.13.07.11,0,.13,0,.14,0,.21,0c.21.2.37.49.71.52l.06.12a4,4,0,0,0-.08.48C11.64,8.64,11.43,8.78,11.61,9Zm-1.1,3.43a0,0,0,0,0,0,0h0l0,0v0h0Zm-.12-4.26,0,0h.05Z"/><path class="cls-7" d="M9.72,12.17c.13-.09.26,0,.37,0s.19.09.3-.08c-.07.39,0,.44.28.38v.16l0,0,0,0c.07-.06.07-.11,0-.16s.1,0,.17,0,.18.06.15-.11.08-.16.19-.09.2.13.25-.05.06-.08.11-.06c.32.19.23-.23.34-.23-.07.07-.22,0-.36,0h0a.09.09,0,0,0-.09-.05h0v-.1c-.28-.29.05-.48.12-.71l.2.08c0,.14.12.12.21.05l.11,0,0,0,0,0a4.6,4.6,0,0,1,.89.28c0,.12.1.18.17.26s.08,0,.11,0S13.19,12,13,12s-.18,0-.17.07c0,.31-.19.17-.32.18s-.21,0-.19.06,0,.3.23.23c-.26.21-.53.31-.76.48s-.35.13-.37.35c0,0-.05,0-.05.06a.37.37,0,0,0-.2.21s-.1,0-.11.08h0s0,0,0,0l-.1.17a.83.83,0,0,0-.27.07c-.09.05-.24.09-.15.25v.1a.18.18,0,0,0-.16.11c-.09,0-.13.17-.25.1h0c0,.15-.24.1-.22.27-.13-.11-.2-.06-.25.08a.25.25,0,0,1,0,.09s0,.14-.08,0-.19,0,0-.1,0-.06,0-.08-.06.06-.07,0-.25.22-.31-.06.29-.49.55-.64a1.61,1.61,0,0,0,.3-.21l.06,0c0,.08,0,.19.12.13s.24-.1.14-.26l.11-.1c.12.07.08-.06.11-.09s.31-.06.34-.25c0,0,.07-.1.11-.12S11,13.14,11,13s-.09,0-.1,0-.2,0-.24-.08-.18-.14-.26-.26c0,.19-.07.22-.24.18s-.13-.21-.28-.19h0c0-.08-.06-.15-.16-.07s-.19.13-.28,0c.08-.17.19-.35-.1-.43A.31.31,0,0,0,9.27,12c-.16-.24-.43-.37-.56-.63l0,0c.06,0,.17,0,.18-.06s-.07-.14-.15-.18l0-.09c.2-.1.24.13.36.19s0,.13-.07.17a.09.09,0,0,0,0,.14c.11.06.11.25.25.25s.13,0,.19,0c-.12.1,0,.11.05.15s.21.07.22.21l-.07,0v0Zm1.44.35,0,0,0,0,0,0Zm0-.12v0h0v0Z"/><path class="cls-7" d="M4.75,3.15l0-.07c0-.05,0,0,0,0s-.11-.13-.07-.23c.15.1.27-.1.42-.05a.5.5,0,0,0,.56-.17c-.18-.09-.37,0-.52,0s.1-.22,0-.33l.28-.1s0,.08,0,.11.06,0,.07,0,.09-.09.16-.06.26,0,.38-.1.18,0,.23.12a.17.17,0,0,0,.25.11A.18.18,0,0,0,6.61,2l0-.06h.16c0,.07,0,.14,0,.19s0,.11,0,.18.22.11.26,0a.28.28,0,0,0,0-.37c.15-.1.3-.19.48,0v-.2l.16,0v.29s-.06.06,0,.08,0,0,.06,0l.23,0c.14,0,.27,0,.14-.2,0,0,0-.1,0-.14.17-.08.33-.17.52-.06,0,0,0,.07,0,0s.11,0,.16.06,0,0,0,0H9l.21.09L9.05,2c-.06.07-.28,0-.21.18,0,0-.11,0-.11,0,0-.25-.15-.16-.27-.18s-.08-.15-.15,0,.08.07.08.14h0c-.25,0-.29.17-.16.37l.15.17c0,.07-.07.07-.13.07l-.12,0h0a.26.26,0,0,0-.31-.15c-.11.05,0-.24-.16-.1l0,0c-.12-.08-.13-.07-.21.17A.69.69,0,0,0,7,2.82c-.23-.11-.39.07-.56.16l-.1,0c0-.23-.13-.23-.31-.18h-.2c.05.1.14.11.2.16S5.87,3,5.77,3c.14,0,.18.14,0,.22s-.09,0-.09.07.07.06.12.07L6,3.45c.14.22.08.38-.16.49a.3.3,0,0,0,.32,0s.09.05.05.11S6,4,6,4.13c-.22,0-.38-.22-.62-.18l.25-.13c-.12,0-.2,0-.25,0a1,1,0,0,1-.65.11c-.08,0-.13.09-.09.17s0,.21-.1.25c-.17-.14,0-.29,0-.43.18-.1,0-.12,0-.16a.61.61,0,0,1,.15-.58C4.65,3.19,4.71,3.2,4.75,3.15ZM5,3.71a2.21,2.21,0,0,0,.72,0c.14,0,.11-.08,0-.14L5.46,3.4c-.1-.08-.15-.08-.17.08A.25.25,0,0,1,5,3.71Z"/><path class="cls-7" d="M10,8.31a1.78,1.78,0,0,0,.65,0,.31.31,0,0,1,.23,0s.13,0,.09.12-.08,0-.13,0a.49.49,0,0,0-.4.11c-.11.07,0,.17,0,.24s.1.07.16,0,.14.09.23.06h0a.31.31,0,0,0,.31.16h0a.44.44,0,0,1-.52.55c-.13,0-.27-.1-.42,0s-.05-.06-.06-.1.07-.12.11-.17.32,0,.41.2.08,0,.12-.06-.09-.21,0-.36c-.11.08,0,.19-.15.21s-.07-.12-.06-.17c.06-.2-.12-.16-.2-.18s-.12.06-.1.16-.05.07-.09.08-.29-.21-.44,0c-.17,0-.35.13-.51-.08s-.12.14-.26,0a.42.42,0,0,1-.22-.31c0-.14-.14-.1-.19-.15s-.17.11,0,.2c-.15.09-.13.26-.19.39s-.1,0-.15,0-.14,0-.07.13a.08.08,0,0,1,0,.09c-.08.15-.08.15.12.17-.33.08-.34.34-.38.58A2.82,2.82,0,0,1,7.18,10l.21,0a.11.11,0,0,0,.18,0c.06,0,0-.1,0-.15s-.11,0,0-.08c-.1-.07,0-.31-.25-.27h0c0-.09,0-.21-.16-.2L7,9.16c.05-.2.16-.39,0-.59H7c.09-.22-.1-.24-.21-.31S6.7,8,6.68,7.81a.42.42,0,0,1,0-.13c.1,0,.08-.18.2-.17s.09.15.1.26S6.87,7.9,7,8s.13-.08.21-.1,0-.14.13-.16h0c0,.06,0,.11,0,.17l.13-.08v.14s-.09,0-.11,0,0,0,0,.07.1,0,.11,0,.12,0,.12.07c0,.22.22.28.36.38v.11s0,.06-.07,0,0-.17-.17-.09-.12.06-.08.13a.18.18,0,0,0,.18.13.6.6,0,0,0,.44-.17c.09-.11.25,0,.33-.14h.1l.06.17c0,.21.13.3.31.1l.34.21c0-.2.08-.28.21-.37a2.43,2.43,0,0,0,.3-.26ZM7.46,9c0,.31.21.52.14.82.14-.07.35-.09.24-.26s0-.21.07-.29S8,9.06,8,9s-.09-.06-.12,0C7.72,9.2,7.6,9.1,7.46,9ZM7,8.12l0,0,0,0v0Z"/><path class="cls-8" d="M4.51,4.36c.12,0,.15-.12.1-.25s0-.19.09-.17a1,1,0,0,0,.65-.11c.05,0,.13,0,.25,0L5.35,4c.24,0,.4.17.62.18a1.93,1.93,0,0,1,0,.34c0,.11,0,.17.15.06v.06c-.25.14-.07.3-.06.49.14-.11.15-.31.33-.31,0,0,0,0,0,0a2.9,2.9,0,0,0-.08,1.1c-.15,0-.36-.1-.56,0a.33.33,0,0,1-.22,0,1.94,1.94,0,0,0,0-.2c0-.05,0-.11,0-.15s-.1,0-.14,0-.19.16-.32.15a.16.16,0,0,1-.09,0s0-.05,0-.06c.37-.2.06-.26-.09-.36.09-.06.24.06.24-.09S5.09,5.11,5,5.15s-.11-.05-.12-.1-.12-.21-.27-.18l0-.08h0c0-.11.39-.24,0-.33Zm1.37.94q0,.25.09.33c.1.06,0-.12.12-.12S6,5.41,5.88,5.3Zm-.34.1a.33.33,0,0,0,.24.09C5.74,5.34,5.67,5.34,5.54,5.4Zm.3.25v0l0,0Z"/><path class="cls-9" d="M11.41,13.39s0-.05.05-.06.16.05.21,0,.21-.23.32-.19.3.07.32-.17l0,0c.15,0,.19-.09.23-.2a.24.24,0,0,1,.19-.12c.17,0,.38,0,.37-.29,0-.07,0-.08.11,0s.2,0,.19,0c0-.29.22-.3.36-.42s.14-.15.13,0,.05.28,0,.43a.37.37,0,0,1-.32.28.54.54,0,0,0-.43.3c-.1.17-.21.12-.33-.06,0,.19,0,.4-.22.45-.05,0,0,.06,0,.09,0,.18,0,.17-.15.16a.2.2,0,0,0-.15.08c-.06.1-.17.09-.24.14h0a.27.27,0,0,0-.46-.08c-.11.13-.23.07-.33.13h-.17s0,0,0,0h0c0-.06.07-.06.11-.08S11.43,13.54,11.41,13.39Z"/><path class="cls-10" d="M8.56,13.49a.52.52,0,0,0-.14-.33c-.06-.07-.11-.16-.18,0s0,.08-.05,0-.19,0-.26-.14c.14-.2,0-.31-.16-.43s-.19-.12-.16-.26,0-.16-.1-.1-.17-.07-.27-.05l0,0A2,2,0,0,0,7,11.68c0-.07-.11-.15,0-.23a2.14,2.14,0,0,0,.48.28.32.32,0,0,1,.24.33c0,.21.14.26.29.26s.2.06.26.2.25.47.36.71.11.12.21.08,0,0,.06,0c.33,0,.53-.09.44-.48,0-.07,0-.14.08-.21.09.14.19.06.28,0l-.06.26a1.09,1.09,0,0,0-.16.52,2.73,2.73,0,0,0-.64.06c-.14,0-.1.11-.1.2S8.69,13.45,8.56,13.49Z"/><path class="cls-11" d="M13.79,11.8c-.14.12-.39.13-.36.42,0,.07-.1.12-.19,0s-.12,0-.11,0c0,.26-.2.27-.37.29a.24.24,0,0,0-.19.12c0,.11-.08.2-.23.2l0,0c0,.24-.13.23-.32.17s-.25.06-.32.19-.12.14-.21,0,.25-.25.37-.35.5-.27.76-.48c-.28.07-.15-.16-.23-.23s.05,0,.19-.06.35.13.32-.18c0-.07.11-.09.17-.07s.17-.05.23-.12h.07C13.47,11.54,13.63,11.71,13.79,11.8Z"/><path class="cls-9" d="M9.51,13.38a1.09,1.09,0,0,1,.16-.52c.06,0,.09.05.19.09-.08-.13-.07-.22,0-.28h0c0,.11,0,.22-.05.33s.3.35.36.31c.26-.19.51-.07.75,0,0,.19-.26.12-.34.25s-.1-.06-.14,0,0,.06,0,.09l-.11.1-.15,0h-.06s.06-.17-.1-.08a.62.62,0,0,1-.45.13A.4.4,0,0,0,9.51,13.38Zm.43,0c0,.14-.21.16-.11.31s.05,0,.08,0S10,13.48,9.94,13.34Z"/><path class="cls-12" d="M11,5.06a.2.2,0,0,1,.3,0,.31.31,0,0,1,.12.33c0,.12-.07.24-.1.37s-.21-.13-.21.09-.1.1-.18.08-.2.06-.19.2a.85.85,0,0,1-.26-.46,1.68,1.68,0,0,0-.13-.28l.43-.2c.08.1,0,.16,0,.24C11,5.46,11,5.26,11,5.06Z"/><path class="cls-10" d="M4.6,4.87c.15,0,.25,0,.27.18s0,.14.12.1.2-.07.21.07-.15,0-.24.09c.15.1.46.16.09.36,0,0,0,.06,0,.06a.16.16,0,0,0,.09,0c.13,0,.21-.1.32-.15s.09-.08.14,0,0,.1,0,.15a1.94,1.94,0,0,1,0,.2l-.31.12A.39.39,0,0,0,5,5.94c0,.08.11.14,0,.21a2.15,2.15,0,0,1-.27-.89c0-.13-.16-.23-.14-.38Z"/><path class="cls-10" d="M5.76,5.92c.2-.11.41,0,.56,0a2.9,2.9,0,0,1,.08-1.1c.18-.11.22.07.19.14s0,.34,0,.51v.11c-.17.13-.11.28,0,.43s-.09.29,0,.41a.37.37,0,0,0-.21,0,.56.56,0,0,1-.33-.26A1.23,1.23,0,0,0,5.76,5.92Z"/><path class="cls-13" d="M11.19,10.75c-.11-.15-.17-.27.08-.33s.2-.09.05-.22-.05-.33,0-.44a.56.56,0,0,0,.15-.55c0-.06,0-.14.08-.16a4.73,4.73,0,0,0,.05.75c0,.07.08.25-.09.33s0,.15,0,.23.09.23-.14.17S11.22,10.62,11.19,10.75Z"/><path class="cls-14" d="M8.71,11.38c.13.26.4.39.56.63a.31.31,0,0,1,.08.15c.12.15-.12.19-.11.31-.14,0-.14-.18-.21-.27s0-.09,0-.13S9,12,9,12s-.09,0-.11.1.05.21,0,.33.13,0,.07.09-.11,0-.17,0-.16-.4-.11-.43.1-.2,0-.32S8.53,11.48,8.71,11.38Z"/><path class="cls-13" d="M11,7.38c-.07,0-.11-.14-.21,0s-.1.06-.13,0-.06-.13-.13-.07,0,.09,0,.14.05.16.08.24.09-.12.17-.07l0,0c-.12,0-.07.23-.24.15a.22.22,0,0,0-.25.06c-.11,0-.18,0-.27-.06s.18-.09.25-.16.12-.07.1-.14-.1,0-.16,0l-.13,0s-.11,0-.13-.06,0-.09.08-.12.23-.12.3-.23h0c.36.22.39.22.69,0l0,0a.21.21,0,0,0,0,.15s-.08,0-.06.11Z"/><path class="cls-11" d="M8.39,2.08c0-.07-.13-.05-.08-.14s.1,0,.15,0,.31-.07.27.18c0,0,.11,0,.11,0-.07-.22.15-.11.21-.18l.12-.14c.13,0,.3-.13.39.08,0,0-.2-.06-.1.07s.08.31.1.46H9.5L9.4,2.3c0-.19,0-.2-.24-.19l.14.19s.07.07,0,.09S9.12,2.24,9,2.16a.75.75,0,0,1-.12.39c-.07-.08-.15.1-.22,0,.23-.17-.05-.28,0-.49l-.16.21S8.49,2.11,8.39,2.08Z"/><path class="cls-10" d="M8.92,6c-.11-.18-.22-.2-.36,0a.24.24,0,0,1-.3.1c0-.27.28-.35.37-.59s.44-.26.72-.23c-.06.17-.24,0-.31.11s.17.17.07.31a.61.61,0,0,1-.07.1A.27.27,0,0,0,8.92,6Z"/><path class="cls-15" d="M10,7.78c.09,0,.16.11.27.06l-.06.37h0a.33.33,0,0,0-.28.1h0a.26.26,0,0,0-.39-.08l-.42.24H9.07a.72.72,0,0,1,.7-.54C9.92,7.93,9.91,7.76,10,7.78Z"/><path class="cls-15" d="M9.56,2.45c0-.15,0-.31-.1-.46s.07,0,.1-.07c.37.06.44.45.74.62a.42.42,0,0,1-.26.12c-.07,0-.09-.14-.16-.09S9.64,2.56,9.56,2.45Z"/><path class="cls-10" d="M9.36,6.1l0-.08v-.1c0-.1.15-.06.15-.16a.87.87,0,0,0-.18-.11c-.06,0-.14,0-.1-.08s.07-.07.14-.06c.25,0,.29,0,.26-.26a.42.42,0,0,1,.37.08A1.1,1.1,0,0,1,9.36,6.1Z"/><path class="cls-7" d="M9.09,14.34c0,.13,0,.22-.17.13-.36-.23-.78-.35-1.13-.59,0,0-.09,0-.13,0a.15.15,0,0,0-.16-.1c0-.08-.11,0-.15-.06h0c0-.07-.08-.06-.12-.1v0a10.74,10.74,0,0,1,1.48.62Z"/><path class="cls-6" d="M9.61,5.25c0,.27,0,.31-.26.26-.07,0-.12,0-.14.06s0,.07.1.08a.87.87,0,0,1,.18.11c0,.1-.15.06-.15.16l0,0c-.12.1-.24.28-.38,0A.27.27,0,0,1,9,5.78a.61.61,0,0,0,.07-.1c.1-.14-.14-.22-.07-.31s.25.06.31-.11A.34.34,0,0,1,9.61,5.25Zm-.37.54h0v0l0,0Z"/><path class="cls-12" d="M6,3.45,5.84,3.4s-.12,0-.12-.07.06-.05.09-.07.1-.17,0-.22c.1-.09.23,0,.28-.11s-.15-.06-.2-.16h.2c.18,0,.31,0,.31.18l.1,0,0,.1c-.05,0-.12,0-.11.1l-.07.07a.21.21,0,0,0-.24.2Z"/><path class="cls-11" d="M7.31,7.7c-.09,0,0,.14-.13.16S7.07,8,7,8s0-.12,0-.19,0-.2-.1-.26c.07-.19-.08-.21-.2-.25s-.1-.12-.07-.2.26.09.2-.06,0-.23,0-.34A.43.43,0,0,1,7,7.08c0,.12,0,.17.07.21S7.23,7.57,7.31,7.7Z"/><path class="cls-16" d="M9.23,14.75c.06.28.22-.09.31.06s0-.11.07,0,.05.06,0,.08,0,.08,0,.1.06,0,.08,0a.25.25,0,0,0,0-.09c0-.14.12-.19.25-.08l0,.08c-.15.08-.21.25-.37.31a.31.31,0,0,1-.4-.08C9.13,15,9.11,14.86,9.23,14.75Z"/><path class="cls-11" d="M10.72,6.09c0-.14,0-.25.19-.2s.18,0,.18-.08.13-.08.21-.09v.21a.11.11,0,0,0-.1.15c.07.21,0,.29-.22.3A.44.44,0,0,1,10.72,6.09Z"/><path class="cls-15" d="M9.36,6.1A1.1,1.1,0,0,0,10,5.33c0,.06.11,0,.08,0a1.82,1.82,0,0,1-.41.68c-.11.09-.12.28-.29.27Z"/><path class="cls-17" d="M11.14,13.69h.17c0,.07.14.11,0,.21a.23.23,0,0,0-.12.27c0,.16-.21.14-.33.16a.73.73,0,0,1-.26-.06v-.1c.25,0,.33-.14.42-.32Z"/><path class="cls-11" d="M5.14,2.21c.12.11,0,.21,0,.33s.34,0,.52,0a.5.5,0,0,1-.56.17A.68.68,0,0,0,5,2.5c0-.1,0-.14.1-.15h0a0,0,0,0,0,0-.07S5.09,2.22,5.14,2.21Z"/><path class="cls-14" d="M7.08,2a.28.28,0,0,1,0,.37c0,.06-.17,0-.26,0s-.11-.11,0-.18.06-.12,0-.19.16-.1.26-.07S7,1.94,7.08,2Z"/><path class="cls-7" d="M8,10.34c.07,0,.15,0,.22,0s.12.07.22,0c-.19.16-.11.25.06.29s.24.17.21.35c-.2-.1-.41-.19-.47-.43S8,10.46,8,10.34Z"/><path class="cls-14" d="M6.61,5.46c0-.17-.1-.33,0-.51s0-.25-.19-.14c0,0,0,0,0,0v-.1a.36.36,0,0,1,.37.49C6.7,5.26,6.78,5.42,6.61,5.46Z"/><path class="cls-11" d="M8.56,13.49c.13,0,.14.1.21.15a1.3,1.3,0,0,0,.38.49v.06l-.25-.07c0-.12-.21-.07-.24-.2s-.14-.24-.13-.39Z"/><path class="cls-10" d="M9.4,2.3l.1.15c0,.22-.21,0-.27.14s0,0,0,0a0,0,0,0,0,0,0h0v0c-.12.14-.23.1-.35,0A.75.75,0,0,0,9,2.16c.13.08.14.25.29.23s0-.06,0-.09Z"/><path class="cls-13" d="M11.68,7.9c-.34,0-.5-.32-.71-.52l0,0c.07,0,.13,0,.19.06s.14.23.27.24S11.69,7.74,11.68,7.9Z"/><path class="cls-11" d="M8.1,1.74s0,.11,0,.14c.13.2,0,.2-.14.2l-.23,0,0,0V1.78C7.83,1.67,8,1.73,8.1,1.74Z"/><path class="cls-11" d="M8.29,8.59a.6.6,0,0,1-.44.17.18.18,0,0,1-.18-.13c0-.07,0-.09.08-.13s.13,0,.17.09,0,0,.07,0,.1,0,.08-.11.12,0,.17-.07,0,0,0,0,0,.12,0,.14Z"/><path class="cls-14" d="M10,14.84l0-.08c0-.17.23-.12.22-.27h0c.12.07.16-.07.25-.1s0,.41-.14.38S10.11,14.83,10,14.84Z"/><path class="cls-12" d="M6.12,4.53C6,4.64,6,4.58,6,4.47a1.93,1.93,0,0,0,0-.34C6,4,6.13,4,6.23,4s-.1.2,0,.32A.14.14,0,0,1,6.12,4.53Z"/><path class="cls-18" d="M6.89,6.66c0,.11-.11.19,0,.34s-.14,0-.2.06l-.09-.44.13-.14h.06s0,.08,0,.11.06,0,.09,0Z"/><path class="cls-16" d="M9.23,2.59c.06-.11.27.08.27-.14h.06c.08.11.14.24.32.12s.09.08.16.09,0,.17-.09.13S9.46,2.7,9.23,2.59Z"/><path class="cls-13" d="M9.15,14.13a1.3,1.3,0,0,1-.38-.49c0-.09,0-.19.1-.2a1.1,1.1,0,0,0,.17.42C9.09,13.94,9.18,14,9.15,14.13Z"/><path class="cls-9" d="M11,6.38c.19,0,.29-.09.22-.3a.11.11,0,0,1,.1-.15s0,.06,0,.08c.2.3,0,.43-.23.59C11,6.55,11,6.44,11,6.38Z"/><path class="cls-13" d="M6.22,10.48c-.29-.11-.14-.34-.14-.52.06,0,0-.16.15-.1s0,.11,0,.16A.72.72,0,0,0,6.22,10.48Z"/><path class="cls-13" d="M11.61,9c-.18-.17,0-.31.05-.45A4,4,0,0,1,11.74,8a.25.25,0,0,1,.06.32C11.71,8.53,11.69,8.75,11.61,9Z"/><path class="cls-16" d="M6.18,3.92a.3.3,0,0,1-.32,0c.24-.11.3-.27.16-.49H6c.09,0,.14-.07.21-.1Z"/><path class="cls-12" d="M6.38,4.67v.1c-.18,0-.19.2-.33.31,0-.19-.19-.35.06-.49C6.19,4.68,6.29,4.67,6.38,4.67Z"/><path class="cls-16" d="M9.07,8.47h.06l0,.1,0,0a.09.09,0,0,0,0,.11c-.18.2-.27.11-.31-.1l-.06-.17c0-.06.11-.14.15,0s-.06.19.06.21S9,8.53,9.07,8.47Z"/><path class="cls-16" d="M7.24,9.52c.22,0,.15.2.25.27-.06.07,0,.05,0,.08s.09.1,0,.15a.11.11,0,0,1-.18,0C7.39,9.83,7.23,9.7,7.24,9.52Z"/><path class="cls-9" d="M6.71,7.26c.12,0,.27.06.2.25-.12,0-.1.16-.2.17s-.13-.17-.1-.18S6.62,7.31,6.71,7.26Z"/><path class="cls-13" d="M5.56,6.35c-.21,0-.15.28-.31.34C5.19,6.41,5.19,6.41,5.56,6.35Z"/><path class="cls-15" d="M8.39,2.08c.1,0,0,.12.08.17L8.63,2c0,.21.25.32,0,.49H8.5l0-.13v0l0,0H8.4V2.08Z"/><path class="cls-16" d="M7.08,2c-.06,0,0-.08,0-.12a.37.37,0,0,1,.48-.11v.2C7.38,1.78,7.23,1.87,7.08,2Z"/><path class="cls-16" d="M5,2.5a.68.68,0,0,1,.15.26c-.15,0-.27.15-.42.05A.67.67,0,0,1,5,2.5Z"/><path class="cls-8" d="M5,6.15c.1-.07-.06-.13,0-.21a.39.39,0,0,1,.27.11l-.16.42Z"/><path class="cls-14" d="M7,8.57c.14.2,0,.39,0,.59H7c0-.09.1-.2-.07-.25s0-.1,0-.13S7,8.65,7,8.57Z"/><path class="cls-14" d="M6,2c-.12.08-.21.24-.38.1,0-.09.08-.11.13-.15S5.9,1.86,6,2Z"/><path class="cls-9" d="M7,2.82a.69.69,0,0,1,.38-.26c0,.07.09,0,.15,0h0A.85.85,0,0,1,7,2.82Z"/><path class="cls-6" d="M11,5.06c0,.2,0,.4-.27.33,0-.08.13-.14,0-.24Z"/><path class="cls-16" d="M8.62,8.45c-.08.1-.24,0-.33.14v0c0-.05,0-.11,0-.14s0,0,0,0S8.53,8.22,8.62,8.45Z"/><path class="cls-14" d="M6.82,8.26c.11.07.3.09.21.31C6.8,8.57,6.78,8.44,6.82,8.26Z"/><path class="cls-13" d="M6.88,11.22c-.07.1-.17,0-.25,0a.3.3,0,0,1,0-.26h0C6.82,11,6.86,11.12,6.88,11.22Z"/><path class="cls-7" d="M5.74,6.72c.1,0,.15-.28.3,0L6,6.84,5.75,7Z"/><path class="cls-11" d="M6.71,11h0a.28.28,0,0,0-.29.05h0l.05-.31A.49.49,0,0,1,6.71,11Z"/><path class="cls-9" d="M8.89,14.12l.25.07c0,.05,0,.11-.05.15l-.38-.17C8.76,14.11,8.83,14.13,8.89,14.12Z"/><path class="cls-7" d="M4.55,4.45c.4.09,0,.22,0,.33C4.5,4.67,4.56,4.56,4.55,4.45Z"/><path class="cls-11" d="M13.16,11.8c-.07-.08-.16-.14-.17-.26s.24,0,.29.06S13.19,11.72,13.16,11.8Z"/><path class="cls-14" d="M6.59,6c-.09-.15-.15-.3,0-.43A1.25,1.25,0,0,1,6.59,6Z"/><path class="cls-14" d="M7.82,2.51a.26.26,0,0,1,.31.15c-.11,0-.25.07-.31-.1Z"/><path class="cls-14" d="M8.48,2.4l0,.13h0l-.06.08H8.39l-.15-.17.16-.06h.08Z"/><path class="cls-16" d="M7.82,2.51v.05c0,.08-.08.12-.16,0v-.2C7.82,2.27,7.71,2.56,7.82,2.51Z"/><path class="cls-14" d="M8.76,11.11c.08,0,.16.1.15.18s-.12,0-.18.06A.25.25,0,0,1,8.76,11.11Z"/><path class="cls-11" d="M6.68,6.48l-.13.14s-.14-.07-.13-.18a.37.37,0,0,1,.21,0A.06.06,0,0,1,6.68,6.48Z"/><path class="cls-16" d="M7.08,9.32c.15,0,.13.11.16.2S7,9.47,7.08,9.32Z"/><path class="cls-14" d="M5.74,6.72V7s-.09,0-.09,0S5.61,6.76,5.74,6.72Z"/><path class="cls-9" d="M12.2,13.75l.08,0s.11,0,.11.1,0,.05-.07.06-.08-.06-.1-.1,0-.05,0-.07Z"/><path class="cls-7" d="M6.23,3.35c-.07,0-.12.11-.21.1a.21.21,0,0,1,.24-.2Z"/><path class="cls-17" d="M11.18,7.42c-.06,0-.12-.08-.19-.06s0-.08.06-.11S11.29,7.24,11.18,7.42Z"/><path class="cls-14" d="M7.66,2.41v.2H7.55c0-.09,0-.15.06-.21Z"/><path class="cls-11" d="M7.47,7.8l-.13.08c0-.06,0-.11,0-.17S7.47,7.7,7.47,7.8Z"/><path class="cls-9" d="M12.1,13.65c0,.23-.13,0-.19.07s.12-.06.19-.07Z"/><path class="cls-14" d="M6,6.84,6,6.67s.08,0,.07.09S6,6.83,6,6.84Z"/><path class="cls-19" d="M7.5,13.76a.15.15,0,0,1,.16.1C7.54,13.93,7.49,13.89,7.5,13.76Z"/><path class="cls-17" d="M11.08,7.1l0,0c0-.06,0-.12.08-.19C11.08,7,11.21,7,11.08,7.1Z"/><path class="cls-10" d="M11.94,11.22c-.09.07-.17.09-.21-.05Z"/><path class="cls-11" d="M7.51,8c0,.09-.06.06-.11,0S7.34,8,7.37,8s.07,0,.11,0S7.53,8,7.51,8Z"/><path class="cls-18" d="M4.45,3.77s.21.06,0,.16S4.46,3.82,4.45,3.77Z"/><path class="cls-18" d="M4.75,3.15c0,.05-.1,0-.15,0C4.61,3,4.69,3.14,4.75,3.15Z"/><path class="cls-17" d="M10.19,13.8h.06l-.11.11-.06,0C10.08,13.83,10.14,13.82,10.19,13.8Z"/><path class="cls-16" d="M6.33,3.18c0-.09.06-.09.11-.1S6.41,3.19,6.33,3.18Z"/><path class="cls-11" d="M6.84,6.59s-.07,0-.09,0,0-.07,0-.11A.11.11,0,0,1,6.84,6.59Z"/><path class="cls-14" d="M8.07,8.46c0,.07,0,.11-.08.11V8.46Z"/><path class="cls-11" d="M8.14,2.66l.12,0c0,.05,0,.08-.09.07S8.12,2.7,8.14,2.66Z"/><path class="cls-16" d="M5.49,2.19s0,.06-.07,0,0-.07,0-.11Z"/><path class="cls-14" d="M6.65,1.92l0,.06s-.05,0,0,0S6.62,1.9,6.65,1.92Z"/><path class="cls-16" d="M5.08,2.29a0,0,0,0,1,0,.07h0Z"/><path class="cls-7" d="M8,10.32l0-.06s0,.05,0,.08H8Z"/><path class="cls-9" d="M11.77,13.77h0s0,0,0,0h0Z"/><path class="cls-10" d="M9,1.75H8.87l0-.07Z"/><path class="cls-7" d="M4.6,4.87h0s0-.06,0-.09Z"/><path class="cls-18" d="M4.77,3s.08,0,0,0Z"/><path class="cls-16" d="M9.22,2.56v0h0a0,0,0,0,1,0,0Z"/><path class="cls-10" d="M12.1,11.26l0,0,0,0S12.09,11.24,12.1,11.26Z"/><path class="cls-10" d="M8.66,1.7c-.05.05,0,0,0,0Z"/><path class="cls-10" d="M8.87,1.76s0,0,0,0Z"/><path class="cls-11" d="M8.45,2.61l.06-.08C8.52,2.58,8.49,2.6,8.45,2.61Z"/><path class="cls-9" d="M12.2,13.76l0,0,0,0Z"/><path class="cls-14" d="M7,9.16v0Z"/><path class="cls-15" d="M9.3,6l0,0V6Z"/><path class="cls-14" d="M10.2,9.32s0,.14-.11.17H10c0-.05,0-.07,0,0h0c-.1,0-.11-.21-.26-.17l0-.05h0s0,0,0,0c.15-.22.29-.13.44,0A.11.11,0,0,0,10.2,9.32Z"/><path class="cls-7" d="M9.72,9.3c.15,0,.16.13.26.17-.06.17-.14,0-.2,0A.67.67,0,0,1,9.72,9.3Z"/><path class="cls-10" d="M9.5,12c-.06,0-.17-.05-.05-.15s.13,0,.14.08S9.54,12,9.5,12Z"/><path class="cls-7" d="M9.69,9.24h0c0,.05,0,.11-.07.15S9.65,9.29,9.69,9.24Z"/><path class="cls-10" d="M11.41,11.8v.1s-.08,0-.08,0S11.37,11.81,11.41,11.8Z"/><path class="cls-15" d="M10.39,8.12l0,0h-.05Z"/><path class="cls-7" d="M11.52,12s0,.06,0,.06a.35.35,0,0,1,0-.06h0Z"/><path class="cls-10" d="M11.51,12h0l-.05-.05A.09.09,0,0,1,11.51,12Z"/><path class="cls-7" d="M11.09,9.05l0-.07,0,0,0,.05Z"/><path class="cls-7" d="M10.78,8.89l0-.07,0,0,0,.05Z"/><path class="cls-15" d="M10.25,8.21h0Z"/><path class="cls-7" d="M10,9.47c0-.06,0,0,0,0Z"/><path class="cls-7" d="M10.51,12.38l0,0h0v0Z"/><path class="cls-7" d="M10.51,12.38l0,0h0a0,0,0,0,1,0,0Z"/><path class="cls-11" d="M11,13.35c-.24-.1-.49-.22-.75,0-.06,0-.37-.22-.36-.31s0-.22.05-.33.13.17.28.19.23,0,.24-.18c.08.12.21.14.26.26s.1.23.24.08.14-.07.1,0,.21.1.05.2S11,13.31,11,13.35Z"/><path class="cls-11" d="M11,13.86c-.09.18-.17.35-.42.32-.09-.16.06-.2.15-.25A.83.83,0,0,1,11,13.86Z"/><path class="cls-6" d="M10.14,13.92l.11-.11.15,0c.1.16-.05.22-.14.26S10.15,14,10.14,13.92Z"/><path class="cls-11" d="M9.89,12.67c-.1.06-.11.15,0,.28-.1,0-.13-.11-.19-.09l.06-.26C9.83,12.52,9.86,12.59,9.89,12.67Z"/><path class="cls-20" d="M11.41,13.39c0,.15-.08.19-.2.21A.37.37,0,0,1,11.41,13.39Z"/><path class="cls-17" d="M10.51,13.69s0-.08,0-.09.09,0,.14,0S10.63,13.76,10.51,13.69Z"/><path class="cls-6" d="M11.16,12.52l0,0,0,0,0,0Z"/><path class="cls-6" d="M10.67,12.65v-.16h0c.07,0,.07.1,0,.16Z"/><path class="cls-6" d="M9.72,12.17l-.06,0v0l.07,0Z"/><path class="cls-6" d="M11.13,12.4h0v0h0Z"/><path class="cls-17" d="M11.1,13.68Z"/><path class="cls-6" d="M10.67,12.65l0,0,0,0Z"/><path class="cls-14" d="M10.2,14.49h0Z"/><path class="cls-6" d="M5,3.71a.25.25,0,0,0,.26-.23c0-.16.07-.16.17-.08l.32.21c.08.06.11.14,0,.14A2.21,2.21,0,0,1,5,3.71Z"/><path class="cls-16" d="M8.4,2.39l-.16.06c-.13-.2-.09-.34.16-.37Z"/><path class="cls-16" d="M7.61,2.39c-.07.06-.11.12-.06.21s-.12,0-.15,0C7.48,2.32,7.49,2.31,7.61,2.39Z"/><path class="cls-11" d="M7.74,2.1s0,.07-.06,0,0-.06,0-.08Z"/><path class="cls-6" d="M9.15,8.57l0-.1.42-.24a.26.26,0,0,1,.39.08,2.43,2.43,0,0,1-.3.26c-.13.09-.24.17-.21.37l-.34-.21a.09.09,0,0,1,0-.11H9.2Z"/><path class="cls-6" d="M7.46,9c.14.14.26.24.37,0,0-.06.1-.07.12,0s0,.2,0,.26-.19.12-.07.29-.1.19-.24.26C7.67,9.48,7.41,9.27,7.46,9Zm.24.25v0h0l0,0Z"/><path class="cls-11" d="M10.2,9.32a.11.11,0,0,1,0-.12s.09,0,.09-.08,0-.2.1-.16.26,0,.2.18c0,0,0,.11.06.17s0-.13.15-.21c-.11.15.12.23,0,.36s-.1.09-.12.06S10.34,9.38,10.2,9.32Z"/><path class="cls-15" d="M7,8.12l0,0v0l0,0Z"/><path class="cls-9" d="M8.65,13.92a3.37,3.37,0,0,1-.94-.49l0-.12c.18.11.45,0,.57.24s.13-.17.22,0S8.62,13.79,8.65,13.92Z"/><path class="cls-10" d="M7.24,12.18s0,.09-.06.08,0,0,0,0,0-.06.07-.09Z"/><path class="cls-7" d="M5.88,5.3c.07.11.19.1.21.21s0,.18-.12.12S5.85,5.47,5.88,5.3Z"/><path class="cls-7" d="M5.54,5.4c.13-.06.2-.06.24.09A.33.33,0,0,1,5.54,5.4Z"/><path class="cls-7" d="M5.84,5.65v0l0,0Z"/><path class="cls-21" d="M7.19,13.64l0,0s.12,0,.12.1S7.19,13.8,7.19,13.64Z"/><path class="cls-11" d="M9.94,13.34c.09.14.07.23,0,.31s-.06,0-.08,0S9.93,13.48,9.94,13.34Z"/><path class="cls-16" d="M9.4,2.3H9.3l-.14-.19C9.4,2.1,9.42,2.11,9.4,2.3Z"/><path class="cls-10" d="M9.24,5.79h0l0,0v0Z"/><path class="cls-14" d="M8.24,8.42c.06,0,0,.09,0,.14S8.24,8.47,8.24,8.42Z"/><path class="cls-15" d="M9.15,8.57l0,0H9.13Z"/><path class="cls-11" d="M8.48,2.4h0l0,0Z"/><path class="cls-7" d="M7.7,9.21v0l0,0h0Z"/><polygon class="cls-9" points="7.34 13.7 7.34 13.7 7.35 13.7 7.34 13.7"/><path class="cls-9" d="M7.35,13.7c-.06,0-.16.1-.16-.06a1.32,1.32,0,0,0-.2-.12,5.48,5.48,0,0,1,0,.57.92.92,0,0,0,.33,0C7.21,13.94,7.37,13.84,7.35,13.7Z"/><path class="cls-15" d="M7.23,13.55c0-.1-.09-.13-.17-.17l-.07,0s0,.07,0,.11,0,0,0,.06a1.32,1.32,0,0,1,.2.12l0,0Z"/><path class="cls-19" d="M8.65,13.92a3.37,3.37,0,0,1-.94-.49c-.13,0-.18-.28-.38-.17-.06-.2-.26-.06-.34-.13H7c0,.08,0,.15,0,.23l.07,0c.08,0,.15.07.17.17a10.74,10.74,0,0,1,1.48.62c0-.06.12,0,.18-.05S8.68,14.05,8.65,13.92Z"/><polygon class="cls-11" points="6.39 11.06 6.39 11.06 6.39 11.06 6.39 11.06"/><path class="cls-11" d="M8.42,13.16c-.06-.07-.11-.16-.18,0s0,.08-.05,0-.19,0-.26-.14c.14-.2,0-.31-.16-.43s-.19-.12-.16-.26,0-.16-.1-.1-.17-.07-.27-.05,0,.09-.06.08,0,0,0,0,0-.06.07-.09A2,2,0,0,0,7,11.68c0-.07-.11-.15,0-.23s.09-.28-.15-.23c-.07.1-.17,0-.25,0l-.11.2A4.54,4.54,0,0,1,7,13.12H7c.08.07.28-.07.34.13.2-.11.25.12.38.17l0-.12c.18.11.45,0,.57.24s.13-.17.22,0l0,0A.52.52,0,0,0,8.42,13.16Z"/><path class="cls-11" d="M6.3,11.06l.1.19a.41.41,0,0,0,0-.19A.06.06,0,0,0,6.3,11.06Z"/><path class="cls-9" d="M6.3,11.06a.06.06,0,0,1,.09,0c0-.1,0-.21.05-.31s-.1-.23-.22-.27c-.29-.11-.14-.34-.14-.52a.52.52,0,0,0-.45.27A4.43,4.43,0,0,1,6.3,11.06Z"/><path class="cls-20" d="M6.4,11.25l.12.22.11-.2a.3.3,0,0,1,0-.26.28.28,0,0,0-.29.05A.4.4,0,0,1,6.4,11.25Z"/><circle class="cls-22" cx="2.5" cy="13.46" r="2.5"/></g></g></g></svg>