<?xml version="1.0" encoding="UTF-8" standalone="no"?>
<svg
   viewBox="0 0 38.699999 38"
   version="1.1"
   id="svg281"
   sodipodi:docname="icon_white.svg"
   width="38.700001"
   height="38"
   inkscape:version="1.1 (c4e8f9e, 2021-05-24)"
   xmlns:inkscape="http://www.inkscape.org/namespaces/inkscape"
   xmlns:sodipodi="http://sodipodi.sourceforge.net/DTD/sodipodi-0.dtd"
   xmlns="http://www.w3.org/2000/svg"
   xmlns:svg="http://www.w3.org/2000/svg">
  <sodipodi:namedview
     id="namedview283"
     pagecolor="#ffffff"
     bordercolor="#666666"
     borderopacity="1.0"
     inkscape:pageshadow="2"
     inkscape:pageopacity="0.0"
     inkscape:pagecheckerboard="0"
     showgrid="false"
     width="48.7px"
     inkscape:zoom="3.03125"
     inkscape:cx="-112.3299"
     inkscape:cy="4.4536082"
     inkscape:window-width="1645"
     inkscape:window-height="1081"
     inkscape:window-x="-299"
     inkscape:window-y="96"
     inkscape:window-maximized="0"
     inkscape:current-layer="svg281" />
  <defs
     id="defs266">
    <style
       id="style264">.cls-1{fill:#eeeeef;}</style>
  </defs>
  <g
     id="Layer_2"
     data-name="Layer 2"
     inkscape:transform-center-x="12.865979"
     inkscape:transform-center-y="-5.9381443"
     transform="translate(9.0000004,1.0013911)">
    <g
       id="Layer_1-2"
       data-name="Layer 1">
      <g
         id="icon_white">
        <path
           class="cls-1"
           d="M 20.7,29.71 17.37,26.2 c 1.76,-0.81 1.46,-1.88 1.31,-3.46 -0.18,-1.88 1.16,-2.55 0.93,-3.48 a 2.92,2.92 0 0 0 -2.77,-2.34 c -1.76,-0.06 -4.24,3.23 -7.45,2.51 -3.21,-0.72 -2.94,-5 -2.94,-5 0,0 1,-4.67 0.09,-5.34 A 2.92,2.92 0 0 1 5.1,6.54 C 5.1,4.9 6,3.51 9,4 c 3,0.49 2.42,0.62 4.48,0.85 2.06,0.23 2.6,-0.37 2.6,-0.37 l 0.68,0.64 1,1.78 L 18,7 C 18,7 17.7,5.65 17.58,5.22 16.74,2.22 15.33,1.59 15.33,1.59 v 0 A 2.63,2.63 0 0 0 15,1.39 C 12.59,0 3.26,-1.87 0.74,4.31 c -1,2.5 -0.31,5.79 0.33,7.82 a 2.8,2.8 0 0 0 -0.32,1.2 4.82,4.82 0 0 0 0.25,1.39 4.87,4.87 0 0 0 1.51,2.15 3.54,3.54 0 0 0 1.17,0.67 2.76,2.76 0 0 0 0.65,0.09 1.36,1.36 0 0 0 0,-0.35 A 2.43,2.43 0 0 1 3.93,17.1 3.59,3.59 0 0 1 3,16.37 5.51,5.51 0 0 1 1.84,14.37 4,4 0 0 1 1.69,13.88 c 0,-0.32 -0.12,-1.61 1.11,-1.75 2,-0.23 2.69,2.23 2.69,2.23 0,0 -0.16,5.75 1.72,8.38 a 9.85,9.85 0 0 0 7.55,4 c -0.38,1.06 -1.24,3.45 -1.87,4.74 a 29.17,29.17 0 0 1 -1.76,3.08 c 0,0 -2.81,-4.26 -4.45,-6.37 A 11.47,11.47 0 0 1 4.6,24.11 L 4.4,22.36 0,26.82 v 3.32 l 3.55,-0.55 -0.49,1.72 7.72,4.69 8.67,-4.92 -1.26,-1.29 z m -4.32,-7.59 c -1.18,0.25 -2.42,-0.54 -2.46,-1.37 -0.04,-0.83 1.5,-1.5 2.29,-1.67 a 1.08,1.08 0 0 1 1.43,0.89 c -0.04,0.82 -0.08,1.9 -1.26,2.15 z"
           id="path268" />
        <path
           class="cls-1"
           d="m 16.47,10.37 h -0.09 c 0,0.19 0.1,0.45 0.19,0.75 a 1.19,1.19 0 0 0 0.26,-0.11 2.54,2.54 0 0 1 2.54,-0.12 l 0.06,-0.07 a 2,2 0 0 0 -1.36,-0.71 3.06,3.06 0 0 0 -1.6,0.26 z"
           id="path270" />
        <path
           class="cls-1"
           d="M 15.41,10.32 C 15.06,10.26 14.69,10.17 14.31,10.08 13.93,9.99 13.46,9.9 12.93,9.83 a 3,3 0 0 0 -1.72,0.32 3.84,3.84 0 0 0 -1.89,2.3 L 9.4,12.5 a 4.93,4.93 0 0 1 2.08,-1.65 4.19,4.19 0 0 1 2.63,0.16 11.87,11.87 0 0 0 1.35,0.22 3.92,3.92 0 0 0 -0.05,-0.91 z"
           id="path272" />
        <path
           class="cls-1"
           d="m 12.2,13.46 a 1.44,1.44 0 0 0 1.25,0.76 c 0.63,0 1.05,-0.17 1.11,-0.8 0.06,-0.63 -0.5,-0.8 -1.11,-0.8 a 1.34,1.34 0 0 0 -1.25,0.84 z"
           id="path274" />
        <path
           class="cls-1"
           d="m 17,13.3 c 0.06,0.46 0.42,0.69 0.94,0.69 A 1.09,1.09 0 0 0 18.89,13.3 1,1 0 0 0 17.94,12.62 C 17.39,12.62 17,12.86 17,13.3 Z"
           id="path276" />
      </g>
    </g>
  </g>
</svg>
