<svg xmlns="http://www.w3.org/2000/svg" viewBox="0 0 16 16"><defs><style>.cls-1{fill:#fff;}.cls-2{fill:#e1e1e1;}.cls-3{fill:#e3e3e3;}.cls-4{fill:#d8d8d8;}.cls-5{fill:#e9e9e9;}.cls-6{fill:#020202;}.cls-7{fill:#202020;}.cls-8{fill:gray;}.cls-9{fill:#0f0f0f;}.cls-10{fill:#cecece;}.cls-11{fill:#242424;}.cls-12{fill:#181818;}.cls-13{fill:#383838;}.cls-14{fill:#adadad;}.cls-15{fill:#2e2e2e;}.cls-16{fill:#9f9f9f;}.cls-17{fill:#c3c3c3;}.cls-18{fill:#232323;}.cls-19{fill:#f2f2f2;}.cls-20{fill:#cbcbcb;}.cls-21{fill:#fdfdfd;}</style></defs><g id="Layer_2" data-name="Layer 2"><g id="Layer_1-2" data-name="Layer 1"><g id="icon"><rect class="cls-1" width="16" height="16" rx="3"/><path class="cls-2" d="M5.25,10.14a.37.37,0,0,1,.24.2c.06.09.12.16.24.11s0-.14,0-.23c0-.28,0-.53-.42-.56-.18,0-.18-.26-.19-.43a5.52,5.52,0,0,0-.06-.81,2.05,2.05,0,0,0-.53-1,.93.93,0,0,1-.3-1c0-.08.07-.15.16-.11a.12.12,0,0,1,.06.19c0,.07-.14.13,0,.22s.18,0,.29,0,.29,0,.44,0,.13-.17.13-.28c.21,0,.2.2.33.27a.64.64,0,0,0,.11.42h0l0,.1c0,.09.22.1.08.19s-.07.25-.06.38,0,.23,0,.34.13.21.07.31,0,.2.16.22-.17.13-.14.25c-.19.25.09.83.43.92V10s-.14,0,0,.06a.71.71,0,0,0,.26.06l.12,0c.06.09.17.1.26.14l.25.09a3.05,3.05,0,0,0,.75.77c.1.26-.18.15-.25.26a1.53,1.53,0,0,0-.3,0c-.21,0-.43.18-.64,0s-.07-.25-.21-.19,0,.2,0,.3l-.09.05H6.24l0-.12c.16,0,.18-.11.09-.23a.32.32,0,0,0-.36-.15l-.17-.08a.16.16,0,0,0-.2-.12c0-.21-.22-.13-.26-.27s0-.1,0-.13Z"/><path class="cls-3" d="M10.45,6.67c-.11,0-.22,0-.12.18s.34.38.37.66a.53.53,0,0,1,0,.28h-.12l-.14-.06-.1,0a.46.46,0,0,0-.17-.31l0-.29a.73.73,0,0,1-.42.16.24.24,0,0,0-.37,0c-.07.1.09.17.17.23a.13.13,0,0,1-.05.12s-.07,0,0,.07,0,.16-.08.2c0-.19-.11-.17-.24-.1S8.9,8,8.78,8l-.32.13c-.15,0-.21.08-.28.17s-.42-.07-.56.16H7.55c0-.2-.13-.09-.21-.06l-.17.08c-.1-.11-.11-.34-.35-.2l-.27-.32c0-.29-.27-.4-.38-.62A2.55,2.55,0,0,1,6,7c.07-.14.1-.26-.08-.34a.22.22,0,0,0,0-.09.58.58,0,0,1-.27-.49l0-.12a1.73,1.73,0,0,1,.11-.71c.06-.16-.19-.54-.36-.56,0,0,0,.07-.05.11l-.07,0L5.16,4.6l.09-.06a.23.23,0,0,0,.11-.27,1.76,1.76,0,0,1,0-.91l0-.14a.77.77,0,0,0,.3-.32.79.79,0,0,0,.6-.1.82.82,0,0,1,.65-.09,1.35,1.35,0,0,0,1.18,0l.06,0c.17.19.31.22.38-.08,0,0,0,0,0,0A1.1,1.1,0,0,0,9,2.82h.19c.12,0,.19-.09.3-.09,0,.5.33.87.47,1.31s.43.69.44,1.13c-.12,0-.21-.15-.35-.11-.29-.09-.51-.22-.38-.62a.9.9,0,0,0-.32.27c-.12.12-.32.16-.37,0S8.78,4.22,8.82,4s-.07-.15-.16-.09c-.24.15-.55,0-.79.14l-.06-.06a.42.42,0,0,0-.52-.14.67.67,0,0,1-.47,0c-.26-.16-.35,0-.49.15.07.1.26,0,.23.2s-.17,0-.25.07-.2,0-.28.09-.16.17,0,.21a.52.52,0,0,1,.3.26c.07.11.2.22.34,0s.08-.1.13-.08a1.92,1.92,0,0,0,.86,0c.2,0,.26.1.26.28s-.11.25-.27.24a.9.9,0,0,1-.39-.13c-.13-.06-.28-.2-.42,0s-.24.24-.39,0c0,0-.13-.11-.2,0a.24.24,0,0,0-.08.2.12.12,0,0,0,.15.13c.15,0,.19.13.27.2s.4.3.57.08.28-.15.44-.16l.06.19H7.57c-.12.06-.23.16-.16.27s.14-.06.22-.08l.27-.08c0,.05,0,.11.07.14.09.33.25.1.39.06s-.06.22.09.27.14,0,.14,0,.2-.2.22-.35L9,5.55l0-.1c0-.12,0-.15-.13-.11v0c0-.24.21-.2.34-.23s.26.05.31.2-.14.08-.1.22a1.2,1.2,0,0,0,.24.57c.07.34.3.36.58.29S10.43,6.55,10.45,6.67Z"/><path class="cls-4" d="M6.89,12.16c-.12,0-.18-.08-.25-.14a.47.47,0,0,0-.16-.42c0-.1-.09-.24,0-.3s.13.14.21.19.43,0,.64,0a1.53,1.53,0,0,1,.3,0h0c-.1.1,0,.24,0,.29-.23.26-.06.51,0,.76,0,.07,0,.14.12.1s.35,0,.52.09-.07.18,0,.27.09.31-.16.28-.32.17-.51.11h0c0-.08,0-.16-.09-.2a.07.07,0,0,0,0-.06V13c0-.15,0-.32-.2-.33-.07-.16-.06-.4-.33-.39C7,12.19,7,12.15,6.89,12.16Z"/><path class="cls-5" d="M10.08,5.06l-.1.11-.39.09c-.05-.15-.14-.25-.31-.2s-.34,0-.34.23l-.59,0c0-.14-.1-.35-.21-.35S8,5.14,8,5.28s-.26.16-.39.26-.3,0-.44.16-.39.06-.57-.08-.12-.21-.27-.2a.12.12,0,0,1-.15-.13.24.24,0,0,1,.08-.2c.07-.08.16,0,.2,0,.15.21.28.14.39,0s.29-.07.42,0a.9.9,0,0,0,.39.13c.16,0,.27,0,.27-.24s-.06-.3-.26-.28a1.92,1.92,0,0,1-.86,0s-.1,0-.13.08-.27.07-.34,0A.52.52,0,0,0,6,4.49c-.13,0-.07-.16,0-.21s.19,0,.28-.09.22.14.25-.07-.16-.1-.23-.2c.14-.14.23-.31.49-.15a.67.67,0,0,0,.47,0,.42.42,0,0,1,.52.14L7.87,4c.24-.19.55,0,.79-.14.09-.06.17-.06.16.09s.13.5.19.74.25.14.37,0a.9.9,0,0,1,.32-.27C9.57,4.84,9.79,5,10.08,5.06Z"/><g id="x0OTbm"><path class="cls-6" d="M10.75,9v.1c-.1,0-.09.1-.08.16a.61.61,0,0,1-.15.55c-.11.11-.22.3-.06.44s.07.19,0,.22c-.26.06-.2.18-.08.33s.27.18.33.34-.4.42-.12.71c0,0-.09,0-.07.07s0,0,.08,0h0l0,.05s0,.06,0,.06,0,0,0-.06c.15,0,.29.07.37,0-.11,0,0,.42-.35.23a.07.07,0,0,0-.1.06c-.06.18-.15.11-.26.05s-.2-.05-.18.09-.09.09-.15.11-.11-.13-.17,0h0c-.3.06-.34,0-.28-.38-.11.17-.19.11-.29.08s-.25-.11-.38,0h0c0-.14-.19-.09-.21-.21s.1,0,.09-.07-.08-.08-.14-.08-.12,0-.2,0-.14-.19-.24-.25a.08.08,0,0,1,0-.14c.06,0,.17-.12.08-.17s-.16-.29-.37-.19a.06.06,0,0,1,0,0c0-.18,0-.31-.22-.35s-.24-.13,0-.29c-.11,0-.16-.08-.22,0s-.15,0-.22,0v0l0,0s0-.06,0-.08l0,.06A.16.16,0,0,1,7,10.27c0-.24,0-.5.39-.58-.2,0-.2,0-.12-.17a.1.1,0,0,0,0-.09c-.07-.14-.06-.14.07-.13s.15,0,.15,0,.05-.3.2-.39c-.14-.09,0-.14,0-.2s.17,0,.19.15a.43.43,0,0,0,.23.31c.14.09.2-.14.26,0s.34.08.51.08a0,0,0,0,1,0,0s-.11.07-.06.16,0-.1.06-.15l0,.05c0,.06,0,.13.06.17s.13.17.19,0h.11s0,.14.07.1.28,0,.42,0a.45.45,0,0,0,.52-.55l0-.05,0,0,0,.07a.32.32,0,0,1-.32-.16l0-.05,0,0,0,.07c-.09,0-.12-.15-.23-.06s-.14.09-.16,0-.08-.17,0-.24a.49.49,0,0,1,.4-.11c.05,0,.11,0,.14,0S10,8.35,10,8.32a.31.31,0,0,0-.23,0,1.72,1.72,0,0,1-.64,0,.3.3,0,0,1,.27-.1h0l.06-.37a.24.24,0,0,1,.26-.06c.17.08.11-.17.24-.15l0,0c-.09,0-.1.09-.18.07s-.05-.16-.07-.24-.08-.11,0-.14.09,0,.12.07.12,0,.14,0,.14,0,.2,0c.22.2.37.49.72.52l.06.12a4,4,0,0,0-.08.48C10.78,8.64,10.56,8.78,10.75,9Zm-1.1,3.43s0,0,0,0h0l0,0v0h0ZM9.53,8.12l0,0h.06Z"/><path class="cls-7" d="M8.85,12.17c.13-.09.26,0,.38,0s.18.09.29-.08c-.06.39,0,.44.28.38v.16l0,0,0,0c.06-.06.06-.11,0-.16s.1,0,.17,0,.17.06.15-.11.07-.16.18-.09.2.13.26-.05a.07.07,0,0,1,.1-.06c.32.19.24-.23.35-.23-.08.07-.22,0-.37,0h0a.1.1,0,0,0-.1-.05h0v-.1c-.28-.29.05-.48.12-.71l.2.08c0,.14.12.12.21.05l.12,0v0l0,0a4.7,4.7,0,0,1,.9.28c0,.12.1.18.16.26s.09,0,.11,0-.08.18-.22.12S12,12,12,12c0,.31-.19.17-.31.18s-.22,0-.2.06,0,.3.23.23c-.25.21-.53.31-.75.48s-.36.13-.37.35c0,0,0,0,0,.06a.39.39,0,0,0-.21.21s-.09,0-.11.08h0s0,0,0,0l-.1.17a.71.71,0,0,0-.26.07c-.09.05-.24.09-.15.25l0,.1c-.08,0-.12.05-.16.11s-.12.17-.25.1h0c0,.15-.24.1-.22.27-.13-.11-.21-.06-.26.08a.25.25,0,0,1,0,.09s0,.14-.08,0-.18,0,0-.1,0-.06,0-.08-.05.06-.07,0-.25.22-.3-.06.28-.49.54-.64a1.41,1.41,0,0,0,.31-.21l.06,0c0,.08,0,.19.12.13s.24-.1.14-.26l.1-.1c.13.07.08-.06.11-.09s.31-.06.35-.25c0,0,.06-.1.1-.12s-.11-.09,0-.2-.09,0-.1,0-.2,0-.24-.08-.17-.14-.25-.26c0,.19-.08.22-.25.18s-.13-.21-.27-.19H9c0-.08-.07-.15-.17-.07s-.19.13-.28,0c.08-.17.19-.35-.09-.43A.44.44,0,0,0,8.41,12c-.16-.24-.44-.37-.57-.63l0,0s.16,0,.17-.06-.06-.14-.14-.18l0-.09c.21-.1.24.13.37.19s0,.13-.08.17a.08.08,0,0,0,0,.14c.1.06.1.25.24.25s.13,0,.2,0c-.13.1,0,.11.05.15s.21.07.21.21l-.07,0,0,0A.1.1,0,0,0,8.85,12.17Zm1.45.35,0,0,0,0,0,0Zm0-.12v0h0v0Z"/><path class="cls-7" d="M3.88,3.15l.05-.07c0-.05,0,0,0,0s-.1-.13-.07-.23c.16.1.27-.1.42-.05a.51.51,0,0,0,.57-.17c-.19-.09-.37,0-.52,0s.1-.22,0-.33l.29-.1s0,.08,0,.11.06,0,.08,0,.08-.09.15-.06.27,0,.38-.1.18,0,.23.12.15.17.25.11.19-.14.11-.28l0-.06h.16c0,.07,0,.14,0,.19s-.05.11,0,.18.22.11.26,0a.27.27,0,0,0,0-.37c.15-.1.31-.19.49,0l0-.2.17,0v.29s-.06.06,0,.08.05,0,.06,0l.24,0c.13,0,.27,0,.14-.2,0,0,0-.1,0-.14.17-.08.33-.17.52-.06,0,0,0,.07,0,0s.1,0,.15.06,0,0,.06,0h.08l.22.09L8.18,2c0,.07-.28,0-.2.18,0,0-.12,0-.11,0C7.9,1.9,7.71,2,7.6,2s-.09-.15-.16,0,.09.07.09.14h0c-.25,0-.28.17-.16.37l.16.17c0,.07-.08.07-.13.07l-.13,0h0A.25.25,0,0,0,7,2.51c-.1.05,0-.24-.15-.1l-.06,0c-.12-.08-.13-.07-.21.17a.67.67,0,0,0-.37.26c-.24-.11-.39.07-.57.16s-.09,0-.09,0c0-.23-.14-.23-.31-.18H5c0,.1.13.11.2.16S5,3,4.91,3c.14,0,.17.14,0,.22s-.09,0-.09.07.07.06.12.07l.17.05c.14.22.09.38-.16.49a.3.3,0,0,0,.32,0s.1.05.05.11-.2,0-.26.1S4.73,3.91,4.48,4l.26-.13c-.13,0-.2,0-.26,0a1,1,0,0,1-.64.11c-.09,0-.13.09-.1.17s0,.21-.1.25c-.16-.14,0-.29,0-.43.18-.1,0-.12,0-.16a.59.59,0,0,1,.16-.58S3.84,3.2,3.88,3.15Zm.29.56a2.18,2.18,0,0,0,.72,0c.13,0,.11-.08,0-.14L4.6,3.4c-.11-.08-.16-.08-.18.08A.24.24,0,0,1,4.17,3.71Z"/><path class="cls-7" d="M9.11,8.31a1.72,1.72,0,0,0,.64,0,.31.31,0,0,1,.23,0s.14,0,.1.12-.09,0-.14,0a.49.49,0,0,0-.4.11c-.1.07,0,.17,0,.24s.1.07.16,0,.14.09.23.06h0a.32.32,0,0,0,.32.16h0a.45.45,0,0,1-.52.55c-.14,0-.27-.1-.42,0s-.06-.06-.07-.1.07-.12.12-.17.32,0,.41.2.08,0,.12-.06-.09-.21,0-.36c-.1.08,0,.19-.15.21s-.07-.12-.06-.17c.07-.2-.12-.16-.19-.18s-.12.06-.11.16,0,.07-.09.08S9,9,8.85,9.21c-.17,0-.36.13-.51-.08s-.12.14-.26,0a.43.43,0,0,1-.23-.31c0-.14-.13-.1-.19-.15s-.17.11,0,.2c-.15.09-.14.26-.2.39s-.09,0-.15,0-.14,0-.07.13a.1.1,0,0,1,0,.09c-.08.15-.08.15.12.17C7,9.77,7,10,7,10.27A3,3,0,0,1,6.31,10l.22,0a.11.11,0,0,0,.18,0s0-.1,0-.15-.11,0,0-.08c-.11-.07,0-.31-.26-.27h0c0-.09,0-.21-.16-.2l-.06-.16c0-.2.16-.39,0-.59h0c.09-.22-.1-.24-.21-.31S5.83,8,5.82,7.81s0-.09,0-.13.07-.18.2-.17.09.15.09.26S6,7.9,6.11,8s.13-.08.2-.1,0-.14.13-.16h0a.17.17,0,0,0,0,.17L6.6,7.8v.14S6.52,8,6.5,8s0,0,0,.07.09,0,.1,0,.12,0,.13.07c0,.22.21.28.36.38v.11s-.06.06-.08,0,0-.17-.16-.09-.12.06-.09.13.07.12.19.13a.62.62,0,0,0,.44-.17c.08-.11.24,0,.32-.14h.1a.85.85,0,0,1,.06.17c0,.21.13.3.32.1l.33.21c0-.2.09-.28.22-.37a2.43,2.43,0,0,0,.3-.26ZM6.59,9c0,.31.22.52.14.82.15-.07.36-.09.24-.26s0-.21.08-.29.06-.17,0-.26S7,8.91,7,9C6.86,9.2,6.73,9.1,6.59,9ZM6.1,8.12l0,0,0,0,0,0S6.1,8.13,6.1,8.12Z"/><path class="cls-8" d="M5.35,12.09l0,0c0-.09.07-.23-.1-.23s-.16.06-.11.18-.1.09-.18,0-.29,0-.31.17c-.31-.14-.11-.31,0-.46s.19-.09.15-.23-.2,0-.28-.08.1-.09.09-.09c-.16,0-.08-.19-.17-.24l.27-.52c.07,0,.06-.14.16-.1a.21.21,0,0,1,.16.23c0,.22.09.34.3.43s.15-.19.28-.09h0c.09.21-.14.41,0,.64l.24-.43c.09,0,.19.05.25,0,.25-.05.13.14.16.23s0,.16,0,.23a2.54,2.54,0,0,1,.17.46s-.08,0-.07.09a0,0,0,0,0,0,0c.06,0,.05,0,.06-.08s.14.15.27.05,0,.09.1.1.09.2.17.26.29.23.15.43c.08.1.23,0,.27.14s0,0,0,0,.12-.06.18,0a.47.47,0,0,1,.14.33l0,0c-.09-.15-.14.2-.23,0s-.39-.13-.56-.24l0,.12c-.13,0-.17-.28-.38-.17-.06-.2-.26-.06-.34-.13a2.81,2.81,0,0,1-.44-.33.13.13,0,0,0,.09-.2c0-.1-.13,0-.2-.06l.06-.11,0,0h0l0-.07a.22.22,0,0,0,.16-.21C5.6,12.19,5.5,11.87,5.35,12.09Z"/><path class="cls-9" d="M3.64,4.36c.13,0,.16-.12.1-.25s0-.19.1-.17a1,1,0,0,0,.64-.11c.06,0,.13,0,.26,0L4.48,4c.25,0,.41.17.62.18,0,.12,0,.22,0,.34s0,.17.14.06v.06c-.25.14-.07.3-.06.49.13-.11.14-.31.32-.31,0,0,0,0,0,0a3.12,3.12,0,0,0-.07,1.1c-.16,0-.37-.1-.57,0a.3.3,0,0,1-.21,0c0-.07,0-.14,0-.2s.06-.11,0-.15-.1,0-.14,0-.19.16-.33.15a.2.2,0,0,1-.09,0,.21.21,0,0,1,0-.06c.36-.2,0-.26-.1-.36.09-.06.25.06.24-.09s-.11-.11-.21-.07S4,5.1,4,5.05s-.12-.21-.27-.18l0-.08h0c0-.11.39-.24,0-.33ZM5,5.3c0,.17,0,.28.09.33s0-.12.12-.12S5.09,5.41,5,5.3Zm-.34.1a.32.32,0,0,0,.23.09C4.87,5.34,4.8,5.34,4.68,5.4ZM5,5.65v0s0,0,0,0Z"/><path class="cls-10" d="M5.57,12.54c.07,0,.17,0,.2.06a.13.13,0,0,1-.09.2c-.15,0-.19.1-.21.22l-.16,0c-.15,0-.17.2-.28.16.06-.05.17.13.28,0h.08a5.65,5.65,0,0,1,.94.5c0,.16.09.06.15.06h0c0,.14-.13.24-.08.38-.23.06-.45,0-.68,0-.06,0-.13,0-.14-.09v-.1c0-.4-.2-.53-.58-.44-.07,0-.17.12-.21.06a.68.68,0,0,1,0-.32c0-.08.16-.17.07-.22s-.22-.23-.41-.25-.19.1-.2-.07a2,2,0,0,1,.56-.19c0,.07.06,0,.08,0l.25,0c0,.1-.25.13-.07.28.07-.2.16,0,.24,0s0,.15.14.15.08-.12.11-.13S5.43,12.52,5.57,12.54Z"/><path class="cls-10" d="M10.55,13.39s0-.05,0-.06.15.05.2,0,.22-.23.32-.19.31.07.32-.17l0,0c.14,0,.18-.09.23-.2a.21.21,0,0,1,.18-.12c.17,0,.38,0,.37-.29,0-.07,0-.08.11,0s.2,0,.19,0c0-.29.23-.3.36-.42s.15-.15.13,0,.06.28,0,.43a.37.37,0,0,1-.32.28.53.53,0,0,0-.43.3c-.1.17-.22.12-.34-.06,0,.19,0,.4-.21.45,0,0,0,.06,0,.09,0,.18,0,.17-.15.16a.2.2,0,0,0-.15.08c-.05.1-.16.09-.24.14h0a.27.27,0,0,0-.46-.08c-.11.13-.23.07-.33.13h-.17s0,0,0,0h0c0-.06.07-.06.11-.08S10.56,13.54,10.55,13.39Z"/><path class="cls-11" d="M7.69,13.49a.47.47,0,0,0-.14-.33c-.06-.07-.1-.16-.18,0s0,.08,0,0-.19,0-.27-.14c.14-.2,0-.31-.15-.43s-.19-.12-.17-.26,0-.16-.1-.1-.17-.07-.27-.05l0,0a2.54,2.54,0,0,0-.17-.46c0-.07-.12-.15,0-.23a2.14,2.14,0,0,0,.48.28.3.3,0,0,1,.23.33c0,.21.14.26.3.26s.2.06.25.2.25.47.37.71.11.12.2.08,0,0,.07,0c.32,0,.53-.09.43-.48,0-.07.05-.14.08-.21.09.14.19.06.28,0l-.06.26a1.37,1.37,0,0,0-.16.52,2.78,2.78,0,0,0-.64.06c-.14,0-.1.11-.1.2S7.83,13.45,7.69,13.49Z"/><path class="cls-8" d="M12.92,11.8c-.13.12-.39.13-.36.42,0,.07-.1.12-.19,0s-.11,0-.11,0c0,.26-.2.27-.37.29a.21.21,0,0,0-.18.12c-.05.11-.09.2-.23.2l0,0c0,.24-.12.23-.32.17s-.25.06-.32.19-.11.14-.2,0,.24-.25.37-.35.5-.27.75-.48c-.27.07-.14-.16-.23-.23s.06,0,.2-.06.34.13.31-.18c0-.07.12-.09.18-.07s.16-.05.22-.12h.07C12.61,11.54,12.77,11.71,12.92,11.8Z"/><path class="cls-10" d="M8.64,13.38a1.37,1.37,0,0,1,.16-.52c.07,0,.09.05.2.09-.09-.13-.08-.22,0-.28H9c0,.11,0,.22,0,.33s.29.35.36.31c.26-.19.5-.07.75,0,0,.19-.27.12-.35.25s-.1-.06-.14,0,0,.06,0,.09l-.1.1-.15,0H9.32s.07-.17-.09-.08a.62.62,0,0,1-.45.13A.42.42,0,0,0,8.64,13.38Zm.44,0c0,.14-.21.16-.12.31s0,0,.08,0S9.17,13.48,9.08,13.34Z"/><path class="cls-12" d="M10.12,5.06a.19.19,0,0,1,.29,0,.29.29,0,0,1,.12.33c0,.12-.07.24-.1.37s-.21-.13-.21.09-.1.1-.17.08-.21.06-.2.2a.84.84,0,0,1-.25-.46,1.82,1.82,0,0,0-.14-.28l.44-.2c.08.1,0,.16-.06.24C10.17,5.46,10.14,5.26,10.12,5.06Z"/><path class="cls-10" d="M5.53,11.06c-.13-.1-.13.14-.28.09s-.32-.21-.3-.43a.21.21,0,0,0-.16-.23c-.1,0-.09.1-.16.1,0-.37.32-.66.59-.63,0,.18-.16.41.13.52.13,0,.15.18.23.27Z"/><path class="cls-11" d="M3.73,4.87c.15,0,.25,0,.27.18s0,.14.12.1.21-.07.21.07-.15,0-.24.09c.15.1.46.16.1.36a.21.21,0,0,0,0,.06.2.2,0,0,0,.09,0c.14,0,.22-.1.33-.15s.08-.08.14,0,0,.1,0,.15,0,.13,0,.2l-.31.12a.4.4,0,0,0-.27-.11c0,.08.11.14,0,.21a2.3,2.3,0,0,1-.27-.89c0-.13-.15-.23-.14-.38Z"/><path class="cls-11" d="M4.89,5.92c.2-.11.41,0,.57,0a3.12,3.12,0,0,1,.07-1.1c.18-.11.22.07.19.14s0,.34,0,.51v.11c-.17.13-.1.28,0,.43s-.08.29,0,.41a.41.41,0,0,0-.22,0,.51.51,0,0,1-.32-.26A1.14,1.14,0,0,0,4.89,5.92Z"/><path class="cls-13" d="M10.33,10.75c-.12-.15-.18-.27.08-.33.11,0,.2-.09,0-.22s0-.33.06-.44a.61.61,0,0,0,.15-.55c0-.06,0-.14.08-.16a3.16,3.16,0,0,0,0,.75c0,.07.08.25-.09.33s0,.15,0,.23.09.23-.14.17S10.35,10.62,10.33,10.75Z"/><path class="cls-14" d="M7.84,11.38c.13.26.41.39.57.63a.44.44,0,0,1,.08.15c.11.15-.12.19-.11.31-.15,0-.14-.18-.21-.27s0-.09,0-.13,0-.11-.08-.11S8,12,8,12.06s0,.21,0,.33.13,0,.06.09-.11,0-.17,0-.15-.4-.1-.43.09-.2,0-.32S7.66,11.48,7.84,11.38Z"/><path class="cls-13" d="M10.1,7.38c-.06,0-.11-.14-.2,0s-.1.06-.14,0,0-.13-.12-.07,0,.09,0,.14.05.16.07.24.09-.12.18-.07l0,0c-.13,0-.07.23-.24.15a.24.24,0,0,0-.26.06c-.1,0-.18,0-.27-.06s.18-.09.26-.16.11-.07.09-.14-.1,0-.15,0l-.13,0c-.06,0-.11,0-.13-.06s0-.09.07-.12.23-.12.31-.23h0c.36.22.4.22.69,0l0,0a.2.2,0,0,0,0,.15s-.08,0-.07.11Z"/><path class="cls-8" d="M7.53,2.08c0-.07-.13-.05-.09-.14s.1,0,.16,0,.3-.07.27.18c0,0,.11,0,.11,0-.08-.22.15-.11.2-.18l.13-.14c.12,0,.29-.13.39.08,0,0-.21-.06-.1.07s.07.31.09.46H8.63l-.1-.15c0-.19,0-.2-.24-.19l.14.19s.08.07,0,.09-.16-.15-.29-.23A.67.67,0,0,1,8,2.55c-.07-.08-.16.1-.23,0,.24-.17,0-.28,0-.49l-.15.21C7.56,2.2,7.62,2.11,7.53,2.08Z"/><path class="cls-11" d="M8.05,6c-.11-.18-.21-.2-.36,0a.24.24,0,0,1-.3.1c0-.27.28-.35.37-.59s.45-.26.73-.23c-.06.17-.25,0-.31.11s.16.17.07.31,0,.07-.08.1A.3.3,0,0,0,8.05,6Z"/><path class="cls-15" d="M9.17,7.78c.09,0,.17.11.27.06l-.06.37h0a.3.3,0,0,0-.27.1h0a.27.27,0,0,0-.4-.08l-.42.24H8.2a.73.73,0,0,1,.7-.54C9.06,7.93,9.05,7.76,9.17,7.78Z"/><path class="cls-15" d="M8.69,2.45c0-.15,0-.31-.09-.46s.06,0,.1-.07c.36.06.44.45.74.62a.44.44,0,0,1-.27.12c-.06,0-.08-.14-.16-.09S8.77,2.56,8.69,2.45Z"/><path class="cls-11" d="M8.5,6.1l0-.08v-.1c0-.1.14-.06.14-.16a.82.82,0,0,0-.17-.11c-.06,0-.14,0-.11-.08s.07-.07.15-.06c.25,0,.29,0,.26-.26a.42.42,0,0,1,.37.08A1.1,1.1,0,0,1,8.5,6.1Z"/><path class="cls-7" d="M8.22,14.34c0,.13,0,.22-.17.13-.36-.23-.77-.35-1.13-.59,0,0-.08,0-.12,0a.18.18,0,0,0-.17-.1c0-.08-.1,0-.15-.06h0c0-.07-.08-.06-.11-.1v0a11.89,11.89,0,0,1,1.48.62Z"/><path class="cls-10" d="M4,11.58c-.21,0-.3.11-.34.27a.14.14,0,0,0,.18,0s.06-.1.12-.1a.36.36,0,0,1,.23,0,.21.21,0,0,1,0,.06c-.07.05-.16.05-.21.13-.1-.16-.12,0-.17.05s-.15.19-.22.28-.22,0-.32,0c.15-.25.17-.58.48-.71C3.85,11.48,3.9,11.52,4,11.58Z"/><path class="cls-6" d="M8.75,5.25c0,.27,0,.31-.26.26-.08,0-.13,0-.15.06s.05.07.11.08a.82.82,0,0,1,.17.11c0,.1-.15.06-.14.16L8.43,6c-.12.1-.23.28-.38,0a.3.3,0,0,1,.12-.22s.05-.07.08-.1-.15-.22-.07-.31.25.06.31-.11A.33.33,0,0,1,8.75,5.25Zm-.37.54h0v0l0,0Z"/><path class="cls-12" d="M5.15,3.45,5,3.4c-.05,0-.12,0-.12-.07s0-.05.09-.07.1-.17,0-.22c.09-.09.23,0,.28-.11S5,2.87,5,2.77h.2c.17,0,.3,0,.31.18,0,0,.06,0,.09,0v.1c-.06,0-.12,0-.12.1l-.07.07c-.14,0-.21.06-.24.2Z"/><path class="cls-8" d="M6.44,7.7c-.09,0,0,.14-.13.16S6.2,8,6.11,8s0-.12,0-.19,0-.2-.09-.26c.06-.19-.09-.21-.21-.25s-.09-.12-.06-.2S6,7.15,6,7s0-.23,0-.34a.4.4,0,0,1,.1.42c0,.12,0,.17.08.21S6.36,7.57,6.44,7.7Z"/><path class="cls-16" d="M8.37,14.75c.05.28.22-.09.3.06s0-.11.07,0,.06.06,0,.08,0,.08,0,.1.06,0,.08,0a.25.25,0,0,0,0-.09c.05-.14.13-.19.26-.08v.08c-.14.08-.2.25-.37.31a.31.31,0,0,1-.4-.08A.2.2,0,0,1,8.37,14.75Z"/><path class="cls-8" d="M9.85,6.09c0-.14,0-.25.2-.2s.17,0,.17-.08.14-.08.21-.09v.21c-.09,0-.11.08-.09.15s0,.29-.23.3A.44.44,0,0,1,9.85,6.09Z"/><path class="cls-15" d="M8.5,6.1a1.1,1.1,0,0,0,.62-.77c0,.06.11,0,.07,0a1.82,1.82,0,0,1-.41.68c-.11.09-.12.28-.28.27Z"/><path class="cls-17" d="M10.27,13.69h.17c0,.07.15.11,0,.21a.22.22,0,0,0-.12.27c0,.16-.21.14-.33.16a.74.74,0,0,1-.27-.06l0-.1c.24,0,.33-.14.41-.32Z"/><path class="cls-11" d="M4.76,12.45a2,2,0,0,0-.56.19l-.1,0v-.14a4.24,4.24,0,0,1,.79-.15s0,0,0,0,0,0,0-.07.29,0,.37-.12c.08,0,0,.07.06.11l-.06.1c-.07,0-.14.06-.22,0l-.25,0Z"/><path class="cls-8" d="M4.27,2.21c.13.11,0,.21,0,.33s.33,0,.52,0a.51.51,0,0,1-.57.17.66.66,0,0,0-.14-.26c0-.1,0-.14.1-.15h0a0,0,0,0,0,0-.07S4.23,2.22,4.27,2.21Z"/><path class="cls-14" d="M6.21,2a.27.27,0,0,1,0,.37c0,.06-.18,0-.26,0s-.12-.11,0-.18,0-.12,0-.19.17-.1.27-.07S6.15,1.94,6.21,2Z"/><path class="cls-7" d="M7.15,10.34c.07,0,.14,0,.22,0s.11.07.22,0c-.19.16-.12.25,0,.29s.25.17.22.35c-.2-.1-.42-.19-.47-.43S7.18,10.46,7.15,10.34Z"/><path class="cls-14" d="M5.74,5.46c0-.17-.09-.33,0-.51s0-.25-.19-.14c0,0,0,0,0,0v-.1a.36.36,0,0,1,.36.49C5.84,5.26,5.91,5.42,5.74,5.46Z"/><path class="cls-8" d="M7.69,13.49c.14,0,.14.1.21.15a1.3,1.3,0,0,0,.38.49v.06L8,14.12c0-.12-.21-.07-.24-.2s-.14-.24-.12-.39Z"/><path class="cls-10" d="M4.36,11.11c.09.05,0,.22.17.24,0,0-.1,0-.09.09s.24-.12.28.08,0,.18-.15.23C4.27,11.65,4.2,11.45,4.36,11.11Z"/><path class="cls-11" d="M8.53,2.3l.1.15c0,.22-.21,0-.27.14s0,0,0,0v0h0v0c-.12.14-.23.1-.34,0a.67.67,0,0,0,.11-.39c.13.08.15.25.29.23s0-.06,0-.09Z"/><path class="cls-13" d="M10.82,7.9c-.35,0-.5-.32-.72-.52l0,0c.08,0,.13,0,.19.06s.14.23.28.24S10.82,7.74,10.82,7.9Z"/><path class="cls-8" d="M7.23,1.74s0,.11,0,.14c.13.2,0,.2-.14.2l-.24,0,0,0V1.78C7,1.67,7.1,1.73,7.23,1.74Z"/><path class="cls-8" d="M7.43,8.59A.62.62,0,0,1,7,8.76c-.12,0-.16,0-.19-.13s0-.09.09-.13.12,0,.16.09.06,0,.08,0,.1,0,.07-.11.12,0,.18-.07a0,0,0,0,0,0,0c0,.05,0,.12.06.14Z"/><path class="cls-14" d="M9.13,14.84v-.08c0-.17.22-.12.22-.27h0c.13.07.17-.07.25-.1s-.05.41-.13.38S9.24,14.83,9.13,14.84Z"/><path class="cls-12" d="M5.25,4.53c-.1.11-.16,0-.14-.06s0-.22,0-.34S5.27,4,5.36,4s-.09.2,0,.32A.13.13,0,0,1,5.25,4.53Z"/><path class="cls-18" d="M6,6.66c0,.11-.11.19,0,.34s-.15,0-.2.06c0-.15-.07-.29-.1-.44l.13-.14h.06s0,.08,0,.11.06,0,.09,0Z"/><path class="cls-16" d="M8.36,2.59c.06-.11.27.08.27-.14h.06c.08.11.15.24.32.12s.1.08.16.09,0,.17-.08.13C8.86,2.64,8.59,2.7,8.36,2.59Z"/><path class="cls-13" d="M8.28,14.13a1.3,1.3,0,0,1-.38-.49c0-.09,0-.19.1-.2a1,1,0,0,0,.18.42C8.22,13.94,8.32,14,8.28,14.13Z"/><path class="cls-10" d="M10.11,6.38c.2,0,.29-.09.23-.3s0-.14.09-.15,0,.06,0,.08c.2.3,0,.43-.23.59C10.11,6.55,10.16,6.44,10.11,6.38Z"/><path class="cls-13" d="M5.35,10.48c-.29-.11-.14-.34-.13-.52.06,0,0-.16.14-.1s0,.11,0,.16A.8.8,0,0,0,5.35,10.48Z"/><path class="cls-13" d="M10.75,9c-.19-.17,0-.31.05-.45A4,4,0,0,1,10.88,8a.28.28,0,0,1,.06.32A6.17,6.17,0,0,0,10.75,9Z"/><path class="cls-16" d="M5.31,3.92a.3.3,0,0,1-.32,0c.25-.11.3-.27.16-.49h0c.1,0,.15-.07.22-.1Z"/><path class="cls-12" d="M5.52,4.67v.1c-.18,0-.19.2-.32.31,0-.19-.19-.35.06-.49C5.32,4.68,5.42,4.67,5.52,4.67Z"/><path class="cls-16" d="M8.2,8.47h.06l0,.1,0,0a.09.09,0,0,0,0,.11c-.19.2-.27.11-.32-.1a.85.85,0,0,0-.06-.17c.05-.06.12-.14.15,0s0,.19.07.21S8.14,8.53,8.2,8.47Z"/><path class="cls-16" d="M6.37,9.52c.23,0,.15.2.26.27-.07.07,0,.05,0,.08s.09.1,0,.15a.11.11,0,0,1-.18,0C6.52,9.83,6.37,9.7,6.37,9.52Z"/><path class="cls-10" d="M5.84,7.26c.12,0,.27.06.21.25-.13,0-.1.16-.2.17s-.14-.17-.11-.18S5.75,7.31,5.84,7.26Z"/><path class="cls-13" d="M4.69,6.35c-.2,0-.15.28-.3.34C4.32,6.41,4.32,6.41,4.69,6.35Z"/><path class="cls-15" d="M7.53,2.08c.09,0,0,.12.08.17L7.76,2c0,.21.26.32,0,.49H7.64l0-.13v0l0,0H7.53V2.08Z"/><path class="cls-16" d="M6.21,2c-.06,0,0-.08,0-.12a.36.36,0,0,1,.47-.11l0,.2C6.52,1.78,6.36,1.87,6.21,2Z"/><path class="cls-16" d="M4.11,2.5a.66.66,0,0,1,.14.26c-.15,0-.26.15-.42.05A.76.76,0,0,1,4.11,2.5Z"/><path class="cls-9" d="M4.1,6.15c.11-.07,0-.13,0-.21a.4.4,0,0,1,.27.11l-.17.42Z"/><path class="cls-14" d="M6.17,8.57c.14.2,0,.39,0,.59h0c0-.09.09-.2-.07-.25s0-.1,0-.13S6.15,8.65,6.17,8.57Z"/><path class="cls-14" d="M5.16,2c-.11.08-.21.24-.38.1,0-.09.08-.11.13-.15s.13-.12.18,0Z"/><path class="cls-10" d="M6.16,2.82a.67.67,0,0,1,.37-.26c0,.07.1,0,.15,0h0A.89.89,0,0,1,6.16,2.82Z"/><path class="cls-10" d="M5.37,12.28s0-.11-.06-.11l0-.08c.15-.22.25.1.39,0a.22.22,0,0,1-.16.21C5.55,12.15,5.44,12.3,5.37,12.28Z"/><path class="cls-6" d="M10.12,5.06c0,.2.05.4-.28.33,0-.08.14-.14.06-.24Z"/><path class="cls-16" d="M7.75,8.45c-.08.1-.24,0-.32.14v0c0-.05,0-.11-.06-.14a0,0,0,0,1,0,0C7.51,8.33,7.66,8.22,7.75,8.45Z"/><path class="cls-14" d="M6,8.26c.11.07.3.09.21.31C5.94,8.57,5.92,8.44,6,8.26Z"/><path class="cls-13" d="M6,11.22c-.06.1-.16,0-.25,0a.34.34,0,0,1,0-.26h0A.21.21,0,0,1,6,11.22Z"/><path class="cls-7" d="M4.88,6.72c.09,0,.15-.28.29,0l-.07.17L4.89,7Z"/><path class="cls-8" d="M5.84,11h0a.28.28,0,0,0-.29.05h0l0-.31A.47.47,0,0,1,5.84,11Z"/><path class="cls-10" d="M5.1,12c0-.12,0-.19.11-.18s.09.14.1.23S5.15,12.09,5.1,12Z"/><path class="cls-10" d="M8,14.12l.26.07c0,.05,0,.11-.06.15l-.37-.17C7.9,14.11,8,14.13,8,14.12Z"/><path class="cls-7" d="M3.68,4.45c.41.09,0,.22,0,.33C3.63,4.67,3.7,4.56,3.68,4.45Z"/><path class="cls-8" d="M12.29,11.8c-.06-.08-.15-.14-.16-.26a.25.25,0,0,1,.28.06C12.47,11.68,12.32,11.72,12.29,11.8Z"/><path class="cls-14" d="M5.72,6c-.08-.15-.15-.3,0-.43A1.25,1.25,0,0,1,5.72,6Z"/><path class="cls-14" d="M7,2.51a.25.25,0,0,1,.31.15c-.11,0-.24.07-.3-.1Z"/><path class="cls-14" d="M7.62,2.4l0,.13h0l-.06.08h0l-.16-.17.16-.06h.09Z"/><path class="cls-16" d="M7,2.51v.05c0,.08-.09.12-.17,0v-.2C7,2.27,6.85,2.56,7,2.51Z"/><path class="cls-14" d="M7.9,11.11c.08,0,.15.1.14.18s-.12,0-.17.06S7.83,11.18,7.9,11.11Z"/><path class="cls-8" d="M5.81,6.48l-.13.14s-.14-.07-.13-.18a.41.41,0,0,1,.22,0A.07.07,0,0,1,5.81,6.48Z"/><path class="cls-16" d="M6.21,9.32c.16,0,.14.11.16.2S6.16,9.47,6.21,9.32Z"/><path class="cls-14" d="M4.88,6.72V7S4.8,7,4.8,7,4.74,6.76,4.88,6.72Z"/><path class="cls-10" d="M11.34,13.75l.07,0c.05,0,.12,0,.11.1s0,.05-.07.06-.07-.06-.1-.1a.17.17,0,0,1,0-.07Z"/><path class="cls-7" d="M5.37,3.35c-.07,0-.12.11-.22.1s.1-.21.24-.2Z"/><path class="cls-13" d="M4.1,12.47v.14C4,12.68,4,12.55,4,12.53S4.05,12.45,4.1,12.47Z"/><path class="cls-17" d="M10.31,7.42c-.06,0-.11-.08-.19-.06s0-.08.07-.11S10.42,7.24,10.31,7.42Z"/><path class="cls-14" d="M6.8,2.41v.2H6.68a.16.16,0,0,1,.06-.21Z"/><path class="cls-8" d="M6.6,7.8l-.12.08a.17.17,0,0,1,0-.17C6.6,7.6,6.6,7.7,6.6,7.8Z"/><path class="cls-10" d="M11.23,13.65c0,.23-.13,0-.18.07s.12-.06.18-.07Z"/><path class="cls-14" d="M5.1,6.84l.07-.17s.08,0,.07.09S5.17,6.83,5.1,6.84Z"/><path class="cls-19" d="M6.63,13.76a.18.18,0,0,1,.17.1C6.67,13.93,6.62,13.89,6.63,13.76Z"/><path class="cls-17" d="M10.21,7.1l0,0c0-.06,0-.12.08-.19C10.21,7,10.34,7,10.21,7.1Z"/><path class="cls-11" d="M11.07,11.22c-.09.07-.17.09-.21-.05Z"/><path class="cls-8" d="M6.64,8c0,.09-.06.06-.1,0S6.47,8,6.5,8s.07,0,.11,0S6.67,8,6.64,8Z"/><path class="cls-18" d="M3.58,3.77s.22.06,0,.16S3.59,3.82,3.58,3.77Z"/><path class="cls-18" d="M3.88,3.15c0,.05-.09,0-.14,0C3.74,3,3.83,3.14,3.88,3.15Z"/><path class="cls-17" d="M9.32,13.8h.07l-.11.11-.06,0C9.22,13.83,9.27,13.82,9.32,13.8Z"/><path class="cls-16" d="M5.46,3.18c0-.09.06-.09.12-.1S5.54,3.19,5.46,3.18Z"/><path class="cls-8" d="M6,6.59s-.07,0-.09,0,0-.07,0-.11A.11.11,0,0,1,6,6.59Z"/><path class="cls-14" d="M7.2,8.46c0,.07,0,.11-.07.11V8.46Z"/><path class="cls-8" d="M7.27,2.66l.13,0c0,.05,0,.08-.09.07S7.26,2.7,7.27,2.66Z"/><path class="cls-16" d="M4.63,2.19s0,.06-.08,0,0-.07,0-.11Z"/><path class="cls-13" d="M4.94,12.29s0,.06,0,.07,0,0,0,0Z"/><path class="cls-14" d="M5.78,1.92l0,.06s0,0,0,0A0,0,0,0,1,5.78,1.92Z"/><path class="cls-16" d="M4.22,2.29a0,0,0,0,1,0,.07h0Z"/><path class="cls-7" d="M7.11,10.32l0-.06s0,.05,0,.08h0Z"/><path class="cls-10" d="M10.9,13.77h0v0h0Z"/><path class="cls-11" d="M8.09,1.75H8l0-.07Z"/><path class="cls-7" d="M3.73,4.87h0s0-.06,0-.09Z"/><path class="cls-18" d="M3.9,3s.08,0,0,0Z"/><path class="cls-16" d="M8.35,2.56v0h0v0Z"/><path class="cls-11" d="M11.23,11.26l0,0v0S11.22,11.24,11.23,11.26Z"/><path class="cls-11" d="M7.8,1.7c0,.05,0,0,0,0Z"/><path class="cls-11" d="M8,1.76s0,0-.06,0Z"/><path class="cls-8" d="M7.58,2.61l.06-.08C7.65,2.58,7.62,2.6,7.58,2.61Z"/><path class="cls-10" d="M11.34,13.76l0,0,0,0Z"/><path class="cls-14" d="M6.1,9.16v0Z"/><path class="cls-15" d="M8.43,6l.05,0V6Z"/><path class="cls-14" d="M9.34,9.32c-.05,0,0,.14-.12.17H9.17c0-.05,0-.07-.06,0h0c-.09,0-.1-.21-.25-.17l0-.05h0a0,0,0,0,0,0,0c.14-.22.29-.13.43,0A.1.1,0,0,0,9.34,9.32Z"/><path class="cls-7" d="M8.86,9.3c.15,0,.16.13.25.17s-.14,0-.19,0S8.88,9.36,8.86,9.3Z"/><path class="cls-11" d="M8.64,12c-.06,0-.18-.05-.05-.15s.12,0,.14.08S8.68,12,8.64,12Z"/><path class="cls-7" d="M8.82,9.24h0c0,.05,0,.11-.06.15S8.78,9.29,8.82,9.24Z"/><path class="cls-11" d="M10.54,11.8v.1s-.08,0-.08,0S10.51,11.81,10.54,11.8Z"/><path class="cls-15" d="M9.53,8.12l0,0H9.5Z"/><path class="cls-7" d="M10.65,12s0,.06,0,.06,0,0,0-.06h.05Z"/><path class="cls-11" d="M10.65,12H10.6l0-.05A.1.1,0,0,1,10.65,12Z"/><path class="cls-7" d="M10.23,9.05l0-.07,0,0,0,.05Z"/><path class="cls-7" d="M9.91,8.89l0-.07,0,0,0,.05Z"/><path class="cls-15" d="M9.38,8.21h0Z"/><path class="cls-7" d="M9.11,9.47c0-.06,0,0,.06,0Z"/><path class="cls-7" d="M9.65,12.38l0,0h0v0Z"/><path class="cls-7" d="M9.65,12.38l0,0h0s0,0,0,0Z"/><path class="cls-8" d="M10.1,13.35c-.25-.1-.49-.22-.75,0C9.28,13.36,9,13.1,9,13s0-.22,0-.33.13.17.27.19.23,0,.25-.18c.08.12.2.14.25.26s.1.23.24.08.14-.07.1,0,.22.1,0,.2S10.13,13.31,10.1,13.35Z"/><path class="cls-8" d="M10.17,13.86c-.08.18-.17.35-.41.32-.09-.16.06-.2.15-.25A.71.71,0,0,1,10.17,13.86Z"/><path class="cls-6" d="M9.28,13.92l.11-.11.15,0c.1.16,0,.22-.14.26S9.28,14,9.28,13.92Z"/><path class="cls-8" d="M9,12.67c-.11.06-.12.15,0,.28-.11,0-.13-.11-.2-.09l.06-.26C9,12.52,9,12.59,9,12.67Z"/><path class="cls-20" d="M10.55,13.39c0,.15-.09.19-.21.21A.39.39,0,0,1,10.55,13.39Z"/><path class="cls-17" d="M9.64,13.69s0-.08,0-.09.09,0,.14,0S9.77,13.76,9.64,13.69Z"/><path class="cls-6" d="M10.3,12.52l-.05,0,0,0,0,0Z"/><path class="cls-6" d="M9.8,12.65v-.16h0c.06,0,.06.1,0,.16Z"/><path class="cls-6" d="M8.85,12.17a.1.1,0,0,1,0,0l0,0,.07,0Z"/><path class="cls-6" d="M10.26,12.4h0v0h0Z"/><path class="cls-17" d="M10.23,13.68Z"/><path class="cls-6" d="M9.81,12.65l0,0,0,0Z"/><path class="cls-14" d="M9.34,14.49h0Z"/><path class="cls-6" d="M4.17,3.71a.24.24,0,0,0,.25-.23c0-.16.07-.16.18-.08l.32.21c.08.06.1.14,0,.14A2.18,2.18,0,0,1,4.17,3.71Z"/><path class="cls-16" d="M7.53,2.39l-.16.06c-.12-.2-.09-.34.16-.37Z"/><path class="cls-16" d="M6.74,2.39a.16.16,0,0,0-.06.21s-.11,0-.15,0C6.61,2.32,6.62,2.31,6.74,2.39Z"/><path class="cls-8" d="M6.87,2.1s0,.07-.06,0,0-.06,0-.08Z"/><path class="cls-6" d="M8.28,8.57l0-.1.42-.24a.27.27,0,0,1,.4.08,2.43,2.43,0,0,1-.3.26c-.13.09-.24.17-.22.37l-.33-.21a.09.09,0,0,1,0-.11h.08Z"/><path class="cls-6" d="M6.59,9c.14.14.27.24.38,0,0-.06.1-.07.11,0s.06.2,0,.26-.2.12-.08.29-.09.19-.24.26C6.81,9.48,6.55,9.27,6.59,9Zm.24.25v0h0l0,0Z"/><path class="cls-8" d="M9.34,9.32a.1.1,0,0,1-.06-.12c.05,0,.1,0,.09-.08s0-.2.11-.16.26,0,.19.18c0,0,0,.11.06.17s0-.13.15-.21c-.1.15.13.23,0,.36s-.11.09-.12.06S9.47,9.38,9.34,9.32Z"/><path class="cls-15" d="M6.1,8.12s0,0,0,0l0,0,0,0Z"/><path class="cls-19" d="M8,14.12c-.06,0-.12,0-.17.05a11.89,11.89,0,0,0-1.48-.62c0-.1-.09-.13-.18-.17A3.46,3.46,0,0,1,5.47,13c0-.12.06-.21.21-.22a2.81,2.81,0,0,0,.44.33c.08.07.28-.07.34.13.21-.11.25.12.38.17a3.52,3.52,0,0,0,.94.49C7.81,14.05,8,14,8,14.12Z"/><path class="cls-10" d="M7.78,13.92a3.52,3.52,0,0,1-.94-.49l0-.12c.17.11.44,0,.56.24s.14-.17.23,0S7.75,13.79,7.78,13.92Z"/><path class="cls-21" d="M5.37,12.28c.07,0,.18-.13.21.05l0,.07a0,0,0,0,0,0,0l-.06.11c-.14,0,0,.1-.06.13s0,.13-.11.13-.13-.06-.14-.15.1-.17,0-.27Z"/><path class="cls-20" d="M5.52,11.06A.28.28,0,0,1,5.81,11a.34.34,0,0,0,0,.26l-.24.43C5.38,11.47,5.61,11.27,5.52,11.06Z"/><path class="cls-11" d="M6.37,12.18s0,.09-.06.08a0,0,0,0,1,0,0c0-.05,0-.06.07-.09Z"/><path class="cls-17" d="M5.63,12.43a0,0,0,0,1,0,0h0Z"/><path class="cls-7" d="M5,5.3c.07.11.19.1.21.21s0,.18-.12.12S5,5.47,5,5.3Z"/><path class="cls-7" d="M4.68,5.4c.12-.06.19-.06.23.09A.32.32,0,0,1,4.68,5.4Z"/><path class="cls-7" d="M5,5.65v0s0,0,0,0Z"/><path class="cls-15" d="M5.47,13a3.46,3.46,0,0,0,.72.36c.09,0,.16.07.18.17v0l0,0a5.65,5.65,0,0,0-.94-.5v0H5.31V13Z"/><path class="cls-8" d="M5.31,12.38c.05.1,0,.18,0,.27s-.17-.18-.24,0c-.18-.15.06-.18.07-.28S5.24,12.38,5.31,12.38Z"/><path class="cls-8" d="M5.31,13v.16c-.11.13-.22-.05-.28,0C5.14,13.19,5.16,13,5.31,13Z"/><path class="cls-21" d="M6.33,13.64l0,0s.11,0,.11.1S6.32,13.8,6.33,13.64Z"/><path class="cls-13" d="M4.76,12.45h.08S4.8,12.52,4.76,12.45Z"/><path class="cls-8" d="M5.38,13.14v0Z"/><path class="cls-8" d="M9.08,13.34c.09.14.07.23,0,.31s0,0-.08,0S9.06,13.48,9.08,13.34Z"/><path class="cls-16" d="M8.53,2.3h-.1l-.14-.19C8.54,2.1,8.55,2.11,8.53,2.3Z"/><path class="cls-11" d="M8.38,5.79h0l0,0v0Z"/><path class="cls-14" d="M7.37,8.42c.06,0,0,.09.06.14S7.38,8.47,7.37,8.42Z"/><path class="cls-15" d="M8.28,8.57l.06,0H8.26Z"/><path class="cls-8" d="M7.62,2.4h0l0,0Z"/><path class="cls-7" d="M6.83,9.21v0l0,0h0Z"/></g></g></g></g></svg>