<?xml version="1.0" encoding="UTF-8" standalone="no"?>
<svg
   viewBox="0 0 13.407767 20"
   version="1.1"
   id="svg260"
   sodipodi:docname="icon_white_green.svg"
   width="13.407766"
   height="20"
   inkscape:version="1.4.2 (ebf0e940, 2025-05-08)"
   xmlns:inkscape="http://www.inkscape.org/namespaces/inkscape"
   xmlns:sodipodi="http://sodipodi.sourceforge.net/DTD/sodipodi-0.dtd"
   xmlns="http://www.w3.org/2000/svg"
   xmlns:svg="http://www.w3.org/2000/svg">
  <sodipodi:namedview
     id="namedview262"
     pagecolor="#ffffff"
     bordercolor="#666666"
     borderopacity="1.0"
     inkscape:pageshadow="2"
     inkscape:pageopacity="0.0"
     inkscape:pagecheckerboard="0"
     showgrid="false"
     width="38.14px"
     inkscape:zoom="6.0625"
     inkscape:cx="-3.8762887"
     inkscape:cy="16"
     inkscape:window-width="1296"
     inkscape:window-height="1081"
     inkscape:window-x="409"
     inkscape:window-y="31"
     inkscape:window-maximized="0"
     inkscape:current-layer="icon_white_orange"
     inkscape:showpageshadow="2"
     inkscape:deskcolor="#d1d1d1" />
  <defs
     id="defs243">
    <style
       id="style241">.cls-1{fill:#eeeeef;}.cls-2{fill:#ff931e;}</style>
  </defs>
  <g
     id="Layer_2"
     data-name="Layer 2"
     transform="translate(-4.6185575,-7.5786532)">
    <g
       id="Layer_1-2"
       data-name="Layer 1">
      <g
         id="icon_white_orange">
        <path
           class="cls-1"
           d="m 15.626923,13.348867 a 3.5102357,3.5102357 0 0 0 0.105524,0.416563 0.66094626,0.66094626 0 0 0 0.144408,-0.0611 1.4107593,1.4107593 0 0 1 1.410762,-0.06665 l 0.02777,-0.03887 a 1.110834,1.110834 0 0 0 -0.749817,-0.394347 1.7162387,1.7162387 0 0 0 -0.894223,0.138854 z"
           id="path245"
           style="stroke-width:0.555417" />
        <path
           class="cls-1"
           d="m 13.705179,13.043387 a 1.6662511,1.6662511 0 0 0 -0.949762,0.177734 2.1328014,2.1328014 0 0 0 -1.049739,1.277459 l 0.03887,0.02777 a 2.7770852,2.7770852 0 0 1 1.160823,-0.916437 2.3271974,2.3271974 0 0 1 1.460745,0.08886 6.5928001,6.5928001 0 0 0 0.749813,0.122187 2.54381,2.54381 0 0 0 0,-0.50543 c -0.194394,-0.03333 -0.405453,-0.08331 -0.610957,-0.133298 -0.205506,-0.04999 -0.499876,-0.09998 -0.799802,-0.138855 z"
           id="path247"
           style="stroke-width:0.555417" />
        <path
           class="cls-1"
           d="m 13.305279,15.059551 a 0.74425882,0.74425882 0 0 1 0.688718,-0.46655 c 0.344358,0 0.622066,0.144409 0.622066,0.444334 0,0.299925 -0.272154,0.46655 -0.622066,0.444334 a 0.79424635,0.79424635 0 0 1 -0.688718,-0.422118 z"
           id="path249"
           style="stroke-width:0.555417" />
        <path
           class="cls-1"
           d="m 15.949064,14.970685 c 0,-0.244384 0.23883,-0.377684 0.555417,-0.377684 a 0.55541702,0.55541702 0 0 1 0.527646,0.377684 0.60540456,0.60540456 0 0 1 -0.527646,0.383238 c -0.316587,0.0055 -0.522092,-0.127747 -0.555417,-0.383238 z"
           id="path251"
           style="stroke-width:0.555417" />
        <path
           class="cls-1"
           d="m 18.026324,24.085078 -1.849539,-1.949514 c 0.977534,-0.449887 0.810909,-1.044183 0.722042,-1.921741 -0.09442,-1.044186 0.649838,-1.416314 0.522093,-1.932852 a 1.6218178,1.6218178 0 0 0 -1.54406,-1.299677 c -0.97198,-0.03333 -2.349415,1.793997 -4.132303,1.394097 -1.7828884,-0.3999 -1.632926,-2.777085 -1.632926,-2.777085 0,0 0.555418,-2.593797 0.04999,-2.965927 A 1.6218178,1.6218178 0 0 1 9.3618182,11.216066 c 0,-0.910884 0.5165377,-1.6662512 2.1661258,-1.4274222 1.649589,0.2388302 1.34411,0.3443592 2.488269,0.4721042 1.144158,0.127747 1.444085,-0.205503 1.444085,-0.205503 l 0.377682,0.355466 v 0 l 0.583189,0.988643 0.09443,0.04999 c 0,0 -0.166625,-0.749814 -0.233275,-0.988643 -0.46656,-1.6662534 -1.249697,-2.0161661 -1.249697,-2.0161661 v 0 A 1.4607468,1.4607468 0 0 0 14.849339,8.3334512 C 13.505229,7.5836385 8.3398509,6.5450086 6.9401999,9.9774856 6.3847829,11.366029 6.7680206,13.19335 7.1179333,14.320847 a 1.5440593,1.5440593 0 0 0 -0.1721792,0.6665 2.6771101,2.6771101 0 0 0 0.1277458,0.77203 2.704881,2.704881 0 0 0 0.8386797,1.194147 1.9661763,1.9661763 0 0 0 0.649838,0.37213 1.4829634,1.4829634 0 0 0 0.355467,0.04999 0.55541702,0.55541702 0 0 0 0,-0.194396 1.5940469,1.5940469 0 0 1 -0.2221668,-0.09998 1.9717305,1.9717305 0 0 1 -0.4776586,-0.405456 3.1547687,3.1547687 0 0 1 -0.649838,-1.110833 c 0,-0.08886 -0.055541,-0.177734 -0.077759,-0.272155 0,-0.177732 -0.06665,-0.894221 0.6165128,-0.971979 1.0886174,-0.105524 1.5107346,1.260797 1.5107346,1.260797 0,0 -0.088864,3.193647 0.9497634,4.654394 a 5.4875202,5.4875202 0 0 0 4.193398,2.221669 c -0.205503,0.588741 -0.688717,1.916189 -1.033074,2.632676 a 16.795811,16.795811 0 0 1 -0.827573,1.47741 4.5044321,4.5044321 0 0 1 -0.588741,0.855343 l 0.222166,0.138854 4.815466,-2.732653 -0.70538,-0.716487 z m -2.399401,-4.215615 c -0.655393,0.138854 -1.34411,-0.299925 -1.366326,-0.76092 -0.02221,-0.460997 0.833124,-0.833127 1.271904,-0.927549 a 0.60540456,0.60540456 0 0 1 0.794246,0.494322 c -0.04444,0.455443 -0.04444,1.055292 -0.699824,1.194147 z"
           id="path253"
           style="stroke-width:0.555417" />
        <circle
           class="cls-2"
           cx="7.7455554"
           cy="24.451654"
           r="3.1269979"
           id="circle255"
           style="fill:#32d74b;fill-opacity:1;stroke-width:0.555417" />
      </g>
    </g>
  </g>
</svg>
